<?xml version="1.0" encoding="UTF-8" standalone="no"?><svg xmlns="http://www.w3.org/2000/svg" xmlns:xlink="http://www.w3.org/1999/xlink" clip-rule="evenodd" stroke-miterlimit="10" viewBox="0 0 1024 768"><desc>SVG generated by Keynote</desc><defs></defs><g transform="matrix(1.00, 0.00, -0.00, -1.00, 0.0, 768.0)"><path d="M 0.0 768.0 L 1024.0 768.0 L 1024.0 0.0 L 0.0 0.0 Z M 0.0 768.0 " fill="#FEFFFF"></path><text xml:space="preserve" font-family="Helvetica-Light,Helvetica" font-size="50.0" fill="#000000" transform="matrix(1.00, 0.00, -0.00, -1.00, 397.7, 672.6)">С</text><text xml:space="preserve" font-family="Helvetica-Light,Helvetica" font-size="50.0" fill="#000000" transform="matrix(1.00, 0.00, -0.00, -1.00, 432.9, 672.6)">у</text><text xml:space="preserve" font-family="Helvetica-Light,Helvetica" font-size="50.0" fill="#000000" transform="matrix(1.00, 0.00, -0.00, -1.00, 456.0, 672.6)">щ</text><text xml:space="preserve" font-family="Helvetica-Light,Helvetica" font-size="50.0" fill="#000000" transform="matrix(1.00, 0.00, -0.00, -1.00, 496.4, 672.6)">н</text><text xml:space="preserve" font-family="Helvetica-Light,Helvetica" font-size="50.0" fill="#000000" transform="matrix(1.00, 0.00, -0.00, -1.00, 523.2, 672.6)">о</text><text xml:space="preserve" font-family="Helvetica-Light,Helvetica" font-size="50.0" fill="#000000" transform="matrix(1.00, 0.00, -0.00, -1.00, 551.1, 672.6)">с</text><text xml:space="preserve" font-family="Helvetica-Light,Helvetica" font-size="50.0" fill="#000000" transform="matrix(1.00, 0.00, -0.00, -1.00, 577.0, 672.6)">т</text><text xml:space="preserve" font-family="Helvetica-Light,Helvetica" font-size="50.0" fill="#000000" transform="matrix(1.00, 0.00, -0.00, -1.00, 599.2, 672.6)">и</text><text xml:space="preserve" font-family="Helvetica-Light,Helvetica" font-size="32.2" fill="#000000" transform="matrix(1.00, 0.00, -0.00, -1.00, 43.4, 415.1)">•</text><text xml:space="preserve" font-family="Helvetica-Light,Helvetica" font-size="43.0" fill="#000000" transform="matrix(1.00, 0.00, -0.00, -1.00, 78.4, 410.6)">В</text><text xml:space="preserve" font-family="Helvetica-Light,Helvetica" font-size="43.0" fill="#000000" transform="matrix(1.00, 0.00, -0.00, -1.00, 107.1, 410.6)">м</text><text xml:space="preserve" font-family="Helvetica-Light,Helvetica" font-size="43.0" fill="#000000" transform="matrix(1.00, 0.00, -0.00, -1.00, 135.8, 410.6)">е</text><text xml:space="preserve" font-family="Helvetica-Light,Helvetica" font-size="43.0" fill="#000000" transform="matrix(1.00, 0.00, -0.00, -1.00, 158.1, 410.6)">с</text><text xml:space="preserve" font-family="Helvetica-Light,Helvetica" font-size="43.0" fill="#000000" transform="matrix(1.00, 0.00, -0.00, -1.00, 180.4, 410.6)">т</text><text xml:space="preserve" font-family="Helvetica-Light,Helvetica" font-size="43.0" fill="#000000" transform="matrix(1.00, 0.00, -0.00, -1.00, 199.5, 410.6)">о</text><text xml:space="preserve" font-family="Helvetica-Light,Helvetica" font-size="43.0" fill="#000000" transform="matrix(1.00, 0.00, -0.00, -1.00, 223.4, 410.6)"> </text><text xml:space="preserve" font-family="Helvetica-Light,Helvetica" font-size="43.0" fill="#000000" transform="matrix(1.00, 0.00, -0.00, -1.00, 235.4, 410.6)">о</text><text xml:space="preserve" font-family="Helvetica-Light,Helvetica" font-size="43.0" fill="#000000" transform="matrix(1.00, 0.00, -0.00, -1.00, 259.3, 410.6)">б</text><text xml:space="preserve" font-family="Helvetica-Light,Helvetica" font-size="43.0" fill="#000000" transform="matrix(1.00, 0.00, -0.00, -1.00, 283.2, 410.6)">ъ</text><text xml:space="preserve" font-family="Helvetica-Light,Helvetica" font-size="43.0" fill="#000000" transform="matrix(1.00, 0.00, -0.00, -1.00, 309.2, 410.6)">е</text><text xml:space="preserve" font-family="Helvetica-Light,Helvetica" font-size="43.0" fill="#000000" transform="matrix(1.00, 0.00, -0.00, -1.00, 331.5, 410.6)">к</text><text xml:space="preserve" font-family="Helvetica-Light,Helvetica" font-size="43.0" fill="#000000" transform="matrix(1.00, 0.00, -0.00, -1.00, 352.9, 410.6)">т</text><text xml:space="preserve" font-family="Helvetica-Light,Helvetica" font-size="43.0" fill="#000000" transform="matrix(1.00, 0.00, -0.00, -1.00, 372.0, 410.6)">о</text><text xml:space="preserve" font-family="Helvetica-Light,Helvetica" font-size="43.0" fill="#000000" transform="matrix(1.00, 0.00, -0.00, -1.00, 395.9, 410.6)">в</text><text xml:space="preserve" font-family="Helvetica-Light,Helvetica" font-size="43.0" fill="#000000" transform="matrix(1.00, 0.00, -0.00, -1.00, 418.1, 410.6)"> </text><text xml:space="preserve" font-family="Helvetica-Light,Helvetica" font-size="43.0" fill="#000000" transform="matrix(1.00, 0.00, -0.00, -1.00, 430.1, 410.6)">п</text><text xml:space="preserve" font-family="Helvetica-Light,Helvetica" font-size="43.0" fill="#000000" transform="matrix(1.00, 0.00, -0.00, -1.00, 452.8, 410.6)">р</text><text xml:space="preserve" font-family="Helvetica-Light,Helvetica" font-size="43.0" fill="#000000" transform="matrix(1.00, 0.00, -0.00, -1.00, 477.5, 410.6)">о</text><text xml:space="preserve" font-family="Helvetica-Light,Helvetica" font-size="43.0" fill="#000000" transform="matrix(1.00, 0.00, -0.00, -1.00, 501.4, 410.6)">ц</text><text xml:space="preserve" font-family="Helvetica-Light,Helvetica" font-size="43.0" fill="#000000" transform="matrix(1.00, 0.00, -0.00, -1.00, 525.2, 410.6)">е</text><text xml:space="preserve" font-family="Helvetica-Light,Helvetica" font-size="43.0" fill="#000000" transform="matrix(1.00, 0.00, -0.00, -1.00, 547.5, 410.6)">с</text><text xml:space="preserve" font-family="Helvetica-Light,Helvetica" font-size="43.0" fill="#000000" transform="matrix(1.00, 0.00, -0.00, -1.00, 569.8, 410.6)">с</text><text xml:space="preserve" font-family="Helvetica-Light,Helvetica" font-size="43.0" fill="#000000" transform="matrix(1.00, 0.00, -0.00, -1.00, 592.1, 410.6)">ы</text><text xml:space="preserve" font-family="Helvetica-Light,Helvetica" font-size="43.0" fill="#000000" transform="matrix(1.00, 0.00, -0.00, -1.00, 621.0, 410.6)"> </text><text xml:space="preserve" font-family="Helvetica-Light,Helvetica" font-size="32.2" fill="#000000" transform="matrix(1.00, 0.00, -0.00, -1.00, 43.4, 363.1)">•</text><text xml:space="preserve" font-family="Helvetica-Light,Helvetica" font-size="43.0" fill="#000000" transform="matrix(1.00, 0.00, -0.00, -1.00, 78.4, 358.6)">В</text><text xml:space="preserve" font-family="Helvetica-Light,Helvetica" font-size="43.0" fill="#000000" transform="matrix(1.00, 0.00, -0.00, -1.00, 107.1, 358.6)">м</text><text xml:space="preserve" font-family="Helvetica-Light,Helvetica" font-size="43.0" fill="#000000" transform="matrix(1.00, 0.00, -0.00, -1.00, 135.8, 358.6)">е</text><text xml:space="preserve" font-family="Helvetica-Light,Helvetica" font-size="43.0" fill="#000000" transform="matrix(1.00, 0.00, -0.00, -1.00, 158.1, 358.6)">с</text><text xml:space="preserve" font-family="Helvetica-Light,Helvetica" font-size="43.0" fill="#000000" transform="matrix(1.00, 0.00, -0.00, -1.00, 180.4, 358.6)">т</text><text xml:space="preserve" font-family="Helvetica-Light,Helvetica" font-size="43.0" fill="#000000" transform="matrix(1.00, 0.00, -0.00, -1.00, 199.5, 358.6)">о</text><text xml:space="preserve" font-family="Helvetica-Light,Helvetica" font-size="43.0" fill="#000000" transform="matrix(1.00, 0.00, -0.00, -1.00, 223.4, 358.6)"> </text><text xml:space="preserve" font-family="Helvetica-Light,Helvetica" font-size="43.0" fill="#000000" transform="matrix(1.00, 0.00, -0.00, -1.00, 235.4, 358.6)">с</text><text xml:space="preserve" font-family="Helvetica-Light,Helvetica" font-size="43.0" fill="#000000" transform="matrix(1.00, 0.00, -0.00, -1.00, 257.7, 358.6)">с</text><text xml:space="preserve" font-family="Helvetica-Light,Helvetica" font-size="43.0" fill="#000000" transform="matrix(1.00, 0.00, -0.00, -1.00, 280.0, 358.6)">ы</text><text xml:space="preserve" font-family="Helvetica-Light,Helvetica" font-size="43.0" fill="#000000" transform="matrix(1.00, 0.00, -0.00, -1.00, 308.8, 358.6)">л</text><text xml:space="preserve" font-family="Helvetica-Light,Helvetica" font-size="43.0" fill="#000000" transform="matrix(1.00, 0.00, -0.00, -1.00, 333.1, 358.6)">о</text><text xml:space="preserve" font-family="Helvetica-Light,Helvetica" font-size="43.0" fill="#000000" transform="matrix(1.00, 0.00, -0.00, -1.00, 357.0, 358.6)">к</text><text xml:space="preserve" font-family="Helvetica-Light,Helvetica" font-size="43.0" fill="#000000" transform="matrix(1.00, 0.00, -0.00, -1.00, 378.5, 358.6)"> </text><text xml:space="preserve" font-family="Helvetica-Light,Helvetica" font-size="43.0" fill="#000000" transform="matrix(1.00, 0.00, -0.00, -1.00, 390.4, 358.6)">-</text><text xml:space="preserve" font-family="Helvetica-Light,Helvetica" font-size="43.0" fill="#000000" transform="matrix(1.00, 0.00, -0.00, -1.00, 404.7, 358.6)"> </text><text xml:space="preserve" font-family="Helvetica-Light,Helvetica" font-size="43.0" fill="#000000" transform="matrix(1.00, 0.00, -0.00, -1.00, 416.7, 358.6)">P</text><text xml:space="preserve" font-family="Helvetica-Light,Helvetica" font-size="43.0" fill="#000000" transform="matrix(1.00, 0.00, -0.00, -1.00, 443.0, 358.6)">i</text><text xml:space="preserve" font-family="Helvetica-Light,Helvetica" font-size="43.0" fill="#000000" transform="matrix(1.00, 0.00, -0.00, -1.00, 452.5, 358.6)">d</text><text xml:space="preserve" font-family="Helvetica-Light,Helvetica" font-size="43.0" fill="#000000" transform="matrix(1.00, 0.00, -0.00, -1.00, 478.8, 358.6)">’</text><text xml:space="preserve" font-family="Helvetica-Light,Helvetica" font-size="43.0" fill="#000000" transform="matrix(1.00, 0.00, -0.00, -1.00, 488.3, 358.6)">ы</text><text xml:space="preserve" font-family="Helvetica-Light,Helvetica" font-size="43.0" fill="#000000" transform="matrix(1.00, 0.00, -0.00, -1.00, 517.2, 358.6)"> </text><text xml:space="preserve" font-family="Helvetica-Light,Helvetica" font-size="32.2" fill="#000000" transform="matrix(1.00, 0.00, -0.00, -1.00, 43.4, 311.1)">•</text><text xml:space="preserve" font-family="Helvetica-Light,Helvetica" font-size="43.0" fill="#000000" transform="matrix(1.00, 0.00, -0.00, -1.00, 78.4, 306.6)">В</text><text xml:space="preserve" font-family="Helvetica-Light,Helvetica" font-size="43.0" fill="#000000" transform="matrix(1.00, 0.00, -0.00, -1.00, 107.1, 306.6)">м</text><text xml:space="preserve" font-family="Helvetica-Light,Helvetica" font-size="43.0" fill="#000000" transform="matrix(1.00, 0.00, -0.00, -1.00, 135.8, 306.6)">е</text><text xml:space="preserve" font-family="Helvetica-Light,Helvetica" font-size="43.0" fill="#000000" transform="matrix(1.00, 0.00, -0.00, -1.00, 158.1, 306.6)">с</text><text xml:space="preserve" font-family="Helvetica-Light,Helvetica" font-size="43.0" fill="#000000" transform="matrix(1.00, 0.00, -0.00, -1.00, 180.4, 306.6)">т</text><text xml:space="preserve" font-family="Helvetica-Light,Helvetica" font-size="43.0" fill="#000000" transform="matrix(1.00, 0.00, -0.00, -1.00, 199.5, 306.6)">о</text><text xml:space="preserve" font-family="Helvetica-Light,Helvetica" font-size="43.0" fill="#000000" transform="matrix(1.00, 0.00, -0.00, -1.00, 223.4, 306.6)"> </text><text xml:space="preserve" font-family="Helvetica-Light,Helvetica" font-size="43.0" fill="#000000" transform="matrix(1.00, 0.00, -0.00, -1.00, 235.4, 306.6)">в</text><text xml:space="preserve" font-family="Helvetica-Light,Helvetica" font-size="43.0" fill="#000000" transform="matrix(1.00, 0.00, -0.00, -1.00, 257.6, 306.6)">ы</text><text xml:space="preserve" font-family="Helvetica-Light,Helvetica" font-size="43.0" fill="#000000" transform="matrix(1.00, 0.00, -0.00, -1.00, 286.4, 306.6)">з</text><text xml:space="preserve" font-family="Helvetica-Light,Helvetica" font-size="43.0" fill="#000000" transform="matrix(1.00, 0.00, -0.00, -1.00, 307.3, 306.6)">о</text><text xml:space="preserve" font-family="Helvetica-Light,Helvetica" font-size="43.0" fill="#000000" transform="matrix(1.00, 0.00, -0.00, -1.00, 331.2, 306.6)">в</text><text xml:space="preserve" font-family="Helvetica-Light,Helvetica" font-size="43.0" fill="#000000" transform="matrix(1.00, 0.00, -0.00, -1.00, 353.4, 306.6)">а</text><text xml:space="preserve" font-family="Helvetica-Light,Helvetica" font-size="43.0" fill="#000000" transform="matrix(1.00, 0.00, -0.00, -1.00, 375.7, 306.6)"> </text><text xml:space="preserve" font-family="Helvetica-Light,Helvetica" font-size="43.0" fill="#000000" transform="matrix(1.00, 0.00, -0.00, -1.00, 387.7, 306.6)">м</text><text xml:space="preserve" font-family="Helvetica-Light,Helvetica" font-size="43.0" fill="#000000" transform="matrix(1.00, 0.00, -0.00, -1.00, 416.4, 306.6)">е</text><text xml:space="preserve" font-family="Helvetica-Light,Helvetica" font-size="43.0" fill="#000000" transform="matrix(1.00, 0.00, -0.00, -1.00, 438.7, 306.6)">т</text><text xml:space="preserve" font-family="Helvetica-Light,Helvetica" font-size="43.0" fill="#000000" transform="matrix(1.00, 0.00, -0.00, -1.00, 457.8, 306.6)">о</text><text xml:space="preserve" font-family="Helvetica-Light,Helvetica" font-size="43.0" fill="#000000" transform="matrix(1.00, 0.00, -0.00, -1.00, 481.7, 306.6)">д</text><text xml:space="preserve" font-family="Helvetica-Light,Helvetica" font-size="43.0" fill="#000000" transform="matrix(1.00, 0.00, -0.00, -1.00, 506.2, 306.6)">а</text><text xml:space="preserve" font-family="Helvetica-Light,Helvetica" font-size="43.0" fill="#000000" transform="matrix(1.00, 0.00, -0.00, -1.00, 528.5, 306.6)"> </text><text xml:space="preserve" font-family="Helvetica-Light,Helvetica" font-size="43.0" fill="#000000" transform="matrix(1.00, 0.00, -0.00, -1.00, 540.5, 306.6)">-</text><text xml:space="preserve" font-family="Helvetica-Light,Helvetica" font-size="43.0" fill="#000000" transform="matrix(1.00, 0.00, -0.00, -1.00, 554.8, 306.6)"> </text><text xml:space="preserve" font-family="Helvetica-Light,Helvetica" font-size="43.0" fill="#000000" transform="matrix(1.00, 0.00, -0.00, -1.00, 566.8, 306.6)">п</text><text xml:space="preserve" font-family="Helvetica-Light,Helvetica" font-size="43.0" fill="#000000" transform="matrix(1.00, 0.00, -0.00, -1.00, 589.5, 306.6)">о</text><text xml:space="preserve" font-family="Helvetica-Light,Helvetica" font-size="43.0" fill="#000000" transform="matrix(1.00, 0.00, -0.00, -1.00, 613.5, 306.6)">с</text><text xml:space="preserve" font-family="Helvetica-Light,Helvetica" font-size="43.0" fill="#000000" transform="matrix(1.00, 0.00, -0.00, -1.00, 635.8, 306.6)">ы</text><text xml:space="preserve" font-family="Helvetica-Light,Helvetica" font-size="43.0" fill="#000000" transform="matrix(1.00, 0.00, -0.00, -1.00, 664.6, 306.6)">л</text><text xml:space="preserve" font-family="Helvetica-Light,Helvetica" font-size="43.0" fill="#000000" transform="matrix(1.00, 0.00, -0.00, -1.00, 688.9, 306.6)">к</text><text xml:space="preserve" font-family="Helvetica-Light,Helvetica" font-size="43.0" fill="#000000" transform="matrix(1.00, 0.00, -0.00, -1.00, 710.3, 306.6)">а</text><text xml:space="preserve" font-family="Helvetica-Light,Helvetica" font-size="43.0" fill="#000000" transform="matrix(1.00, 0.00, -0.00, -1.00, 732.6, 306.6)"> </text><text xml:space="preserve" font-family="Helvetica-Light,Helvetica" font-size="43.0" fill="#000000" transform="matrix(1.00, 0.00, -0.00, -1.00, 744.6, 306.6)">с</text><text xml:space="preserve" font-family="Helvetica-Light,Helvetica" font-size="43.0" fill="#000000" transform="matrix(1.00, 0.00, -0.00, -1.00, 766.9, 306.6)">о</text><text xml:space="preserve" font-family="Helvetica-Light,Helvetica" font-size="43.0" fill="#000000" transform="matrix(1.00, 0.00, -0.00, -1.00, 790.8, 306.6)">о</text><text xml:space="preserve" font-family="Helvetica-Light,Helvetica" font-size="43.0" fill="#000000" transform="matrix(1.00, 0.00, -0.00, -1.00, 814.7, 306.6)">б</text><text xml:space="preserve" font-family="Helvetica-Light,Helvetica" font-size="43.0" fill="#000000" transform="matrix(1.00, 0.00, -0.00, -1.00, 838.6, 306.6)">щ</text><text xml:space="preserve" font-family="Helvetica-Light,Helvetica" font-size="43.0" fill="#000000" transform="matrix(1.00, 0.00, -0.00, -1.00, 873.4, 306.6)">е</text><text xml:space="preserve" font-family="Helvetica-Light,Helvetica" font-size="43.0" fill="#000000" transform="matrix(1.00, 0.00, -0.00, -1.00, 895.7, 306.6)">н</text><text xml:space="preserve" font-family="Helvetica-Light,Helvetica" font-size="43.0" fill="#000000" transform="matrix(1.00, 0.00, -0.00, -1.00, 918.8, 306.6)">и</text><text xml:space="preserve" font-family="Helvetica-Light,Helvetica" font-size="43.0" fill="#000000" transform="matrix(1.00, 0.00, -0.00, -1.00, 942.2, 306.6)">я</text><text xml:space="preserve" font-family="Helvetica-Light,Helvetica" font-size="43.0" fill="#000000" transform="matrix(1.00, 0.00, -0.00, -1.00, 963.9, 306.6)"> </text><text xml:space="preserve" font-family="Helvetica-Light,Helvetica" font-size="32.2" fill="#000000" transform="matrix(1.00, 0.00, -0.00, -1.00, 43.4, 259.1)">•</text><text xml:space="preserve" font-family="Helvetica-Light,Helvetica" font-size="43.0" fill="#000000" transform="matrix(1.00, 0.00, -0.00, -1.00, 78.4, 254.6)">У</text><text xml:space="preserve" font-family="Helvetica-Light,Helvetica" font-size="43.0" fill="#000000" transform="matrix(1.00, 0.00, -0.00, -1.00, 103.7, 254.6)"> </text><text xml:space="preserve" font-family="Helvetica-Light,Helvetica" font-size="43.0" fill="#000000" transform="matrix(1.00, 0.00, -0.00, -1.00, 115.6, 254.6)">к</text><text xml:space="preserve" font-family="Helvetica-Light,Helvetica" font-size="43.0" fill="#000000" transform="matrix(1.00, 0.00, -0.00, -1.00, 137.1, 254.6)">а</text><text xml:space="preserve" font-family="Helvetica-Light,Helvetica" font-size="43.0" fill="#000000" transform="matrix(1.00, 0.00, -0.00, -1.00, 159.4, 254.6)">ж</text><text xml:space="preserve" font-family="Helvetica-Light,Helvetica" font-size="43.0" fill="#000000" transform="matrix(1.00, 0.00, -0.00, -1.00, 191.1, 254.6)">д</text><text xml:space="preserve" font-family="Helvetica-Light,Helvetica" font-size="43.0" fill="#000000" transform="matrix(1.00, 0.00, -0.00, -1.00, 215.6, 254.6)">о</text><text xml:space="preserve" font-family="Helvetica-Light,Helvetica" font-size="43.0" fill="#000000" transform="matrix(1.00, 0.00, -0.00, -1.00, 239.5, 254.6)">г</text><text xml:space="preserve" font-family="Helvetica-Light,Helvetica" font-size="43.0" fill="#000000" transform="matrix(1.00, 0.00, -0.00, -1.00, 256.7, 254.6)">о</text><text xml:space="preserve" font-family="Helvetica-Light,Helvetica" font-size="43.0" fill="#000000" transform="matrix(1.00, 0.00, -0.00, -1.00, 280.6, 254.6)"> </text><text xml:space="preserve" font-family="Helvetica-Light,Helvetica" font-size="43.0" fill="#000000" transform="matrix(1.00, 0.00, -0.00, -1.00, 292.5, 254.6)">п</text><text xml:space="preserve" font-family="Helvetica-Light,Helvetica" font-size="43.0" fill="#000000" transform="matrix(1.00, 0.00, -0.00, -1.00, 315.3, 254.6)">р</text><text xml:space="preserve" font-family="Helvetica-Light,Helvetica" font-size="43.0" fill="#000000" transform="matrix(1.00, 0.00, -0.00, -1.00, 340.0, 254.6)">о</text><text xml:space="preserve" font-family="Helvetica-Light,Helvetica" font-size="43.0" fill="#000000" transform="matrix(1.00, 0.00, -0.00, -1.00, 363.9, 254.6)">ц</text><text xml:space="preserve" font-family="Helvetica-Light,Helvetica" font-size="43.0" fill="#000000" transform="matrix(1.00, 0.00, -0.00, -1.00, 387.7, 254.6)">е</text><text xml:space="preserve" font-family="Helvetica-Light,Helvetica" font-size="43.0" fill="#000000" transform="matrix(1.00, 0.00, -0.00, -1.00, 410.0, 254.6)">с</text><text xml:space="preserve" font-family="Helvetica-Light,Helvetica" font-size="43.0" fill="#000000" transform="matrix(1.00, 0.00, -0.00, -1.00, 432.3, 254.6)">с</text><text xml:space="preserve" font-family="Helvetica-Light,Helvetica" font-size="43.0" fill="#000000" transform="matrix(1.00, 0.00, -0.00, -1.00, 454.6, 254.6)">а</text><text xml:space="preserve" font-family="Helvetica-Light,Helvetica" font-size="43.0" fill="#000000" transform="matrix(1.00, 0.00, -0.00, -1.00, 476.9, 254.6)"> </text><text xml:space="preserve" font-family="Helvetica-Light,Helvetica" font-size="43.0" fill="#000000" transform="matrix(1.00, 0.00, -0.00, -1.00, 488.9, 254.6)">е</text><text xml:space="preserve" font-family="Helvetica-Light,Helvetica" font-size="43.0" fill="#000000" transform="matrix(1.00, 0.00, -0.00, -1.00, 511.2, 254.6)">с</text><text xml:space="preserve" font-family="Helvetica-Light,Helvetica" font-size="43.0" fill="#000000" transform="matrix(1.00, 0.00, -0.00, -1.00, 533.5, 254.6)">т</text><text xml:space="preserve" font-family="Helvetica-Light,Helvetica" font-size="43.0" fill="#000000" transform="matrix(1.00, 0.00, -0.00, -1.00, 552.6, 254.6)">ь</text><text xml:space="preserve" font-family="Helvetica-Light,Helvetica" font-size="43.0" fill="#000000" transform="matrix(1.00, 0.00, -0.00, -1.00, 574.1, 254.6)"> </text><text xml:space="preserve" font-family="Helvetica-Light,Helvetica" font-size="43.0" fill="#000000" transform="matrix(1.00, 0.00, -0.00, -1.00, 586.0, 254.6)">о</text><text xml:space="preserve" font-family="Helvetica-Light,Helvetica" font-size="43.0" fill="#000000" transform="matrix(1.00, 0.00, -0.00, -1.00, 609.9, 254.6)">ч</text><text xml:space="preserve" font-family="Helvetica-Light,Helvetica" font-size="43.0" fill="#000000" transform="matrix(1.00, 0.00, -0.00, -1.00, 631.3, 254.6)">е</text><text xml:space="preserve" font-family="Helvetica-Light,Helvetica" font-size="43.0" fill="#000000" transform="matrix(1.00, 0.00, -0.00, -1.00, 653.7, 254.6)">р</text><text xml:space="preserve" font-family="Helvetica-Light,Helvetica" font-size="43.0" fill="#000000" transform="matrix(1.00, 0.00, -0.00, -1.00, 678.3, 254.6)">е</text><text xml:space="preserve" font-family="Helvetica-Light,Helvetica" font-size="43.0" fill="#000000" transform="matrix(1.00, 0.00, -0.00, -1.00, 700.7, 254.6)">д</text><text xml:space="preserve" font-family="Helvetica-Light,Helvetica" font-size="43.0" fill="#000000" transform="matrix(1.00, 0.00, -0.00, -1.00, 725.2, 254.6)">ь</text><text xml:space="preserve" font-family="Helvetica-Light,Helvetica" font-size="43.0" fill="#000000" transform="matrix(1.00, 0.00, -0.00, -1.00, 746.7, 254.6)"> </text><text xml:space="preserve" font-family="Helvetica-Light,Helvetica" font-size="43.0" fill="#000000" transform="matrix(1.00, 0.00, -0.00, -1.00, 758.6, 254.6)">с</text><text xml:space="preserve" font-family="Helvetica-Light,Helvetica" font-size="43.0" fill="#000000" transform="matrix(1.00, 0.00, -0.00, -1.00, 780.9, 254.6)">о</text><text xml:space="preserve" font-family="Helvetica-Light,Helvetica" font-size="43.0" fill="#000000" transform="matrix(1.00, 0.00, -0.00, -1.00, 804.8, 254.6)">о</text><text xml:space="preserve" font-family="Helvetica-Light,Helvetica" font-size="43.0" fill="#000000" transform="matrix(1.00, 0.00, -0.00, -1.00, 828.8, 254.6)">б</text><text xml:space="preserve" font-family="Helvetica-Light,Helvetica" font-size="43.0" fill="#000000" transform="matrix(1.00, 0.00, -0.00, -1.00, 852.7, 254.6)">щ</text><text xml:space="preserve" font-family="Helvetica-Light,Helvetica" font-size="43.0" fill="#000000" transform="matrix(1.00, 0.00, -0.00, -1.00, 887.4, 254.6)">е</text><text xml:space="preserve" font-family="Helvetica-Light,Helvetica" font-size="43.0" fill="#000000" transform="matrix(1.00, 0.00, -0.00, -1.00, 909.7, 254.6)">н</text><text xml:space="preserve" font-family="Helvetica-Light,Helvetica" font-size="43.0" fill="#000000" transform="matrix(1.00, 0.00, -0.00, -1.00, 932.8, 254.6)">и</text><text xml:space="preserve" font-family="Helvetica-Light,Helvetica" font-size="43.0" fill="#000000" transform="matrix(1.00, 0.00, -0.00, -1.00, 956.2, 254.6)">й</text><image xlink:href="21C2B6A33354C1471F8AA0D7C56D4802.png" width="226.00" height="143.00" transform="matrix(1.01, 0.00, -0.00, -1.01, 44.4, 695.9)"></image><text xml:space="preserve" font-family="Helvetica-Light,Helvetica" font-size="18.0" fill="#000000" transform="matrix(1.00, 0.00, -0.00, -1.00, 501.5, 17.6)">2</text><text xml:space="preserve" font-family="Helvetica-Light,Helvetica" font-size="18.0" fill="#000000" transform="matrix(1.00, 0.00, -0.00, -1.00, 511.5, 17.6)">8</text></g></svg>