<?xml version="1.0" encoding="UTF-8" standalone="no"?><svg xmlns="http://www.w3.org/2000/svg" xmlns:xlink="http://www.w3.org/1999/xlink" clip-rule="evenodd" stroke-miterlimit="10" viewBox="0 0 1024 768"><desc>SVG generated by Keynote</desc><defs></defs><g transform="matrix(1.00, 0.00, -0.00, -1.00, 0.0, 768.0)"><path d="M 0.0 768.0 L 1024.0 768.0 L 1024.0 0.0 L 0.0 0.0 Z M 0.0 768.0 " fill="#FEFFFF"></path><text xml:space="preserve" font-family="Consolas,Consolas" font-size="52.0" fill="#000000" transform="matrix(1.00, 0.00, -0.00, -1.00, 340.5, 672.3)">C</text><text xml:space="preserve" font-family="Consolas,Consolas" font-size="52.0" fill="#000000" transform="matrix(1.00, 0.00, -0.00, -1.00, 369.0, 672.3)">1</text><text xml:space="preserve" font-family="Consolas,Consolas" font-size="52.0" fill="#000000" transform="matrix(1.00, 0.00, -0.00, -1.00, 397.6, 672.3)">0</text><text xml:space="preserve" font-family="Consolas,Consolas" font-size="52.0" fill="#000000" transform="matrix(1.00, 0.00, -0.00, -1.00, 426.2, 672.3)">k</text><text xml:space="preserve" font-family="Consolas,Consolas" font-size="52.0" fill="#000000" transform="matrix(1.00, 0.00, -0.00, -1.00, 454.8, 672.3)">	</text><text xml:space="preserve" font-family="Consolas,Consolas" font-size="52.0" fill="#000000" transform="matrix(1.00, 0.00, -0.00, -1.00, 482.8, 672.3)"></text><text xml:space="preserve" font-family="Consolas,Consolas" font-size="52.0" fill="#000000" transform="matrix(1.00, 0.00, -0.00, -1.00, 482.8, 672.3)"> </text><text xml:space="preserve" font-family="Consolas,Consolas" font-size="52.0" fill="#000000" transform="matrix(1.00, 0.00, -0.00, -1.00, 511.4, 672.3)"> </text><text xml:space="preserve" font-family="Consolas,Consolas" font-size="52.0" fill="#000000" transform="matrix(1.00, 0.00, -0.00, -1.00, 539.9, 672.3)">p</text><text xml:space="preserve" font-family="Consolas,Consolas" font-size="52.0" fill="#000000" transform="matrix(1.00, 0.00, -0.00, -1.00, 568.5, 672.3)">r</text><text xml:space="preserve" font-family="Consolas,Consolas" font-size="52.0" fill="#000000" transform="matrix(1.00, 0.00, -0.00, -1.00, 597.1, 672.3)">o</text><text xml:space="preserve" font-family="Consolas,Consolas" font-size="52.0" fill="#000000" transform="matrix(1.00, 0.00, -0.00, -1.00, 625.7, 672.3)">b</text><text xml:space="preserve" font-family="Consolas,Consolas" font-size="52.0" fill="#000000" transform="matrix(1.00, 0.00, -0.00, -1.00, 654.3, 672.3)">l</text><text xml:space="preserve" font-family="Consolas,Consolas" font-size="52.0" fill="#000000" transform="matrix(1.00, 0.00, -0.00, -1.00, 682.8, 672.3)">e</text><text xml:space="preserve" font-family="Consolas,Consolas" font-size="52.0" fill="#000000" transform="matrix(1.00, 0.00, -0.00, -1.00, 711.4, 672.3)">m</text><text xml:space="preserve" font-family="Consolas,Consolas" font-size="52.0" fill="#000000" transform="matrix(1.00, 0.00, -0.00, -1.00, 740.0, 672.3)">	</text><text xml:space="preserve" font-family="Consolas,Consolas" font-size="52.0" fill="#000000" transform="matrix(1.00, 0.00, -0.00, -1.00, 768.0, 672.3)"></text><text xml:space="preserve" font-family="Consolas,Consolas" font-size="52.0" fill="#000000" transform="matrix(1.00, 0.00, -0.00, -1.00, 768.0, 672.3)"> </text><text xml:space="preserve" font-family="Consolas,Consolas" font-size="52.0" fill="#000000" transform="matrix(1.00, 0.00, -0.00, -1.00, 796.6, 672.3)"> </text><g><clipPath id="clip0x7ff52f04ef30"><path d="M 339.5 662.7 L 683.5 662.7 L 683.5 668.3 L 339.5 668.3 Z M 339.5 662.7 "></path></clipPath><g clip-path="url(#clip0x7ff52f04ef30)"><path d="M 180.7 49.5 L 523.8 49.5 " fill="none" stroke="#000000" stroke-width="3.66" transform="matrix(1.00, 0.00, 0.00, -1.00, 159.7, 715.0)"></path></g></g><text xml:space="preserve" font-family="Helvetica-Light,Helvetica" font-size="52.0" fill="#000000" transform="matrix(1.00, 0.00, -0.00, -1.00, 164.2, 600.0)">П</text><text xml:space="preserve" font-family="Helvetica-Light,Helvetica" font-size="52.0" fill="#000000" transform="matrix(1.00, 0.00, -0.00, -1.00, 200.3, 600.0)">р</text><text xml:space="preserve" font-family="Helvetica-Light,Helvetica" font-size="52.0" fill="#000000" transform="matrix(1.00, 0.00, -0.00, -1.00, 230.2, 600.0)">о</text><text xml:space="preserve" font-family="Helvetica-Light,Helvetica" font-size="52.0" fill="#000000" transform="matrix(1.00, 0.00, -0.00, -1.00, 259.1, 600.0)">б</text><text xml:space="preserve" font-family="Helvetica-Light,Helvetica" font-size="52.0" fill="#000000" transform="matrix(1.00, 0.00, -0.00, -1.00, 288.0, 600.0)">л</text><text xml:space="preserve" font-family="Helvetica-Light,Helvetica" font-size="52.0" fill="#000000" transform="matrix(1.00, 0.00, -0.00, -1.00, 317.4, 600.0)">е</text><text xml:space="preserve" font-family="Helvetica-Light,Helvetica" font-size="52.0" fill="#000000" transform="matrix(1.00, 0.00, -0.00, -1.00, 344.4, 600.0)">м</text><text xml:space="preserve" font-family="Helvetica-Light,Helvetica" font-size="52.0" fill="#000000" transform="matrix(1.00, 0.00, -0.00, -1.00, 379.1, 600.0)">а</text><text xml:space="preserve" font-family="Helvetica-Light,Helvetica" font-size="52.0" fill="#000000" transform="matrix(1.00, 0.00, -0.00, -1.00, 406.1, 600.0)"> </text><text xml:space="preserve" font-family="Helvetica-Light,Helvetica" font-size="52.0" fill="#000000" transform="matrix(1.00, 0.00, -0.00, -1.00, 420.5, 600.0)">1</text><text xml:space="preserve" font-family="Helvetica-Light,Helvetica" font-size="52.0" fill="#000000" transform="matrix(1.00, 0.00, -0.00, -1.00, 449.4, 600.0)">0</text><text xml:space="preserve" font-family="Helvetica-Light,Helvetica" font-size="52.0" fill="#000000" transform="matrix(1.00, 0.00, -0.00, -1.00, 478.4, 600.0)">0</text><text xml:space="preserve" font-family="Helvetica-Light,Helvetica" font-size="52.0" fill="#000000" transform="matrix(1.00, 0.00, -0.00, -1.00, 507.3, 600.0)">0</text><text xml:space="preserve" font-family="Helvetica-Light,Helvetica" font-size="52.0" fill="#000000" transform="matrix(1.00, 0.00, -0.00, -1.00, 536.2, 600.0)">0</text><text xml:space="preserve" font-family="Helvetica-Light,Helvetica" font-size="52.0" fill="#000000" transform="matrix(1.00, 0.00, -0.00, -1.00, 565.1, 600.0)"> </text><text xml:space="preserve" font-family="Helvetica-Light,Helvetica" font-size="52.0" fill="#000000" transform="matrix(1.00, 0.00, -0.00, -1.00, 579.5, 600.0)">с</text><text xml:space="preserve" font-family="Helvetica-Light,Helvetica" font-size="52.0" fill="#000000" transform="matrix(1.00, 0.00, -0.00, -1.00, 606.5, 600.0)">о</text><text xml:space="preserve" font-family="Helvetica-Light,Helvetica" font-size="52.0" fill="#000000" transform="matrix(1.00, 0.00, -0.00, -1.00, 635.4, 600.0)">е</text><text xml:space="preserve" font-family="Helvetica-Light,Helvetica" font-size="52.0" fill="#000000" transform="matrix(1.00, 0.00, -0.00, -1.00, 662.4, 600.0)">д</text><text xml:space="preserve" font-family="Helvetica-Light,Helvetica" font-size="52.0" fill="#000000" transform="matrix(1.00, 0.00, -0.00, -1.00, 692.1, 600.0)">и</text><text xml:space="preserve" font-family="Helvetica-Light,Helvetica" font-size="52.0" fill="#000000" transform="matrix(1.00, 0.00, -0.00, -1.00, 720.4, 600.0)">н</text><text xml:space="preserve" font-family="Helvetica-Light,Helvetica" font-size="52.0" fill="#000000" transform="matrix(1.00, 0.00, -0.00, -1.00, 748.3, 600.0)">е</text><text xml:space="preserve" font-family="Helvetica-Light,Helvetica" font-size="52.0" fill="#000000" transform="matrix(1.00, 0.00, -0.00, -1.00, 775.3, 600.0)">н</text><text xml:space="preserve" font-family="Helvetica-Light,Helvetica" font-size="52.0" fill="#000000" transform="matrix(1.00, 0.00, -0.00, -1.00, 803.2, 600.0)">и</text><text xml:space="preserve" font-family="Helvetica-Light,Helvetica" font-size="52.0" fill="#000000" transform="matrix(1.00, 0.00, -0.00, -1.00, 831.5, 600.0)">й</text><text xml:space="preserve" font-family="Helvetica-Light,Helvetica" font-size="27.0" fill="#000000" transform="matrix(1.00, 0.00, -0.00, -1.00, 113.7, 153.7)">I</text><text xml:space="preserve" font-family="Helvetica-Light,Helvetica" font-size="27.0" fill="#000000" transform="matrix(1.00, 0.00, -0.00, -1.00, 121.2, 153.7)">n</text><text xml:space="preserve" font-family="Helvetica-Light,Helvetica" font-size="27.0" fill="#000000" transform="matrix(1.00, 0.00, -0.00, -1.00, 136.2, 153.7)">f</text><text xml:space="preserve" font-family="Helvetica-Light,Helvetica" font-size="27.0" fill="#000000" transform="matrix(1.00, 0.00, -0.00, -1.00, 143.7, 153.7)">o</text><text xml:space="preserve" font-family="Helvetica-Light,Helvetica" font-size="27.0" fill="#000000" transform="matrix(1.00, 0.00, -0.00, -1.00, 158.7, 153.7)">:</text><text xml:space="preserve" font-family="Helvetica-Light,Helvetica" font-size="27.0" fill="#000000" transform="matrix(1.00, 0.00, -0.00, -1.00, 166.2, 153.7)"> </text><text xml:space="preserve" font-family="Helvetica-Light,Helvetica" font-size="20.2" fill="#000000" transform="matrix(1.00, 0.00, -0.00, -1.00, 113.7, 123.7)">•</text><text xml:space="preserve" font-family="Helvetica-Light,Helvetica" font-size="27.0" fill="#000000" transform="matrix(1.00, 0.00, -0.00, -1.00, 148.7, 121.7)">h</text><text xml:space="preserve" font-family="Helvetica-Light,Helvetica" font-size="27.0" fill="#000000" transform="matrix(1.00, 0.00, -0.00, -1.00, 163.7, 121.7)">t</text><text xml:space="preserve" font-family="Helvetica-Light,Helvetica" font-size="27.0" fill="#000000" transform="matrix(1.00, 0.00, -0.00, -1.00, 171.2, 121.7)">t</text><text xml:space="preserve" font-family="Helvetica-Light,Helvetica" font-size="27.0" fill="#000000" transform="matrix(1.00, 0.00, -0.00, -1.00, 178.7, 121.7)">p</text><text xml:space="preserve" font-family="Helvetica-Light,Helvetica" font-size="27.0" fill="#000000" transform="matrix(1.00, 0.00, -0.00, -1.00, 195.2, 121.7)">s</text><text xml:space="preserve" font-family="Helvetica-Light,Helvetica" font-size="27.0" fill="#000000" transform="matrix(1.00, 0.00, -0.00, -1.00, 208.7, 121.7)">:</text><text xml:space="preserve" font-family="Helvetica-Light,Helvetica" font-size="27.0" fill="#000000" transform="matrix(1.00, 0.00, -0.00, -1.00, 216.2, 121.7)">/</text><text xml:space="preserve" font-family="Helvetica-Light,Helvetica" font-size="27.0" fill="#000000" transform="matrix(1.00, 0.00, -0.00, -1.00, 223.7, 121.7)">/</text><text xml:space="preserve" font-family="Helvetica-Light,Helvetica" font-size="27.0" fill="#000000" transform="matrix(1.00, 0.00, -0.00, -1.00, 231.2, 121.7)">e</text><text xml:space="preserve" font-family="Helvetica-Light,Helvetica" font-size="27.0" fill="#000000" transform="matrix(1.00, 0.00, -0.00, -1.00, 246.2, 121.7)">n</text><text xml:space="preserve" font-family="Helvetica-Light,Helvetica" font-size="27.0" fill="#000000" transform="matrix(1.00, 0.00, -0.00, -1.00, 261.2, 121.7)">.</text><text xml:space="preserve" font-family="Helvetica-Light,Helvetica" font-size="27.0" fill="#000000" transform="matrix(1.00, 0.00, -0.00, -1.00, 268.7, 121.7)">w</text><text xml:space="preserve" font-family="Helvetica-Light,Helvetica" font-size="27.0" fill="#000000" transform="matrix(1.00, 0.00, -0.00, -1.00, 288.2, 121.7)">i</text><text xml:space="preserve" font-family="Helvetica-Light,Helvetica" font-size="27.0" fill="#000000" transform="matrix(1.00, 0.00, -0.00, -1.00, 294.2, 121.7)">k</text><text xml:space="preserve" font-family="Helvetica-Light,Helvetica" font-size="27.0" fill="#000000" transform="matrix(1.00, 0.00, -0.00, -1.00, 307.7, 121.7)">i</text><text xml:space="preserve" font-family="Helvetica-Light,Helvetica" font-size="27.0" fill="#000000" transform="matrix(1.00, 0.00, -0.00, -1.00, 313.7, 121.7)">p</text><text xml:space="preserve" font-family="Helvetica-Light,Helvetica" font-size="27.0" fill="#000000" transform="matrix(1.00, 0.00, -0.00, -1.00, 330.2, 121.7)">e</text><text xml:space="preserve" font-family="Helvetica-Light,Helvetica" font-size="27.0" fill="#000000" transform="matrix(1.00, 0.00, -0.00, -1.00, 345.2, 121.7)">d</text><text xml:space="preserve" font-family="Helvetica-Light,Helvetica" font-size="27.0" fill="#000000" transform="matrix(1.00, 0.00, -0.00, -1.00, 361.7, 121.7)">i</text><text xml:space="preserve" font-family="Helvetica-Light,Helvetica" font-size="27.0" fill="#000000" transform="matrix(1.00, 0.00, -0.00, -1.00, 367.7, 121.7)">a</text><text xml:space="preserve" font-family="Helvetica-Light,Helvetica" font-size="27.0" fill="#000000" transform="matrix(1.00, 0.00, -0.00, -1.00, 382.7, 121.7)">.</text><text xml:space="preserve" font-family="Helvetica-Light,Helvetica" font-size="27.0" fill="#000000" transform="matrix(1.00, 0.00, -0.00, -1.00, 390.2, 121.7)">o</text><text xml:space="preserve" font-family="Helvetica-Light,Helvetica" font-size="27.0" fill="#000000" transform="matrix(1.00, 0.00, -0.00, -1.00, 405.2, 121.7)">r</text><text xml:space="preserve" font-family="Helvetica-Light,Helvetica" font-size="27.0" fill="#000000" transform="matrix(1.00, 0.00, -0.00, -1.00, 414.2, 121.7)">g</text><text xml:space="preserve" font-family="Helvetica-Light,Helvetica" font-size="27.0" fill="#000000" transform="matrix(1.00, 0.00, -0.00, -1.00, 430.7, 121.7)">/</text><text xml:space="preserve" font-family="Helvetica-Light,Helvetica" font-size="27.0" fill="#000000" transform="matrix(1.00, 0.00, -0.00, -1.00, 438.2, 121.7)">w</text><text xml:space="preserve" font-family="Helvetica-Light,Helvetica" font-size="27.0" fill="#000000" transform="matrix(1.00, 0.00, -0.00, -1.00, 457.7, 121.7)">i</text><text xml:space="preserve" font-family="Helvetica-Light,Helvetica" font-size="27.0" fill="#000000" transform="matrix(1.00, 0.00, -0.00, -1.00, 463.7, 121.7)">k</text><text xml:space="preserve" font-family="Helvetica-Light,Helvetica" font-size="27.0" fill="#000000" transform="matrix(1.00, 0.00, -0.00, -1.00, 477.2, 121.7)">i</text><text xml:space="preserve" font-family="Helvetica-Light,Helvetica" font-size="27.0" fill="#000000" transform="matrix(1.00, 0.00, -0.00, -1.00, 483.2, 121.7)">/</text><text xml:space="preserve" font-family="Helvetica-Light,Helvetica" font-size="27.0" fill="#000000" transform="matrix(1.00, 0.00, -0.00, -1.00, 490.7, 121.7)">C</text><text xml:space="preserve" font-family="Helvetica-Light,Helvetica" font-size="27.0" fill="#000000" transform="matrix(1.00, 0.00, -0.00, -1.00, 510.2, 121.7)">1</text><text xml:space="preserve" font-family="Helvetica-Light,Helvetica" font-size="27.0" fill="#000000" transform="matrix(1.00, 0.00, -0.00, -1.00, 525.2, 121.7)">0</text><text xml:space="preserve" font-family="Helvetica-Light,Helvetica" font-size="27.0" fill="#000000" transform="matrix(1.00, 0.00, -0.00, -1.00, 540.2, 121.7)">k</text><text xml:space="preserve" font-family="Helvetica-Light,Helvetica" font-size="27.0" fill="#000000" transform="matrix(1.00, 0.00, -0.00, -1.00, 553.7, 121.7)">_</text><text xml:space="preserve" font-family="Helvetica-Light,Helvetica" font-size="27.0" fill="#000000" transform="matrix(1.00, 0.00, -0.00, -1.00, 567.2, 121.7)">p</text><text xml:space="preserve" font-family="Helvetica-Light,Helvetica" font-size="27.0" fill="#000000" transform="matrix(1.00, 0.00, -0.00, -1.00, 583.7, 121.7)">r</text><text xml:space="preserve" font-family="Helvetica-Light,Helvetica" font-size="27.0" fill="#000000" transform="matrix(1.00, 0.00, -0.00, -1.00, 592.2, 121.7)">o</text><text xml:space="preserve" font-family="Helvetica-Light,Helvetica" font-size="27.0" fill="#000000" transform="matrix(1.00, 0.00, -0.00, -1.00, 607.2, 121.7)">b</text><text xml:space="preserve" font-family="Helvetica-Light,Helvetica" font-size="27.0" fill="#000000" transform="matrix(1.00, 0.00, -0.00, -1.00, 623.7, 121.7)">l</text><text xml:space="preserve" font-family="Helvetica-Light,Helvetica" font-size="27.0" fill="#000000" transform="matrix(1.00, 0.00, -0.00, -1.00, 629.7, 121.7)">e</text><text xml:space="preserve" font-family="Helvetica-Light,Helvetica" font-size="27.0" fill="#000000" transform="matrix(1.00, 0.00, -0.00, -1.00, 644.7, 121.7)">m</text><text xml:space="preserve" font-family="Helvetica-Light,Helvetica" font-size="27.0" fill="#000000" transform="matrix(1.00, 0.00, -0.00, -1.00, 667.2, 121.7)"> </text><g><clipPath id="clip0x7ff52ef94fe0"><path d="M 147.7 118.0 L 667.2 118.0 L 667.2 121.4 L 147.7 121.4 Z M 147.7 118.0 "></path></clipPath><g clip-path="url(#clip0x7ff52ef94fe0)"><path d="M 39.0 63.8 L 557.6 63.8 " fill="none" stroke="#000000" stroke-width="1.35" transform="matrix(1.00, 0.00, 0.00, -1.00, 109.7, 183.5)"></path></g></g><text xml:space="preserve" font-family="Helvetica-Light,Helvetica" font-size="20.2" fill="#000000" transform="matrix(1.00, 0.00, -0.00, -1.00, 113.7, 91.7)">•</text><text xml:space="preserve" font-family="Helvetica-Light,Helvetica" font-size="27.0" fill="#000000" transform="matrix(1.00, 0.00, -0.00, -1.00, 148.7, 89.7)">h</text><text xml:space="preserve" font-family="Helvetica-Light,Helvetica" font-size="27.0" fill="#000000" transform="matrix(1.00, 0.00, -0.00, -1.00, 163.7, 89.7)">t</text><text xml:space="preserve" font-family="Helvetica-Light,Helvetica" font-size="27.0" fill="#000000" transform="matrix(1.00, 0.00, -0.00, -1.00, 171.2, 89.7)">t</text><text xml:space="preserve" font-family="Helvetica-Light,Helvetica" font-size="27.0" fill="#000000" transform="matrix(1.00, 0.00, -0.00, -1.00, 178.7, 89.7)">p</text><text xml:space="preserve" font-family="Helvetica-Light,Helvetica" font-size="27.0" fill="#000000" transform="matrix(1.00, 0.00, -0.00, -1.00, 195.2, 89.7)">:</text><text xml:space="preserve" font-family="Helvetica-Light,Helvetica" font-size="27.0" fill="#000000" transform="matrix(1.00, 0.00, -0.00, -1.00, 202.7, 89.7)">/</text><text xml:space="preserve" font-family="Helvetica-Light,Helvetica" font-size="27.0" fill="#000000" transform="matrix(1.00, 0.00, -0.00, -1.00, 210.2, 89.7)">/</text><text xml:space="preserve" font-family="Helvetica-Light,Helvetica" font-size="27.0" fill="#000000" transform="matrix(1.00, 0.00, -0.00, -1.00, 217.7, 89.7)">h</text><text xml:space="preserve" font-family="Helvetica-Light,Helvetica" font-size="27.0" fill="#000000" transform="matrix(1.00, 0.00, -0.00, -1.00, 232.7, 89.7)">a</text><text xml:space="preserve" font-family="Helvetica-Light,Helvetica" font-size="27.0" fill="#000000" transform="matrix(1.00, 0.00, -0.00, -1.00, 247.7, 89.7)">b</text><text xml:space="preserve" font-family="Helvetica-Light,Helvetica" font-size="27.0" fill="#000000" transform="matrix(1.00, 0.00, -0.00, -1.00, 264.2, 89.7)">r</text><text xml:space="preserve" font-family="Helvetica-Light,Helvetica" font-size="27.0" fill="#000000" transform="matrix(1.00, 0.00, -0.00, -1.00, 273.2, 89.7)">a</text><text xml:space="preserve" font-family="Helvetica-Light,Helvetica" font-size="27.0" fill="#000000" transform="matrix(1.00, 0.00, -0.00, -1.00, 288.2, 89.7)">h</text><text xml:space="preserve" font-family="Helvetica-Light,Helvetica" font-size="27.0" fill="#000000" transform="matrix(1.00, 0.00, -0.00, -1.00, 303.2, 89.7)">a</text><text xml:space="preserve" font-family="Helvetica-Light,Helvetica" font-size="27.0" fill="#000000" transform="matrix(1.00, 0.00, -0.00, -1.00, 318.2, 89.7)">b</text><text xml:space="preserve" font-family="Helvetica-Light,Helvetica" font-size="27.0" fill="#000000" transform="matrix(1.00, 0.00, -0.00, -1.00, 334.7, 89.7)">r</text><text xml:space="preserve" font-family="Helvetica-Light,Helvetica" font-size="27.0" fill="#000000" transform="matrix(1.00, 0.00, -0.00, -1.00, 341.2, 89.7)">.</text><text xml:space="preserve" font-family="Helvetica-Light,Helvetica" font-size="27.0" fill="#000000" transform="matrix(1.00, 0.00, -0.00, -1.00, 348.7, 89.7)">r</text><text xml:space="preserve" font-family="Helvetica-Light,Helvetica" font-size="27.0" fill="#000000" transform="matrix(1.00, 0.00, -0.00, -1.00, 357.7, 89.7)">u</text><text xml:space="preserve" font-family="Helvetica-Light,Helvetica" font-size="27.0" fill="#000000" transform="matrix(1.00, 0.00, -0.00, -1.00, 372.8, 89.7)">/</text><text xml:space="preserve" font-family="Helvetica-Light,Helvetica" font-size="27.0" fill="#000000" transform="matrix(1.00, 0.00, -0.00, -1.00, 380.3, 89.7)">p</text><text xml:space="preserve" font-family="Helvetica-Light,Helvetica" font-size="27.0" fill="#000000" transform="matrix(1.00, 0.00, -0.00, -1.00, 396.8, 89.7)">o</text><text xml:space="preserve" font-family="Helvetica-Light,Helvetica" font-size="27.0" fill="#000000" transform="matrix(1.00, 0.00, -0.00, -1.00, 411.8, 89.7)">s</text><text xml:space="preserve" font-family="Helvetica-Light,Helvetica" font-size="27.0" fill="#000000" transform="matrix(1.00, 0.00, -0.00, -1.00, 425.3, 89.7)">t</text><text xml:space="preserve" font-family="Helvetica-Light,Helvetica" font-size="27.0" fill="#000000" transform="matrix(1.00, 0.00, -0.00, -1.00, 432.8, 89.7)">/</text><text xml:space="preserve" font-family="Helvetica-Light,Helvetica" font-size="27.0" fill="#000000" transform="matrix(1.00, 0.00, -0.00, -1.00, 440.3, 89.7)">1</text><text xml:space="preserve" font-family="Helvetica-Light,Helvetica" font-size="27.0" fill="#000000" transform="matrix(1.00, 0.00, -0.00, -1.00, 455.3, 89.7)">4</text><text xml:space="preserve" font-family="Helvetica-Light,Helvetica" font-size="27.0" fill="#000000" transform="matrix(1.00, 0.00, -0.00, -1.00, 470.3, 89.7)">5</text><text xml:space="preserve" font-family="Helvetica-Light,Helvetica" font-size="27.0" fill="#000000" transform="matrix(1.00, 0.00, -0.00, -1.00, 485.3, 89.7)">7</text><text xml:space="preserve" font-family="Helvetica-Light,Helvetica" font-size="27.0" fill="#000000" transform="matrix(1.00, 0.00, -0.00, -1.00, 500.3, 89.7)">9</text><text xml:space="preserve" font-family="Helvetica-Light,Helvetica" font-size="27.0" fill="#000000" transform="matrix(1.00, 0.00, -0.00, -1.00, 515.3, 89.7)">6</text><text xml:space="preserve" font-family="Helvetica-Light,Helvetica" font-size="27.0" fill="#000000" transform="matrix(1.00, 0.00, -0.00, -1.00, 530.3, 89.7)">/</text><text xml:space="preserve" font-family="Helvetica-Light,Helvetica" font-size="27.0" fill="#000000" transform="matrix(1.00, 0.00, -0.00, -1.00, 537.9, 89.7)"> </text><g><clipPath id="clip0x7ff52efa3be0"><path d="M 147.7 86.0 L 537.9 86.0 L 537.9 89.4 L 147.7 89.4 Z M 147.7 86.0 "></path></clipPath><g clip-path="url(#clip0x7ff52efa3be0)"><path d="M 39.0 95.8 L 428.2 95.8 " fill="none" stroke="#000000" stroke-width="1.35" transform="matrix(1.00, 0.00, 0.00, -1.00, 109.7, 183.5)"></path></g></g><text xml:space="preserve" font-family="Helvetica-Light,Helvetica" font-size="20.2" fill="#000000" transform="matrix(1.00, 0.00, -0.00, -1.00, 113.7, 59.7)">•</text><text xml:space="preserve" font-family="Helvetica-Light,Helvetica" font-size="27.0" fill="#000000" transform="matrix(1.00, 0.00, -0.00, -1.00, 148.7, 57.7)">h</text><text xml:space="preserve" font-family="Helvetica-Light,Helvetica" font-size="27.0" fill="#000000" transform="matrix(1.00, 0.00, -0.00, -1.00, 163.7, 57.7)">t</text><text xml:space="preserve" font-family="Helvetica-Light,Helvetica" font-size="27.0" fill="#000000" transform="matrix(1.00, 0.00, -0.00, -1.00, 171.2, 57.7)">t</text><text xml:space="preserve" font-family="Helvetica-Light,Helvetica" font-size="27.0" fill="#000000" transform="matrix(1.00, 0.00, -0.00, -1.00, 178.7, 57.7)">p</text><text xml:space="preserve" font-family="Helvetica-Light,Helvetica" font-size="27.0" fill="#000000" transform="matrix(1.00, 0.00, -0.00, -1.00, 195.2, 57.7)">:</text><text xml:space="preserve" font-family="Helvetica-Light,Helvetica" font-size="27.0" fill="#000000" transform="matrix(1.00, 0.00, -0.00, -1.00, 202.7, 57.7)">/</text><text xml:space="preserve" font-family="Helvetica-Light,Helvetica" font-size="27.0" fill="#000000" transform="matrix(1.00, 0.00, -0.00, -1.00, 210.2, 57.7)">/</text><text xml:space="preserve" font-family="Helvetica-Light,Helvetica" font-size="27.0" fill="#000000" transform="matrix(1.00, 0.00, -0.00, -1.00, 217.7, 57.7)">e</text><text xml:space="preserve" font-family="Helvetica-Light,Helvetica" font-size="27.0" fill="#000000" transform="matrix(1.00, 0.00, -0.00, -1.00, 232.7, 57.7)">r</text><text xml:space="preserve" font-family="Helvetica-Light,Helvetica" font-size="27.0" fill="#000000" transform="matrix(1.00, 0.00, -0.00, -1.00, 241.7, 57.7)">i</text><text xml:space="preserve" font-family="Helvetica-Light,Helvetica" font-size="27.0" fill="#000000" transform="matrix(1.00, 0.00, -0.00, -1.00, 247.7, 57.7)">c</text><text xml:space="preserve" font-family="Helvetica-Light,Helvetica" font-size="27.0" fill="#000000" transform="matrix(1.00, 0.00, -0.00, -1.00, 262.7, 57.7)">.</text><text xml:space="preserve" font-family="Helvetica-Light,Helvetica" font-size="27.0" fill="#000000" transform="matrix(1.00, 0.00, -0.00, -1.00, 270.2, 57.7)">t</text><text xml:space="preserve" font-family="Helvetica-Light,Helvetica" font-size="27.0" fill="#000000" transform="matrix(1.00, 0.00, -0.00, -1.00, 277.7, 57.7)">h</text><text xml:space="preserve" font-family="Helvetica-Light,Helvetica" font-size="27.0" fill="#000000" transform="matrix(1.00, 0.00, -0.00, -1.00, 292.7, 57.7)">e</text><text xml:space="preserve" font-family="Helvetica-Light,Helvetica" font-size="27.0" fill="#000000" transform="matrix(1.00, 0.00, -0.00, -1.00, 307.7, 57.7)">m</text><text xml:space="preserve" font-family="Helvetica-Light,Helvetica" font-size="27.0" fill="#000000" transform="matrix(1.00, 0.00, -0.00, -1.00, 330.2, 57.7)">o</text><text xml:space="preserve" font-family="Helvetica-Light,Helvetica" font-size="27.0" fill="#000000" transform="matrix(1.00, 0.00, -0.00, -1.00, 345.2, 57.7)">r</text><text xml:space="preserve" font-family="Helvetica-Light,Helvetica" font-size="27.0" fill="#000000" transform="matrix(1.00, 0.00, -0.00, -1.00, 354.2, 57.7)">i</text><text xml:space="preserve" font-family="Helvetica-Light,Helvetica" font-size="27.0" fill="#000000" transform="matrix(1.00, 0.00, -0.00, -1.00, 360.2, 57.7)">t</text><text xml:space="preserve" font-family="Helvetica-Light,Helvetica" font-size="27.0" fill="#000000" transform="matrix(1.00, 0.00, -0.00, -1.00, 367.7, 57.7)">z</text><text xml:space="preserve" font-family="Helvetica-Light,Helvetica" font-size="27.0" fill="#000000" transform="matrix(1.00, 0.00, -0.00, -1.00, 381.2, 57.7)">f</text><text xml:space="preserve" font-family="Helvetica-Light,Helvetica" font-size="27.0" fill="#000000" transform="matrix(1.00, 0.00, -0.00, -1.00, 388.7, 57.7)">a</text><text xml:space="preserve" font-family="Helvetica-Light,Helvetica" font-size="27.0" fill="#000000" transform="matrix(1.00, 0.00, -0.00, -1.00, 403.7, 57.7)">m</text><text xml:space="preserve" font-family="Helvetica-Light,Helvetica" font-size="27.0" fill="#000000" transform="matrix(1.00, 0.00, -0.00, -1.00, 426.2, 57.7)">i</text><text xml:space="preserve" font-family="Helvetica-Light,Helvetica" font-size="27.0" fill="#000000" transform="matrix(1.00, 0.00, -0.00, -1.00, 432.2, 57.7)">l</text><text xml:space="preserve" font-family="Helvetica-Light,Helvetica" font-size="27.0" fill="#000000" transform="matrix(1.00, 0.00, -0.00, -1.00, 438.2, 57.7)">y</text><text xml:space="preserve" font-family="Helvetica-Light,Helvetica" font-size="27.0" fill="#000000" transform="matrix(1.00, 0.00, -0.00, -1.00, 449.2, 57.7)">.</text><text xml:space="preserve" font-family="Helvetica-Light,Helvetica" font-size="27.0" fill="#000000" transform="matrix(1.00, 0.00, -0.00, -1.00, 456.7, 57.7)">c</text><text xml:space="preserve" font-family="Helvetica-Light,Helvetica" font-size="27.0" fill="#000000" transform="matrix(1.00, 0.00, -0.00, -1.00, 471.8, 57.7)">o</text><text xml:space="preserve" font-family="Helvetica-Light,Helvetica" font-size="27.0" fill="#000000" transform="matrix(1.00, 0.00, -0.00, -1.00, 486.8, 57.7)">m</text><text xml:space="preserve" font-family="Helvetica-Light,Helvetica" font-size="27.0" fill="#000000" transform="matrix(1.00, 0.00, -0.00, -1.00, 509.3, 57.7)">/</text><text xml:space="preserve" font-family="Helvetica-Light,Helvetica" font-size="27.0" fill="#000000" transform="matrix(1.00, 0.00, -0.00, -1.00, 516.8, 57.7)">w</text><text xml:space="preserve" font-family="Helvetica-Light,Helvetica" font-size="27.0" fill="#000000" transform="matrix(1.00, 0.00, -0.00, -1.00, 536.3, 57.7)">e</text><text xml:space="preserve" font-family="Helvetica-Light,Helvetica" font-size="27.0" fill="#000000" transform="matrix(1.00, 0.00, -0.00, -1.00, 551.3, 57.7)">b</text><text xml:space="preserve" font-family="Helvetica-Light,Helvetica" font-size="27.0" fill="#000000" transform="matrix(1.00, 0.00, -0.00, -1.00, 567.8, 57.7)">s</text><text xml:space="preserve" font-family="Helvetica-Light,Helvetica" font-size="27.0" fill="#000000" transform="matrix(1.00, 0.00, -0.00, -1.00, 581.3, 57.7)">o</text><text xml:space="preserve" font-family="Helvetica-Light,Helvetica" font-size="27.0" fill="#000000" transform="matrix(1.00, 0.00, -0.00, -1.00, 596.3, 57.7)">c</text><text xml:space="preserve" font-family="Helvetica-Light,Helvetica" font-size="27.0" fill="#000000" transform="matrix(1.00, 0.00, -0.00, -1.00, 611.3, 57.7)">k</text><text xml:space="preserve" font-family="Helvetica-Light,Helvetica" font-size="27.0" fill="#000000" transform="matrix(1.00, 0.00, -0.00, -1.00, 624.8, 57.7)">e</text><text xml:space="preserve" font-family="Helvetica-Light,Helvetica" font-size="27.0" fill="#000000" transform="matrix(1.00, 0.00, -0.00, -1.00, 639.8, 57.7)">t</text><text xml:space="preserve" font-family="Helvetica-Light,Helvetica" font-size="27.0" fill="#000000" transform="matrix(1.00, 0.00, -0.00, -1.00, 647.3, 57.7)">-</text><text xml:space="preserve" font-family="Helvetica-Light,Helvetica" font-size="27.0" fill="#000000" transform="matrix(1.00, 0.00, -0.00, -1.00, 656.3, 57.7)">d</text><text xml:space="preserve" font-family="Helvetica-Light,Helvetica" font-size="27.0" fill="#000000" transform="matrix(1.00, 0.00, -0.00, -1.00, 672.8, 57.7)">e</text><text xml:space="preserve" font-family="Helvetica-Light,Helvetica" font-size="27.0" fill="#000000" transform="matrix(1.00, 0.00, -0.00, -1.00, 687.8, 57.7)">m</text><text xml:space="preserve" font-family="Helvetica-Light,Helvetica" font-size="27.0" fill="#000000" transform="matrix(1.00, 0.00, -0.00, -1.00, 710.3, 57.7)">o</text><text xml:space="preserve" font-family="Helvetica-Light,Helvetica" font-size="27.0" fill="#000000" transform="matrix(1.00, 0.00, -0.00, -1.00, 725.3, 57.7)">-</text><text xml:space="preserve" font-family="Helvetica-Light,Helvetica" font-size="27.0" fill="#000000" transform="matrix(1.00, 0.00, -0.00, -1.00, 734.3, 57.7)">r</text><text xml:space="preserve" font-family="Helvetica-Light,Helvetica" font-size="27.0" fill="#000000" transform="matrix(1.00, 0.00, -0.00, -1.00, 742.8, 57.7)">e</text><text xml:space="preserve" font-family="Helvetica-Light,Helvetica" font-size="27.0" fill="#000000" transform="matrix(1.00, 0.00, -0.00, -1.00, 757.8, 57.7)">s</text><text xml:space="preserve" font-family="Helvetica-Light,Helvetica" font-size="27.0" fill="#000000" transform="matrix(1.00, 0.00, -0.00, -1.00, 771.3, 57.7)">u</text><text xml:space="preserve" font-family="Helvetica-Light,Helvetica" font-size="27.0" fill="#000000" transform="matrix(1.00, 0.00, -0.00, -1.00, 786.3, 57.7)">l</text><text xml:space="preserve" font-family="Helvetica-Light,Helvetica" font-size="27.0" fill="#000000" transform="matrix(1.00, 0.00, -0.00, -1.00, 792.3, 57.7)">t</text><text xml:space="preserve" font-family="Helvetica-Light,Helvetica" font-size="27.0" fill="#000000" transform="matrix(1.00, 0.00, -0.00, -1.00, 799.8, 57.7)">s</text><text xml:space="preserve" font-family="Helvetica-Light,Helvetica" font-size="27.0" fill="#000000" transform="matrix(1.00, 0.00, -0.00, -1.00, 813.3, 57.7)">-</text><text xml:space="preserve" font-family="Helvetica-Light,Helvetica" font-size="27.0" fill="#000000" transform="matrix(1.00, 0.00, -0.00, -1.00, 822.3, 57.7)">v</text><text xml:space="preserve" font-family="Helvetica-Light,Helvetica" font-size="27.0" fill="#000000" transform="matrix(1.00, 0.00, -0.00, -1.00, 835.8, 57.7)">2</text><text xml:space="preserve" font-family="Helvetica-Light,Helvetica" font-size="27.0" fill="#000000" transform="matrix(1.00, 0.00, -0.00, -1.00, 850.8, 57.7)">.</text><text xml:space="preserve" font-family="Helvetica-Light,Helvetica" font-size="27.0" fill="#000000" transform="matrix(1.00, 0.00, -0.00, -1.00, 858.3, 57.7)">h</text><text xml:space="preserve" font-family="Helvetica-Light,Helvetica" font-size="27.0" fill="#000000" transform="matrix(1.00, 0.00, -0.00, -1.00, 873.4, 57.7)">t</text><text xml:space="preserve" font-family="Helvetica-Light,Helvetica" font-size="27.0" fill="#000000" transform="matrix(1.00, 0.00, -0.00, -1.00, 880.9, 57.7)">m</text><text xml:space="preserve" font-family="Helvetica-Light,Helvetica" font-size="27.0" fill="#000000" transform="matrix(1.00, 0.00, -0.00, -1.00, 903.4, 57.7)">l</text><g><clipPath id="clip0x7ff52efbd8f0"><path d="M 147.7 54.0 L 909.3 54.0 L 909.3 57.4 L 147.7 57.4 Z M 147.7 54.0 "></path></clipPath><g clip-path="url(#clip0x7ff52efbd8f0)"><path d="M 39.0 127.8 L 799.7 127.8 " fill="none" stroke="#000000" stroke-width="1.35" transform="matrix(1.00, 0.00, 0.00, -1.00, 109.7, 183.5)"></path></g></g><image xlink:href="../../65676875-88D8-4B6C-8AB3-60414D1045B6/assets/7DD30533CB1E54B79ADDD620D0D266D9.jpeg" width="600.00" height="375.00" transform="matrix(1.07, 0.00, -0.00, -1.07, 192.1, 575.2)"></image><text xml:space="preserve" font-family="Helvetica-Light,Helvetica" font-size="18.0" fill="#000000" transform="matrix(1.00, 0.00, -0.00, -1.00, 501.5, 17.6)">1</text><text xml:space="preserve" font-family="Helvetica-Light,Helvetica" font-size="18.0" fill="#000000" transform="matrix(1.00, 0.00, -0.00, -1.00, 511.5, 17.6)">1</text></g></svg>