<?xml version="1.0" encoding="UTF-8" standalone="no"?><svg xmlns="http://www.w3.org/2000/svg" xmlns:xlink="http://www.w3.org/1999/xlink" clip-rule="evenodd" stroke-miterlimit="10" viewBox="0 0 1024 768"><desc>SVG generated by Keynote</desc><defs></defs><g transform="matrix(1.00, 0.00, -0.00, -1.00, 0.0, 768.0)"><path d="M 0.0 768.0 L 1024.0 768.0 L 1024.0 0.0 L 0.0 0.0 Z M 0.0 768.0 " fill="#FEFFFF"></path><text xml:space="preserve" font-family="Helvetica-Light,Helvetica" font-size="50.0" fill="#000000" transform="matrix(1.00, 0.00, -0.00, -1.00, 293.7, 667.5)">О</text><text xml:space="preserve" font-family="Helvetica-Light,Helvetica" font-size="50.0" fill="#000000" transform="matrix(1.00, 0.00, -0.00, -1.00, 330.7, 667.5)">б</text><text xml:space="preserve" font-family="Helvetica-Light,Helvetica" font-size="50.0" fill="#000000" transform="matrix(1.00, 0.00, -0.00, -1.00, 358.5, 667.5)">р</text><text xml:space="preserve" font-family="Helvetica-Light,Helvetica" font-size="50.0" fill="#000000" transform="matrix(1.00, 0.00, -0.00, -1.00, 387.2, 667.5)">а</text><text xml:space="preserve" font-family="Helvetica-Light,Helvetica" font-size="50.0" fill="#000000" transform="matrix(1.00, 0.00, -0.00, -1.00, 413.2, 667.5)">б</text><text xml:space="preserve" font-family="Helvetica-Light,Helvetica" font-size="50.0" fill="#000000" transform="matrix(1.00, 0.00, -0.00, -1.00, 441.0, 667.5)">о</text><text xml:space="preserve" font-family="Helvetica-Light,Helvetica" font-size="50.0" fill="#000000" transform="matrix(1.00, 0.00, -0.00, -1.00, 468.8, 667.5)">т</text><text xml:space="preserve" font-family="Helvetica-Light,Helvetica" font-size="50.0" fill="#000000" transform="matrix(1.00, 0.00, -0.00, -1.00, 490.9, 667.5)">к</text><text xml:space="preserve" font-family="Helvetica-Light,Helvetica" font-size="50.0" fill="#000000" transform="matrix(1.00, 0.00, -0.00, -1.00, 515.8, 667.5)">а</text><text xml:space="preserve" font-family="Helvetica-Light,Helvetica" font-size="50.0" fill="#000000" transform="matrix(1.00, 0.00, -0.00, -1.00, 541.8, 667.5)"> </text><text xml:space="preserve" font-family="Helvetica-Light,Helvetica" font-size="50.0" fill="#000000" transform="matrix(1.00, 0.00, -0.00, -1.00, 555.7, 667.5)">о</text><text xml:space="preserve" font-family="Helvetica-Light,Helvetica" font-size="50.0" fill="#000000" transform="matrix(1.00, 0.00, -0.00, -1.00, 583.5, 667.5)">ш</text><text xml:space="preserve" font-family="Helvetica-Light,Helvetica" font-size="50.0" fill="#000000" transform="matrix(1.00, 0.00, -0.00, -1.00, 622.6, 667.5)">и</text><text xml:space="preserve" font-family="Helvetica-Light,Helvetica" font-size="50.0" fill="#000000" transform="matrix(1.00, 0.00, -0.00, -1.00, 649.8, 667.5)">б</text><text xml:space="preserve" font-family="Helvetica-Light,Helvetica" font-size="50.0" fill="#000000" transform="matrix(1.00, 0.00, -0.00, -1.00, 677.6, 667.5)">о</text><text xml:space="preserve" font-family="Helvetica-Light,Helvetica" font-size="50.0" fill="#000000" transform="matrix(1.00, 0.00, -0.00, -1.00, 705.4, 667.5)">к</text><text xml:space="preserve" font-family="Helvetica-Light,Helvetica" font-size="18.0" fill="#000000" transform="matrix(1.00, 0.00, -0.00, -1.00, 501.5, 17.6)">3</text><text xml:space="preserve" font-family="Helvetica-Light,Helvetica" font-size="18.0" fill="#000000" transform="matrix(1.00, 0.00, -0.00, -1.00, 511.5, 17.6)">1</text><text xml:space="preserve" font-family="Helvetica-Light,Helvetica" font-size="43.0" fill="#000000" transform="matrix(1.00, 0.00, -0.00, -1.00, 228.9, 445.9)">Т</text><text xml:space="preserve" font-family="Helvetica-Light,Helvetica" font-size="43.0" fill="#000000" transform="matrix(1.00, 0.00, -0.00, -1.00, 252.8, 445.9)">р</text><text xml:space="preserve" font-family="Helvetica-Light,Helvetica" font-size="43.0" fill="#000000" transform="matrix(1.00, 0.00, -0.00, -1.00, 277.5, 445.9)">и</text><text xml:space="preserve" font-family="Helvetica-Light,Helvetica" font-size="43.0" fill="#000000" transform="matrix(1.00, 0.00, -0.00, -1.00, 300.9, 445.9)"> </text><text xml:space="preserve" font-family="Helvetica-Light,Helvetica" font-size="43.0" fill="#000000" transform="matrix(1.00, 0.00, -0.00, -1.00, 312.8, 445.9)">у</text><text xml:space="preserve" font-family="Helvetica-Light,Helvetica" font-size="43.0" fill="#000000" transform="matrix(1.00, 0.00, -0.00, -1.00, 332.8, 445.9)">р</text><text xml:space="preserve" font-family="Helvetica-Light,Helvetica" font-size="43.0" fill="#000000" transform="matrix(1.00, 0.00, -0.00, -1.00, 357.4, 445.9)">о</text><text xml:space="preserve" font-family="Helvetica-Light,Helvetica" font-size="43.0" fill="#000000" transform="matrix(1.00, 0.00, -0.00, -1.00, 381.3, 445.9)">в</text><text xml:space="preserve" font-family="Helvetica-Light,Helvetica" font-size="43.0" fill="#000000" transform="matrix(1.00, 0.00, -0.00, -1.00, 403.6, 445.9)">н</text><text xml:space="preserve" font-family="Helvetica-Light,Helvetica" font-size="43.0" fill="#000000" transform="matrix(1.00, 0.00, -0.00, -1.00, 426.7, 445.9)">я</text><text xml:space="preserve" font-family="Helvetica-Light,Helvetica" font-size="43.0" fill="#000000" transform="matrix(1.00, 0.00, -0.00, -1.00, 448.4, 445.9)"> </text><text xml:space="preserve" font-family="Helvetica-Light,Helvetica" font-size="43.0" fill="#000000" transform="matrix(1.00, 0.00, -0.00, -1.00, 460.4, 445.9)">з</text><text xml:space="preserve" font-family="Helvetica-Light,Helvetica" font-size="43.0" fill="#000000" transform="matrix(1.00, 0.00, -0.00, -1.00, 481.2, 445.9)">а</text><text xml:space="preserve" font-family="Helvetica-Light,Helvetica" font-size="43.0" fill="#000000" transform="matrix(1.00, 0.00, -0.00, -1.00, 503.5, 445.9)">щ</text><text xml:space="preserve" font-family="Helvetica-Light,Helvetica" font-size="43.0" fill="#000000" transform="matrix(1.00, 0.00, -0.00, -1.00, 538.3, 445.9)">и</text><text xml:space="preserve" font-family="Helvetica-Light,Helvetica" font-size="43.0" fill="#000000" transform="matrix(1.00, 0.00, -0.00, -1.00, 561.7, 445.9)">т</text><text xml:space="preserve" font-family="Helvetica-Light,Helvetica" font-size="43.0" fill="#000000" transform="matrix(1.00, 0.00, -0.00, -1.00, 580.7, 445.9)">ы</text><text xml:space="preserve" font-family="Helvetica-Light,Helvetica" font-size="43.0" fill="#000000" transform="matrix(1.00, 0.00, -0.00, -1.00, 609.6, 445.9)">:</text><text xml:space="preserve" font-family="Helvetica-Light,Helvetica" font-size="43.0" fill="#000000" transform="matrix(1.00, 0.00, -0.00, -1.00, 621.5, 445.9)"> </text><text xml:space="preserve" font-family="Helvetica-Light,Helvetica" font-size="32.2" fill="#000000" transform="matrix(1.00, 0.00, -0.00, -1.00, 228.9, 398.4)">•</text><text xml:space="preserve" font-family="Helvetica-Light,Helvetica" font-size="43.0" fill="#000000" transform="matrix(1.00, 0.00, -0.00, -1.00, 263.9, 393.9)">И</text><text xml:space="preserve" font-family="Helvetica-Light,Helvetica" font-size="43.0" fill="#000000" transform="matrix(1.00, 0.00, -0.00, -1.00, 294.4, 393.9)">з</text><text xml:space="preserve" font-family="Helvetica-Light,Helvetica" font-size="43.0" fill="#000000" transform="matrix(1.00, 0.00, -0.00, -1.00, 315.3, 393.9)">о</text><text xml:space="preserve" font-family="Helvetica-Light,Helvetica" font-size="43.0" fill="#000000" transform="matrix(1.00, 0.00, -0.00, -1.00, 339.2, 393.9)">л</text><text xml:space="preserve" font-family="Helvetica-Light,Helvetica" font-size="43.0" fill="#000000" transform="matrix(1.00, 0.00, -0.00, -1.00, 363.5, 393.9)">и</text><text xml:space="preserve" font-family="Helvetica-Light,Helvetica" font-size="43.0" fill="#000000" transform="matrix(1.00, 0.00, -0.00, -1.00, 386.9, 393.9)">р</text><text xml:space="preserve" font-family="Helvetica-Light,Helvetica" font-size="43.0" fill="#000000" transform="matrix(1.00, 0.00, -0.00, -1.00, 411.6, 393.9)">о</text><text xml:space="preserve" font-family="Helvetica-Light,Helvetica" font-size="43.0" fill="#000000" transform="matrix(1.00, 0.00, -0.00, -1.00, 435.5, 393.9)">в</text><text xml:space="preserve" font-family="Helvetica-Light,Helvetica" font-size="43.0" fill="#000000" transform="matrix(1.00, 0.00, -0.00, -1.00, 457.7, 393.9)">а</text><text xml:space="preserve" font-family="Helvetica-Light,Helvetica" font-size="43.0" fill="#000000" transform="matrix(1.00, 0.00, -0.00, -1.00, 480.0, 393.9)">н</text><text xml:space="preserve" font-family="Helvetica-Light,Helvetica" font-size="43.0" fill="#000000" transform="matrix(1.00, 0.00, -0.00, -1.00, 503.1, 393.9)">н</text><text xml:space="preserve" font-family="Helvetica-Light,Helvetica" font-size="43.0" fill="#000000" transform="matrix(1.00, 0.00, -0.00, -1.00, 526.2, 393.9)">о</text><text xml:space="preserve" font-family="Helvetica-Light,Helvetica" font-size="43.0" fill="#000000" transform="matrix(1.00, 0.00, -0.00, -1.00, 550.1, 393.9)">с</text><text xml:space="preserve" font-family="Helvetica-Light,Helvetica" font-size="43.0" fill="#000000" transform="matrix(1.00, 0.00, -0.00, -1.00, 572.4, 393.9)">т</text><text xml:space="preserve" font-family="Helvetica-Light,Helvetica" font-size="43.0" fill="#000000" transform="matrix(1.00, 0.00, -0.00, -1.00, 591.5, 393.9)">ь</text><text xml:space="preserve" font-family="Helvetica-Light,Helvetica" font-size="43.0" fill="#000000" transform="matrix(1.00, 0.00, -0.00, -1.00, 613.0, 393.9)"> </text><text xml:space="preserve" font-family="Helvetica-Light,Helvetica" font-size="43.0" fill="#000000" transform="matrix(1.00, 0.00, -0.00, -1.00, 624.9, 393.9)">п</text><text xml:space="preserve" font-family="Helvetica-Light,Helvetica" font-size="43.0" fill="#000000" transform="matrix(1.00, 0.00, -0.00, -1.00, 647.7, 393.9)">о</text><text xml:space="preserve" font-family="Helvetica-Light,Helvetica" font-size="43.0" fill="#000000" transform="matrix(1.00, 0.00, -0.00, -1.00, 671.6, 393.9)">т</text><text xml:space="preserve" font-family="Helvetica-Light,Helvetica" font-size="43.0" fill="#000000" transform="matrix(1.00, 0.00, -0.00, -1.00, 690.7, 393.9)">о</text><text xml:space="preserve" font-family="Helvetica-Light,Helvetica" font-size="43.0" fill="#000000" transform="matrix(1.00, 0.00, -0.00, -1.00, 714.6, 393.9)">к</text><text xml:space="preserve" font-family="Helvetica-Light,Helvetica" font-size="43.0" fill="#000000" transform="matrix(1.00, 0.00, -0.00, -1.00, 736.0, 393.9)">о</text><text xml:space="preserve" font-family="Helvetica-Light,Helvetica" font-size="43.0" fill="#000000" transform="matrix(1.00, 0.00, -0.00, -1.00, 759.9, 393.9)">в</text><text xml:space="preserve" font-family="Helvetica-Light,Helvetica" font-size="43.0" fill="#000000" transform="matrix(1.00, 0.00, -0.00, -1.00, 782.1, 393.9)"> </text><text xml:space="preserve" font-family="Helvetica-Light,Helvetica" font-size="32.2" fill="#000000" transform="matrix(1.00, 0.00, -0.00, -1.00, 228.9, 346.4)">•</text><text xml:space="preserve" font-family="Helvetica-Light,Helvetica" font-size="43.0" fill="#000000" transform="matrix(1.00, 0.00, -0.00, -1.00, 263.9, 341.9)">С</text><text xml:space="preserve" font-family="Helvetica-Light,Helvetica" font-size="43.0" fill="#000000" transform="matrix(1.00, 0.00, -0.00, -1.00, 294.2, 341.9)">у</text><text xml:space="preserve" font-family="Helvetica-Light,Helvetica" font-size="43.0" fill="#000000" transform="matrix(1.00, 0.00, -0.00, -1.00, 314.1, 341.9)">п</text><text xml:space="preserve" font-family="Helvetica-Light,Helvetica" font-size="43.0" fill="#000000" transform="matrix(1.00, 0.00, -0.00, -1.00, 336.9, 341.9)">е</text><text xml:space="preserve" font-family="Helvetica-Light,Helvetica" font-size="43.0" fill="#000000" transform="matrix(1.00, 0.00, -0.00, -1.00, 359.2, 341.9)">р</text><text xml:space="preserve" font-family="Helvetica-Light,Helvetica" font-size="43.0" fill="#000000" transform="matrix(1.00, 0.00, -0.00, -1.00, 383.9, 341.9)">в</text><text xml:space="preserve" font-family="Helvetica-Light,Helvetica" font-size="43.0" fill="#000000" transform="matrix(1.00, 0.00, -0.00, -1.00, 406.1, 341.9)">а</text><text xml:space="preserve" font-family="Helvetica-Light,Helvetica" font-size="43.0" fill="#000000" transform="matrix(1.00, 0.00, -0.00, -1.00, 428.4, 341.9)">й</text><text xml:space="preserve" font-family="Helvetica-Light,Helvetica" font-size="43.0" fill="#000000" transform="matrix(1.00, 0.00, -0.00, -1.00, 451.8, 341.9)">з</text><text xml:space="preserve" font-family="Helvetica-Light,Helvetica" font-size="43.0" fill="#000000" transform="matrix(1.00, 0.00, -0.00, -1.00, 472.7, 341.9)">е</text><text xml:space="preserve" font-family="Helvetica-Light,Helvetica" font-size="43.0" fill="#000000" transform="matrix(1.00, 0.00, -0.00, -1.00, 495.0, 341.9)">р</text><text xml:space="preserve" font-family="Helvetica-Light,Helvetica" font-size="43.0" fill="#000000" transform="matrix(1.00, 0.00, -0.00, -1.00, 519.7, 341.9)">ы</text><text xml:space="preserve" font-family="Helvetica-Light,Helvetica" font-size="43.0" fill="#000000" transform="matrix(1.00, 0.00, -0.00, -1.00, 548.5, 341.9)"> </text><text xml:space="preserve" font-family="Helvetica-Light,Helvetica" font-size="32.2" fill="#000000" transform="matrix(1.00, 0.00, -0.00, -1.00, 228.9, 294.4)">•</text><text xml:space="preserve" font-family="Helvetica-Light,Helvetica" font-size="43.0" fill="#000000" transform="matrix(1.00, 0.00, -0.00, -1.00, 263.9, 289.9)">Р</text><text xml:space="preserve" font-family="Helvetica-Light,Helvetica" font-size="43.0" fill="#000000" transform="matrix(1.00, 0.00, -0.00, -1.00, 291.0, 289.9)">а</text><text xml:space="preserve" font-family="Helvetica-Light,Helvetica" font-size="43.0" fill="#000000" transform="matrix(1.00, 0.00, -0.00, -1.00, 313.3, 289.9)">с</text><text xml:space="preserve" font-family="Helvetica-Light,Helvetica" font-size="43.0" fill="#000000" transform="matrix(1.00, 0.00, -0.00, -1.00, 335.6, 289.9)">п</text><text xml:space="preserve" font-family="Helvetica-Light,Helvetica" font-size="43.0" fill="#000000" transform="matrix(1.00, 0.00, -0.00, -1.00, 358.4, 289.9)">р</text><text xml:space="preserve" font-family="Helvetica-Light,Helvetica" font-size="43.0" fill="#000000" transform="matrix(1.00, 0.00, -0.00, -1.00, 383.1, 289.9)">е</text><text xml:space="preserve" font-family="Helvetica-Light,Helvetica" font-size="43.0" fill="#000000" transform="matrix(1.00, 0.00, -0.00, -1.00, 405.4, 289.9)">д</text><text xml:space="preserve" font-family="Helvetica-Light,Helvetica" font-size="43.0" fill="#000000" transform="matrix(1.00, 0.00, -0.00, -1.00, 429.9, 289.9)">е</text><text xml:space="preserve" font-family="Helvetica-Light,Helvetica" font-size="43.0" fill="#000000" transform="matrix(1.00, 0.00, -0.00, -1.00, 452.2, 289.9)">л</text><text xml:space="preserve" font-family="Helvetica-Light,Helvetica" font-size="43.0" fill="#000000" transform="matrix(1.00, 0.00, -0.00, -1.00, 476.5, 289.9)">е</text><text xml:space="preserve" font-family="Helvetica-Light,Helvetica" font-size="43.0" fill="#000000" transform="matrix(1.00, 0.00, -0.00, -1.00, 498.9, 289.9)">н</text><text xml:space="preserve" font-family="Helvetica-Light,Helvetica" font-size="43.0" fill="#000000" transform="matrix(1.00, 0.00, -0.00, -1.00, 521.9, 289.9)">н</text><text xml:space="preserve" font-family="Helvetica-Light,Helvetica" font-size="43.0" fill="#000000" transform="matrix(1.00, 0.00, -0.00, -1.00, 545.0, 289.9)">о</text><text xml:space="preserve" font-family="Helvetica-Light,Helvetica" font-size="43.0" fill="#000000" transform="matrix(1.00, 0.00, -0.00, -1.00, 568.9, 289.9)">с</text><text xml:space="preserve" font-family="Helvetica-Light,Helvetica" font-size="43.0" fill="#000000" transform="matrix(1.00, 0.00, -0.00, -1.00, 591.3, 289.9)">т</text><text xml:space="preserve" font-family="Helvetica-Light,Helvetica" font-size="43.0" fill="#000000" transform="matrix(1.00, 0.00, -0.00, -1.00, 610.3, 289.9)">ь</text></g></svg>