<?xml version="1.0" encoding="UTF-8" standalone="no"?><svg xmlns="http://www.w3.org/2000/svg" xmlns:xlink="http://www.w3.org/1999/xlink" clip-rule="evenodd" stroke-miterlimit="10" viewBox="0 0 1024 768"><desc>SVG generated by Keynote</desc><defs></defs><g transform="matrix(1.00, 0.00, -0.00, -1.00, 0.0, 768.0)"><path d="M 0.0 768.0 L 1024.0 768.0 L 1024.0 0.0 L 0.0 0.0 Z M 0.0 768.0 " fill="#FEFFFF"></path><text xml:space="preserve" font-family="Helvetica-Light,Helvetica" font-size="50.0" fill="#000000" transform="matrix(1.00, 0.00, -0.00, -1.00, 237.7, 641.5)">О</text><text xml:space="preserve" font-family="Helvetica-Light,Helvetica" font-size="50.0" fill="#000000" transform="matrix(1.00, 0.00, -0.00, -1.00, 274.7, 641.5)">т</text><text xml:space="preserve" font-family="Helvetica-Light,Helvetica" font-size="50.0" fill="#000000" transform="matrix(1.00, 0.00, -0.00, -1.00, 296.9, 641.5)">п</text><text xml:space="preserve" font-family="Helvetica-Light,Helvetica" font-size="50.0" fill="#000000" transform="matrix(1.00, 0.00, -0.00, -1.00, 323.4, 641.5)">р</text><text xml:space="preserve" font-family="Helvetica-Light,Helvetica" font-size="50.0" fill="#000000" transform="matrix(1.00, 0.00, -0.00, -1.00, 352.1, 641.5)">а</text><text xml:space="preserve" font-family="Helvetica-Light,Helvetica" font-size="50.0" fill="#000000" transform="matrix(1.00, 0.00, -0.00, -1.00, 378.0, 641.5)">в</text><text xml:space="preserve" font-family="Helvetica-Light,Helvetica" font-size="50.0" fill="#000000" transform="matrix(1.00, 0.00, -0.00, -1.00, 403.9, 641.5)">л</text><text xml:space="preserve" font-family="Helvetica-Light,Helvetica" font-size="50.0" fill="#000000" transform="matrix(1.00, 0.00, -0.00, -1.00, 432.1, 641.5)">я</text><text xml:space="preserve" font-family="Helvetica-Light,Helvetica" font-size="50.0" fill="#000000" transform="matrix(1.00, 0.00, -0.00, -1.00, 457.4, 641.5)">е</text><text xml:space="preserve" font-family="Helvetica-Light,Helvetica" font-size="50.0" fill="#000000" transform="matrix(1.00, 0.00, -0.00, -1.00, 483.4, 641.5)">м</text><text xml:space="preserve" font-family="Helvetica-Light,Helvetica" font-size="50.0" fill="#000000" transform="matrix(1.00, 0.00, -0.00, -1.00, 516.8, 641.5)"> </text><text xml:space="preserve" font-family="Helvetica-Light,Helvetica" font-size="50.0" fill="#000000" transform="matrix(1.00, 0.00, -0.00, -1.00, 530.6, 641.5)">с</text><text xml:space="preserve" font-family="Helvetica-Light,Helvetica" font-size="50.0" fill="#000000" transform="matrix(1.00, 0.00, -0.00, -1.00, 556.6, 641.5)">о</text><text xml:space="preserve" font-family="Helvetica-Light,Helvetica" font-size="50.0" fill="#000000" transform="matrix(1.00, 0.00, -0.00, -1.00, 584.4, 641.5)">о</text><text xml:space="preserve" font-family="Helvetica-Light,Helvetica" font-size="50.0" fill="#000000" transform="matrix(1.00, 0.00, -0.00, -1.00, 612.2, 641.5)">б</text><text xml:space="preserve" font-family="Helvetica-Light,Helvetica" font-size="50.0" fill="#000000" transform="matrix(1.00, 0.00, -0.00, -1.00, 640.0, 641.5)">щ</text><text xml:space="preserve" font-family="Helvetica-Light,Helvetica" font-size="50.0" fill="#000000" transform="matrix(1.00, 0.00, -0.00, -1.00, 680.4, 641.5)">е</text><text xml:space="preserve" font-family="Helvetica-Light,Helvetica" font-size="50.0" fill="#000000" transform="matrix(1.00, 0.00, -0.00, -1.00, 706.4, 641.5)">н</text><text xml:space="preserve" font-family="Helvetica-Light,Helvetica" font-size="50.0" fill="#000000" transform="matrix(1.00, 0.00, -0.00, -1.00, 733.2, 641.5)">и</text><text xml:space="preserve" font-family="Helvetica-Light,Helvetica" font-size="50.0" fill="#000000" transform="matrix(1.00, 0.00, -0.00, -1.00, 760.4, 641.5)">е</text><path d="M 362.0 409.0 L 607.0 409.0 L 607.0 359.0 L 362.0 359.0 Z M 361.8 409.3 " fill="#DCDDE0"></path><g><clipPath id="clip0x7ff5304b02c0"><path d="M 355.0 344.6 L 614.0 344.6 L 614.0 416.1 L 355.0 416.1 Z M 355.0 344.6 "></path></clipPath><g clip-path="url(#clip0x7ff5304b02c0)"><text xml:space="preserve" font-family="Consolas,Consolas" font-size="43.0" fill="#000000" transform="matrix(1.00, 0.00, -0.00, -1.00, 366.3, 373.7)">P</text><text xml:space="preserve" font-family="Consolas,Consolas" font-size="43.0" fill="#000000" transform="matrix(1.00, 0.00, -0.00, -1.00, 389.9, 373.7)">i</text><text xml:space="preserve" font-family="Consolas,Consolas" font-size="43.0" fill="#000000" transform="matrix(1.00, 0.00, -0.00, -1.00, 413.6, 373.7)">d</text><text xml:space="preserve" font-family="Consolas,Consolas" font-size="43.0" fill="#000000" transform="matrix(1.00, 0.00, -0.00, -1.00, 437.2, 373.7)">	</text><text xml:space="preserve" font-family="Consolas,Consolas" font-size="43.0" fill="#000000" transform="matrix(1.00, 0.00, -0.00, -1.00, 465.2, 373.7)"></text><text xml:space="preserve" font-family="Consolas,Consolas" font-size="43.0" fill="#000000" transform="matrix(1.00, 0.00, -0.00, -1.00, 465.2, 373.7)"> </text><text xml:space="preserve" font-family="Consolas,Consolas" font-size="43.0" fill="#000000" transform="matrix(1.00, 0.00, -0.00, -1.00, 488.8, 373.7)"> </text><text xml:space="preserve" font-family="Consolas,Consolas" font-size="43.0" fill="#000000" transform="matrix(1.00, 0.00, -0.00, -1.00, 512.5, 373.7)">!</text><text xml:space="preserve" font-family="Consolas,Consolas" font-size="43.0" fill="#000000" transform="matrix(1.00, 0.00, -0.00, -1.00, 536.1, 373.7)">	</text><text xml:space="preserve" font-family="Consolas,Consolas" font-size="43.0" fill="#000000" transform="matrix(1.00, 0.00, -0.00, -1.00, 564.1, 373.7)"></text><text xml:space="preserve" font-family="Consolas,Consolas" font-size="43.0" fill="#000000" transform="matrix(1.00, 0.00, -0.00, -1.00, 564.1, 373.7)"> </text><text xml:space="preserve" font-family="Consolas,Consolas" font-size="43.0" fill="#000000" transform="matrix(1.00, 0.00, -0.00, -1.00, 587.7, 373.7)"> </text><text xml:space="preserve" font-family="Consolas,Consolas" font-size="43.0" fill="#164E86" transform="matrix(1.00, 0.00, -0.00, -1.00, 508.1, 373.7)">M</text><text xml:space="preserve" font-family="Consolas,Consolas" font-size="43.0" fill="#164E86" transform="matrix(1.00, 0.00, -0.00, -1.00, 531.8, 373.7)">s</text><text xml:space="preserve" font-family="Consolas,Consolas" font-size="43.0" fill="#164E86" transform="matrix(1.00, 0.00, -0.00, -1.00, 555.4, 373.7)">g</text><text xml:space="preserve" font-family="Consolas,Consolas" font-size="43.0" fill="#000000" transform="matrix(1.00, 0.00, -0.00, -1.00, 579.1, 373.7)">.</text></g></g><text xml:space="preserve" font-family="Helvetica-Light,Helvetica" font-size="18.0" fill="#000000" transform="matrix(1.00, 0.00, -0.00, -1.00, 501.5, 17.6)">2</text><text xml:space="preserve" font-family="Helvetica-Light,Helvetica" font-size="18.0" fill="#000000" transform="matrix(1.00, 0.00, -0.00, -1.00, 511.5, 17.6)">5</text></g></svg>