<?xml version="1.0" encoding="UTF-8" standalone="no"?><svg xmlns="http://www.w3.org/2000/svg" xmlns:xlink="http://www.w3.org/1999/xlink" clip-rule="evenodd" stroke-miterlimit="10" viewBox="0 0 1024 768"><desc>SVG generated by Keynote</desc><defs></defs><g transform="matrix(1.00, 0.00, -0.00, -1.00, 0.0, 768.0)"><path d="M 0.0 768.0 L 1024.0 768.0 L 1024.0 0.0 L 0.0 0.0 Z M 0.0 768.0 " fill="#FEFFFF"></path><text xml:space="preserve" font-family="Helvetica-Light,Helvetica" font-size="50.0" fill="#000000" transform="matrix(1.00, 0.00, -0.00, -1.00, 316.4, 688.5)">У</text><text xml:space="preserve" font-family="Helvetica-Light,Helvetica" font-size="50.0" fill="#000000" transform="matrix(1.00, 0.00, -0.00, -1.00, 345.8, 688.5)">с</text><text xml:space="preserve" font-family="Helvetica-Light,Helvetica" font-size="50.0" fill="#000000" transform="matrix(1.00, 0.00, -0.00, -1.00, 371.8, 688.5)">т</text><text xml:space="preserve" font-family="Helvetica-Light,Helvetica" font-size="50.0" fill="#000000" transform="matrix(1.00, 0.00, -0.00, -1.00, 393.9, 688.5)">а</text><text xml:space="preserve" font-family="Helvetica-Light,Helvetica" font-size="50.0" fill="#000000" transform="matrix(1.00, 0.00, -0.00, -1.00, 419.9, 688.5)">н</text><text xml:space="preserve" font-family="Helvetica-Light,Helvetica" font-size="50.0" fill="#000000" transform="matrix(1.00, 0.00, -0.00, -1.00, 446.7, 688.5)">о</text><text xml:space="preserve" font-family="Helvetica-Light,Helvetica" font-size="50.0" fill="#000000" transform="matrix(1.00, 0.00, -0.00, -1.00, 474.5, 688.5)">в</text><text xml:space="preserve" font-family="Helvetica-Light,Helvetica" font-size="50.0" fill="#000000" transform="matrix(1.00, 0.00, -0.00, -1.00, 500.4, 688.5)">к</text><text xml:space="preserve" font-family="Helvetica-Light,Helvetica" font-size="50.0" fill="#000000" transform="matrix(1.00, 0.00, -0.00, -1.00, 525.2, 688.5)">а</text><text xml:space="preserve" font-family="Helvetica-Light,Helvetica" font-size="50.0" fill="#000000" transform="matrix(1.00, 0.00, -0.00, -1.00, 551.2, 688.5)"> </text><text xml:space="preserve" font-family="Helvetica-Light,Helvetica" font-size="50.0" fill="#000000" transform="matrix(1.00, 0.00, -0.00, -1.00, 565.1, 688.5)">с</text><text xml:space="preserve" font-family="Helvetica-Light,Helvetica" font-size="50.0" fill="#000000" transform="matrix(1.00, 0.00, -0.00, -1.00, 591.1, 688.5)">а</text><text xml:space="preserve" font-family="Helvetica-Light,Helvetica" font-size="50.0" fill="#000000" transform="matrix(1.00, 0.00, -0.00, -1.00, 617.0, 688.5)">б</text><text xml:space="preserve" font-family="Helvetica-Light,Helvetica" font-size="50.0" fill="#000000" transform="matrix(1.00, 0.00, -0.00, -1.00, 644.8, 688.5)">ж</text><text xml:space="preserve" font-family="Helvetica-Light,Helvetica" font-size="50.0" fill="#000000" transform="matrix(1.00, 0.00, -0.00, -1.00, 681.7, 688.5)">а</text><text xml:space="preserve" font-family="Helvetica,Helvetica" font-size="32.2" fill="#000000" transform="matrix(1.00, 0.00, -0.00, -1.00, 185.2, 496.2)">•</text><text xml:space="preserve" font-family="Helvetica,Helvetica" font-size="43.0" fill="#000000" transform="matrix(1.00, 0.00, -0.00, -1.00, 224.1, 491.7)">O</text><text xml:space="preserve" font-family="Helvetica,Helvetica" font-size="43.0" fill="#000000" transform="matrix(1.00, 0.00, -0.00, -1.00, 257.5, 491.7)">S</text><text xml:space="preserve" font-family="Helvetica,Helvetica" font-size="43.0" fill="#000000" transform="matrix(1.00, 0.00, -0.00, -1.00, 286.2, 491.7)"> </text><text xml:space="preserve" font-family="Helvetica,Helvetica" font-size="43.0" fill="#000000" transform="matrix(1.00, 0.00, -0.00, -1.00, 298.1, 491.7)">X</text><text xml:space="preserve" font-family="Helvetica,Helvetica" font-size="43.0" fill="#000000" transform="matrix(1.00, 0.00, -0.00, -1.00, 326.8, 491.7)">:</text><text xml:space="preserve" font-family="Helvetica,Helvetica" font-size="43.0" fill="#000000" transform="matrix(1.00, 0.00, -0.00, -1.00, 338.8, 491.7)"> </text><text xml:space="preserve" font-family="Courier,Courier" font-size="32.2" fill="#007600" transform="matrix(1.00, 0.00, -0.00, -1.00, 220.2, 430.6)">•</text><text xml:space="preserve" font-family="Courier,Courier" font-size="43.0" fill="#007600" transform="matrix(1.00, 0.00, -0.00, -1.00, 259.1, 426.2)">b</text><text xml:space="preserve" font-family="Courier,Courier" font-size="43.0" fill="#007600" transform="matrix(1.00, 0.00, -0.00, -1.00, 284.9, 426.2)">r</text><text xml:space="preserve" font-family="Courier,Courier" font-size="43.0" fill="#007600" transform="matrix(1.00, 0.00, -0.00, -1.00, 310.7, 426.2)">e</text><text xml:space="preserve" font-family="Courier,Courier" font-size="43.0" fill="#007600" transform="matrix(1.00, 0.00, -0.00, -1.00, 336.5, 426.2)">w</text><text xml:space="preserve" font-family="Courier,Courier" font-size="43.0" fill="#007600" transform="matrix(1.00, 0.00, -0.00, -1.00, 362.3, 426.2)"> </text><text xml:space="preserve" font-family="Courier,Courier" font-size="43.0" fill="#007600" transform="matrix(1.00, 0.00, -0.00, -1.00, 388.1, 426.2)">i</text><text xml:space="preserve" font-family="Courier,Courier" font-size="43.0" fill="#007600" transform="matrix(1.00, 0.00, -0.00, -1.00, 413.9, 426.2)">n</text><text xml:space="preserve" font-family="Courier,Courier" font-size="43.0" fill="#007600" transform="matrix(1.00, 0.00, -0.00, -1.00, 439.7, 426.2)">s</text><text xml:space="preserve" font-family="Courier,Courier" font-size="43.0" fill="#007600" transform="matrix(1.00, 0.00, -0.00, -1.00, 465.5, 426.2)">t</text><text xml:space="preserve" font-family="Courier,Courier" font-size="43.0" fill="#007600" transform="matrix(1.00, 0.00, -0.00, -1.00, 491.3, 426.2)">a</text><text xml:space="preserve" font-family="Courier,Courier" font-size="43.0" fill="#007600" transform="matrix(1.00, 0.00, -0.00, -1.00, 517.1, 426.2)">l</text><text xml:space="preserve" font-family="Courier,Courier" font-size="43.0" fill="#007600" transform="matrix(1.00, 0.00, -0.00, -1.00, 542.9, 426.2)">l</text><text xml:space="preserve" font-family="Courier,Courier" font-size="43.0" fill="#007600" transform="matrix(1.00, 0.00, -0.00, -1.00, 568.7, 426.2)"> </text><text xml:space="preserve" font-family="Courier,Courier" font-size="43.0" fill="#007600" transform="matrix(1.00, 0.00, -0.00, -1.00, 594.6, 426.2)">e</text><text xml:space="preserve" font-family="Courier,Courier" font-size="43.0" fill="#007600" transform="matrix(1.00, 0.00, -0.00, -1.00, 620.4, 426.2)">r</text><text xml:space="preserve" font-family="Courier,Courier" font-size="43.0" fill="#007600" transform="matrix(1.00, 0.00, -0.00, -1.00, 646.2, 426.2)">l</text><text xml:space="preserve" font-family="Courier,Courier" font-size="43.0" fill="#007600" transform="matrix(1.00, 0.00, -0.00, -1.00, 672.0, 426.2)">a</text><text xml:space="preserve" font-family="Courier,Courier" font-size="43.0" fill="#007600" transform="matrix(1.00, 0.00, -0.00, -1.00, 697.8, 426.2)">n</text><text xml:space="preserve" font-family="Courier,Courier" font-size="43.0" fill="#007600" transform="matrix(1.00, 0.00, -0.00, -1.00, 723.6, 426.2)">g</text><text xml:space="preserve" font-family="Helvetica,Helvetica" font-size="32.2" fill="#000000" transform="matrix(1.00, 0.00, -0.00, -1.00, 185.2, 372.4)">•</text><text xml:space="preserve" font-family="Helvetica,Helvetica" font-size="43.0" fill="#000000" transform="matrix(1.00, 0.00, -0.00, -1.00, 224.1, 367.9)">U</text><text xml:space="preserve" font-family="Helvetica,Helvetica" font-size="43.0" fill="#000000" transform="matrix(1.00, 0.00, -0.00, -1.00, 255.2, 367.9)">b</text><text xml:space="preserve" font-family="Helvetica,Helvetica" font-size="43.0" fill="#000000" transform="matrix(1.00, 0.00, -0.00, -1.00, 279.1, 367.9)">u</text><text xml:space="preserve" font-family="Helvetica,Helvetica" font-size="43.0" fill="#000000" transform="matrix(1.00, 0.00, -0.00, -1.00, 303.0, 367.9)">n</text><text xml:space="preserve" font-family="Helvetica,Helvetica" font-size="43.0" fill="#000000" transform="matrix(1.00, 0.00, -0.00, -1.00, 326.9, 367.9)">t</text><text xml:space="preserve" font-family="Helvetica,Helvetica" font-size="43.0" fill="#000000" transform="matrix(1.00, 0.00, -0.00, -1.00, 338.9, 367.9)">u</text><text xml:space="preserve" font-family="Helvetica,Helvetica" font-size="43.0" fill="#000000" transform="matrix(1.00, 0.00, -0.00, -1.00, 362.8, 367.9)">/</text><text xml:space="preserve" font-family="Helvetica,Helvetica" font-size="43.0" fill="#000000" transform="matrix(1.00, 0.00, -0.00, -1.00, 374.8, 367.9)">D</text><text xml:space="preserve" font-family="Helvetica,Helvetica" font-size="43.0" fill="#000000" transform="matrix(1.00, 0.00, -0.00, -1.00, 405.8, 367.9)">e</text><text xml:space="preserve" font-family="Helvetica,Helvetica" font-size="43.0" fill="#000000" transform="matrix(1.00, 0.00, -0.00, -1.00, 429.7, 367.9)">b</text><text xml:space="preserve" font-family="Helvetica,Helvetica" font-size="43.0" fill="#000000" transform="matrix(1.00, 0.00, -0.00, -1.00, 453.7, 367.9)">i</text><text xml:space="preserve" font-family="Helvetica,Helvetica" font-size="43.0" fill="#000000" transform="matrix(1.00, 0.00, -0.00, -1.00, 463.2, 367.9)">a</text><text xml:space="preserve" font-family="Helvetica,Helvetica" font-size="43.0" fill="#000000" transform="matrix(1.00, 0.00, -0.00, -1.00, 487.1, 367.9)">n</text><text xml:space="preserve" font-family="Helvetica,Helvetica" font-size="43.0" fill="#000000" transform="matrix(1.00, 0.00, -0.00, -1.00, 511.1, 367.9)">:</text><text xml:space="preserve" font-family="Courier,Courier" font-size="32.2" fill="#007600" transform="matrix(1.00, 0.00, -0.00, -1.00, 220.2, 306.8)">•</text><text xml:space="preserve" font-family="Courier,Courier" font-size="43.0" fill="#007600" transform="matrix(1.00, 0.00, -0.00, -1.00, 259.1, 302.4)">a</text><text xml:space="preserve" font-family="Courier,Courier" font-size="43.0" fill="#007600" transform="matrix(1.00, 0.00, -0.00, -1.00, 284.9, 302.4)">p</text><text xml:space="preserve" font-family="Courier,Courier" font-size="43.0" fill="#007600" transform="matrix(1.00, 0.00, -0.00, -1.00, 310.7, 302.4)">t</text><text xml:space="preserve" font-family="Courier,Courier" font-size="43.0" fill="#007600" transform="matrix(1.00, 0.00, -0.00, -1.00, 336.5, 302.4)">-</text><text xml:space="preserve" font-family="Courier,Courier" font-size="43.0" fill="#007600" transform="matrix(1.00, 0.00, -0.00, -1.00, 362.3, 302.4)">g</text><text xml:space="preserve" font-family="Courier,Courier" font-size="43.0" fill="#007600" transform="matrix(1.00, 0.00, -0.00, -1.00, 388.1, 302.4)">e</text><text xml:space="preserve" font-family="Courier,Courier" font-size="43.0" fill="#007600" transform="matrix(1.00, 0.00, -0.00, -1.00, 413.9, 302.4)">t</text><text xml:space="preserve" font-family="Courier,Courier" font-size="43.0" fill="#007600" transform="matrix(1.00, 0.00, -0.00, -1.00, 439.7, 302.4)"> </text><text xml:space="preserve" font-family="Courier,Courier" font-size="43.0" fill="#007600" transform="matrix(1.00, 0.00, -0.00, -1.00, 465.5, 302.4)">i</text><text xml:space="preserve" font-family="Courier,Courier" font-size="43.0" fill="#007600" transform="matrix(1.00, 0.00, -0.00, -1.00, 491.3, 302.4)">n</text><text xml:space="preserve" font-family="Courier,Courier" font-size="43.0" fill="#007600" transform="matrix(1.00, 0.00, -0.00, -1.00, 517.1, 302.4)">s</text><text xml:space="preserve" font-family="Courier,Courier" font-size="43.0" fill="#007600" transform="matrix(1.00, 0.00, -0.00, -1.00, 542.9, 302.4)">t</text><text xml:space="preserve" font-family="Courier,Courier" font-size="43.0" fill="#007600" transform="matrix(1.00, 0.00, -0.00, -1.00, 568.7, 302.4)">a</text><text xml:space="preserve" font-family="Courier,Courier" font-size="43.0" fill="#007600" transform="matrix(1.00, 0.00, -0.00, -1.00, 594.5, 302.4)">l</text><text xml:space="preserve" font-family="Courier,Courier" font-size="43.0" fill="#007600" transform="matrix(1.00, 0.00, -0.00, -1.00, 620.4, 302.4)">l</text><text xml:space="preserve" font-family="Courier,Courier" font-size="43.0" fill="#007600" transform="matrix(1.00, 0.00, -0.00, -1.00, 646.2, 302.4)"> </text><text xml:space="preserve" font-family="Courier,Courier" font-size="43.0" fill="#007600" transform="matrix(1.00, 0.00, -0.00, -1.00, 672.0, 302.4)">e</text><text xml:space="preserve" font-family="Courier,Courier" font-size="43.0" fill="#007600" transform="matrix(1.00, 0.00, -0.00, -1.00, 697.8, 302.4)">r</text><text xml:space="preserve" font-family="Courier,Courier" font-size="43.0" fill="#007600" transform="matrix(1.00, 0.00, -0.00, -1.00, 723.6, 302.4)">l</text><text xml:space="preserve" font-family="Courier,Courier" font-size="43.0" fill="#007600" transform="matrix(1.00, 0.00, -0.00, -1.00, 749.4, 302.4)">a</text><text xml:space="preserve" font-family="Courier,Courier" font-size="43.0" fill="#007600" transform="matrix(1.00, 0.00, -0.00, -1.00, 775.2, 302.4)">n</text><text xml:space="preserve" font-family="Courier,Courier" font-size="43.0" fill="#007600" transform="matrix(1.00, 0.00, -0.00, -1.00, 801.0, 302.4)">g</text><text xml:space="preserve" font-family="Helvetica,Helvetica" font-size="32.2" fill="#000000" transform="matrix(1.00, 0.00, -0.00, -1.00, 185.2, 248.6)">•</text><text xml:space="preserve" font-family="Helvetica,Helvetica" font-size="43.0" fill="#000000" transform="matrix(1.00, 0.00, -0.00, -1.00, 224.1, 244.1)">E</text><text xml:space="preserve" font-family="Helvetica,Helvetica" font-size="43.0" fill="#000000" transform="matrix(1.00, 0.00, -0.00, -1.00, 252.8, 244.1)">t</text><text xml:space="preserve" font-family="Helvetica,Helvetica" font-size="43.0" fill="#000000" transform="matrix(1.00, 0.00, -0.00, -1.00, 264.7, 244.1)">c</text><text xml:space="preserve" font-family="Helvetica,Helvetica" font-size="43.0" fill="#000000" transform="matrix(1.00, 0.00, -0.00, -1.00, 286.2, 244.1)"> </text><text xml:space="preserve" font-family="Helvetica,Helvetica" font-size="43.0" fill="#000000" transform="matrix(1.00, 0.00, -0.00, -1.00, 298.1, 244.1)">…</text><text xml:space="preserve" font-family="Helvetica-Light,Helvetica" font-size="18.0" fill="#000000" transform="matrix(1.00, 0.00, -0.00, -1.00, 506.5, 17.6)">8</text></g></svg>