<?xml version="1.0" encoding="UTF-8" standalone="no"?><svg xmlns="http://www.w3.org/2000/svg" xmlns:xlink="http://www.w3.org/1999/xlink" clip-rule="evenodd" stroke-miterlimit="10" viewBox="0 0 1024 768"><desc>SVG generated by Keynote</desc><defs></defs><g transform="matrix(1.00, 0.00, -0.00, -1.00, 0.0, 768.0)"><path d="M 0.0 768.0 L 1024.0 768.0 L 1024.0 0.0 L 0.0 0.0 Z M 0.0 768.0 " fill="#FEFFFF"></path><text xml:space="preserve" font-family="Helvetica-Light,Helvetica" font-size="50.0" fill="#000000" transform="matrix(1.00, 0.00, -0.00, -1.00, 310.3, 684.5)">С</text><text xml:space="preserve" font-family="Helvetica-Light,Helvetica" font-size="50.0" fill="#000000" transform="matrix(1.00, 0.00, -0.00, -1.00, 345.5, 684.5)">о</text><text xml:space="preserve" font-family="Helvetica-Light,Helvetica" font-size="50.0" fill="#000000" transform="matrix(1.00, 0.00, -0.00, -1.00, 373.3, 684.5)">з</text><text xml:space="preserve" font-family="Helvetica-Light,Helvetica" font-size="50.0" fill="#000000" transform="matrix(1.00, 0.00, -0.00, -1.00, 397.6, 684.5)">д</text><text xml:space="preserve" font-family="Helvetica-Light,Helvetica" font-size="50.0" fill="#000000" transform="matrix(1.00, 0.00, -0.00, -1.00, 426.1, 684.5)">а</text><text xml:space="preserve" font-family="Helvetica-Light,Helvetica" font-size="50.0" fill="#000000" transform="matrix(1.00, 0.00, -0.00, -1.00, 452.0, 684.5)">е</text><text xml:space="preserve" font-family="Helvetica-Light,Helvetica" font-size="50.0" fill="#000000" transform="matrix(1.00, 0.00, -0.00, -1.00, 477.9, 684.5)">м</text><text xml:space="preserve" font-family="Helvetica-Light,Helvetica" font-size="50.0" fill="#000000" transform="matrix(1.00, 0.00, -0.00, -1.00, 511.4, 684.5)"> </text><text xml:space="preserve" font-family="Helvetica-Light,Helvetica" font-size="50.0" fill="#000000" transform="matrix(1.00, 0.00, -0.00, -1.00, 525.2, 684.5)">п</text><text xml:space="preserve" font-family="Helvetica-Light,Helvetica" font-size="50.0" fill="#000000" transform="matrix(1.00, 0.00, -0.00, -1.00, 551.8, 684.5)">р</text><text xml:space="preserve" font-family="Helvetica-Light,Helvetica" font-size="50.0" fill="#000000" transform="matrix(1.00, 0.00, -0.00, -1.00, 580.5, 684.5)">о</text><text xml:space="preserve" font-family="Helvetica-Light,Helvetica" font-size="50.0" fill="#000000" transform="matrix(1.00, 0.00, -0.00, -1.00, 608.2, 684.5)">ц</text><text xml:space="preserve" font-family="Helvetica-Light,Helvetica" font-size="50.0" fill="#000000" transform="matrix(1.00, 0.00, -0.00, -1.00, 635.9, 684.5)">е</text><text xml:space="preserve" font-family="Helvetica-Light,Helvetica" font-size="50.0" fill="#000000" transform="matrix(1.00, 0.00, -0.00, -1.00, 661.8, 684.5)">с</text><text xml:space="preserve" font-family="Helvetica-Light,Helvetica" font-size="50.0" fill="#000000" transform="matrix(1.00, 0.00, -0.00, -1.00, 687.8, 684.5)">с</text><path d="M 124.0 408.0 L 900.0 408.0 L 900.0 359.0 L 124.0 359.0 Z M 124.3 408.5 " fill="#DCDDE0"></path><g><clipPath id="clip0x7ff530070c50"><path d="M 118.0 346.2 L 906.0 346.2 L 906.0 414.7 L 118.0 414.7 Z M 118.0 346.2 "></path></clipPath><g clip-path="url(#clip0x7ff530070c50)"><text xml:space="preserve" font-family="Consolas,Consolas" font-size="41.0" fill="#5E317B" transform="matrix(1.00, 0.00, -0.00, -1.00, 128.8, 374.1)">P</text><text xml:space="preserve" font-family="Consolas,Consolas" font-size="41.0" fill="#5E317B" transform="matrix(1.00, 0.00, -0.00, -1.00, 151.3, 374.1)">i</text><text xml:space="preserve" font-family="Consolas,Consolas" font-size="41.0" fill="#5E317B" transform="matrix(1.00, 0.00, -0.00, -1.00, 173.9, 374.1)">d</text><text xml:space="preserve" font-family="Consolas,Consolas" font-size="41.0" fill="#000000" transform="matrix(1.00, 0.00, -0.00, -1.00, 196.4, 374.1)">	</text><text xml:space="preserve" font-family="Consolas,Consolas" font-size="41.0" fill="#000000" transform="matrix(1.00, 0.00, -0.00, -1.00, 224.4, 374.1)"></text><text xml:space="preserve" font-family="Consolas,Consolas" font-size="41.0" fill="#000000" transform="matrix(1.00, 0.00, -0.00, -1.00, 224.4, 374.1)"> </text><text xml:space="preserve" font-family="Consolas,Consolas" font-size="41.0" fill="#000000" transform="matrix(1.00, 0.00, -0.00, -1.00, 246.9, 374.1)"> </text><text xml:space="preserve" font-family="Consolas,Consolas" font-size="41.0" fill="#000000" transform="matrix(1.00, 0.00, -0.00, -1.00, 269.5, 374.1)">=</text><text xml:space="preserve" font-family="Consolas,Consolas" font-size="41.0" fill="#000000" transform="matrix(1.00, 0.00, -0.00, -1.00, 292.0, 374.1)">	</text><text xml:space="preserve" font-family="Consolas,Consolas" font-size="41.0" fill="#000000" transform="matrix(1.00, 0.00, -0.00, -1.00, 320.0, 374.1)"></text><text xml:space="preserve" font-family="Consolas,Consolas" font-size="41.0" fill="#000000" transform="matrix(1.00, 0.00, -0.00, -1.00, 320.0, 374.1)"> </text><text xml:space="preserve" font-family="Consolas,Consolas" font-size="41.0" fill="#000000" transform="matrix(1.00, 0.00, -0.00, -1.00, 342.5, 374.1)"> </text><text xml:space="preserve" font-family="Consolas,Consolas" font-size="41.0" fill="#164E86" transform="matrix(1.00, 0.00, -0.00, -1.00, 264.0, 374.1)">s</text><text xml:space="preserve" font-family="Consolas,Consolas" font-size="41.0" fill="#164E86" transform="matrix(1.00, 0.00, -0.00, -1.00, 286.6, 374.1)">p</text><text xml:space="preserve" font-family="Consolas,Consolas" font-size="41.0" fill="#164E86" transform="matrix(1.00, 0.00, -0.00, -1.00, 309.1, 374.1)">a</text><text xml:space="preserve" font-family="Consolas,Consolas" font-size="41.0" fill="#164E86" transform="matrix(1.00, 0.00, -0.00, -1.00, 331.6, 374.1)">w</text><text xml:space="preserve" font-family="Consolas,Consolas" font-size="41.0" fill="#164E86" transform="matrix(1.00, 0.00, -0.00, -1.00, 354.2, 374.1)">n</text><text xml:space="preserve" font-family="Consolas,Consolas" font-size="41.0" fill="#000000" transform="matrix(1.00, 0.00, -0.00, -1.00, 376.7, 374.1)">(</text><text xml:space="preserve" font-family="Consolas,Consolas" font-size="41.0" fill="#000000" transform="matrix(1.00, 0.00, -0.00, -1.00, 399.3, 374.1)">m</text><text xml:space="preserve" font-family="Consolas,Consolas" font-size="41.0" fill="#000000" transform="matrix(1.00, 0.00, -0.00, -1.00, 421.8, 374.1)">o</text><text xml:space="preserve" font-family="Consolas,Consolas" font-size="41.0" fill="#000000" transform="matrix(1.00, 0.00, -0.00, -1.00, 444.3, 374.1)">d</text><text xml:space="preserve" font-family="Consolas,Consolas" font-size="41.0" fill="#000000" transform="matrix(1.00, 0.00, -0.00, -1.00, 466.9, 374.1)">,</text><text xml:space="preserve" font-family="Consolas,Consolas" font-size="41.0" fill="#000000" transform="matrix(1.00, 0.00, -0.00, -1.00, 489.4, 374.1)">	</text><text xml:space="preserve" font-family="Consolas,Consolas" font-size="41.0" fill="#000000" transform="matrix(1.00, 0.00, -0.00, -1.00, 517.4, 374.1)"></text><text xml:space="preserve" font-family="Consolas,Consolas" font-size="41.0" fill="#000000" transform="matrix(1.00, 0.00, -0.00, -1.00, 517.4, 374.1)"> </text><text xml:space="preserve" font-family="Consolas,Consolas" font-size="41.0" fill="#000000" transform="matrix(1.00, 0.00, -0.00, -1.00, 540.0, 374.1)"> </text><text xml:space="preserve" font-family="Consolas,Consolas" font-size="41.0" fill="#851001" transform="matrix(1.00, 0.00, -0.00, -1.00, 512.0, 374.1)">f</text><text xml:space="preserve" font-family="Consolas,Consolas" font-size="41.0" fill="#851001" transform="matrix(1.00, 0.00, -0.00, -1.00, 534.5, 374.1)">u</text><text xml:space="preserve" font-family="Consolas,Consolas" font-size="41.0" fill="#851001" transform="matrix(1.00, 0.00, -0.00, -1.00, 557.1, 374.1)">n</text><text xml:space="preserve" font-family="Consolas,Consolas" font-size="41.0" fill="#851001" transform="matrix(1.00, 0.00, -0.00, -1.00, 579.6, 374.1)">c</text><text xml:space="preserve" font-family="Consolas,Consolas" font-size="41.0" fill="#000000" transform="matrix(1.00, 0.00, -0.00, -1.00, 602.2, 374.1)">,</text><text xml:space="preserve" font-family="Consolas,Consolas" font-size="41.0" fill="#000000" transform="matrix(1.00, 0.00, -0.00, -1.00, 624.7, 374.1)">	</text><text xml:space="preserve" font-family="Consolas,Consolas" font-size="41.0" fill="#000000" transform="matrix(1.00, 0.00, -0.00, -1.00, 652.7, 374.1)"></text><text xml:space="preserve" font-family="Consolas,Consolas" font-size="41.0" fill="#000000" transform="matrix(1.00, 0.00, -0.00, -1.00, 652.7, 374.1)"> </text><text xml:space="preserve" font-family="Consolas,Consolas" font-size="41.0" fill="#000000" transform="matrix(1.00, 0.00, -0.00, -1.00, 675.2, 374.1)"> </text><text xml:space="preserve" font-family="Consolas,Consolas" font-size="41.0" fill="#000000" transform="matrix(1.00, 0.00, -0.00, -1.00, 697.8, 374.1)">[</text><text xml:space="preserve" font-family="Consolas,Consolas" font-size="41.0" fill="#000000" transform="matrix(1.00, 0.00, -0.00, -1.00, 720.3, 374.1)">A</text><text xml:space="preserve" font-family="Consolas,Consolas" font-size="41.0" fill="#000000" transform="matrix(1.00, 0.00, -0.00, -1.00, 742.8, 374.1)">,</text><text xml:space="preserve" font-family="Consolas,Consolas" font-size="41.0" fill="#000000" transform="matrix(1.00, 0.00, -0.00, -1.00, 765.4, 374.1)">	</text><text xml:space="preserve" font-family="Consolas,Consolas" font-size="41.0" fill="#000000" transform="matrix(1.00, 0.00, -0.00, -1.00, 793.4, 374.1)"></text><text xml:space="preserve" font-family="Consolas,Consolas" font-size="41.0" fill="#000000" transform="matrix(1.00, 0.00, -0.00, -1.00, 793.4, 374.1)"> </text><text xml:space="preserve" font-family="Consolas,Consolas" font-size="41.0" fill="#000000" transform="matrix(1.00, 0.00, -0.00, -1.00, 815.9, 374.1)"> </text><text xml:space="preserve" font-family="Consolas,Consolas" font-size="41.0" fill="#000000" transform="matrix(1.00, 0.00, -0.00, -1.00, 838.4, 374.1)">B</text><text xml:space="preserve" font-family="Consolas,Consolas" font-size="41.0" fill="#000000" transform="matrix(1.00, 0.00, -0.00, -1.00, 861.0, 374.1)">,</text><text xml:space="preserve" font-family="Consolas,Consolas" font-size="41.0" fill="#000000" transform="matrix(1.00, 0.00, -0.00, -1.00, 883.5, 374.1)">	</text><text xml:space="preserve" font-family="Consolas,Consolas" font-size="41.0" fill="#000000" transform="matrix(1.00, 0.00, -0.00, -1.00, 911.5, 374.1)"></text><text xml:space="preserve" font-family="Consolas,Consolas" font-size="41.0" fill="#000000" transform="matrix(1.00, 0.00, -0.00, -1.00, 911.5, 374.1)"> </text><text xml:space="preserve" font-family="Consolas,Consolas" font-size="41.0" fill="#000000" transform="matrix(1.00, 0.00, -0.00, -1.00, 934.0, 374.1)"> </text><text xml:space="preserve" font-family="Consolas,Consolas" font-size="41.0" fill="#000000" transform="matrix(1.00, 0.00, -0.00, -1.00, 956.6, 374.1)">C</text><text xml:space="preserve" font-family="Consolas,Consolas" font-size="41.0" fill="#000000" transform="matrix(1.00, 0.00, -0.00, -1.00, 979.1, 374.1)">]</text><text xml:space="preserve" font-family="Consolas,Consolas" font-size="41.0" fill="#000000" transform="matrix(1.00, 0.00, -0.00, -1.00, 1001.6, 374.1)">)</text><text xml:space="preserve" font-family="Consolas,Consolas" font-size="41.0" fill="#000000" transform="matrix(1.00, 0.00, -0.00, -1.00, 1024.2, 374.1)">.</text></g></g><text xml:space="preserve" font-family="Helvetica-Light,Helvetica" font-size="18.0" fill="#000000" transform="matrix(1.00, 0.00, -0.00, -1.00, 501.5, 17.6)">2</text><text xml:space="preserve" font-family="Helvetica-Light,Helvetica" font-size="18.0" fill="#000000" transform="matrix(1.00, 0.00, -0.00, -1.00, 511.5, 17.6)">4</text></g></svg>