<?xml version="1.0" encoding="UTF-8" standalone="no"?><svg xmlns="http://www.w3.org/2000/svg" xmlns:xlink="http://www.w3.org/1999/xlink" clip-rule="evenodd" stroke-miterlimit="10" viewBox="0 0 1024 768"><desc>SVG generated by Keynote</desc><defs></defs><g transform="matrix(1.00, 0.00, -0.00, -1.00, 0.0, 768.0)"><path d="M 0.0 768.0 L 1024.0 768.0 L 1024.0 0.0 L 0.0 0.0 Z M 0.0 768.0 " fill="#FEFFFF"></path><text xml:space="preserve" font-family="Helvetica-Light,Helvetica" font-size="69.0" fill="#000000" transform="matrix(1.00, 0.00, -0.00, -1.00, 159.9, 576.9)">С</text><text xml:space="preserve" font-family="Helvetica-Light,Helvetica" font-size="69.0" fill="#000000" transform="matrix(1.00, 0.00, -0.00, -1.00, 208.5, 576.9)">п</text><text xml:space="preserve" font-family="Helvetica-Light,Helvetica" font-size="69.0" fill="#000000" transform="matrix(1.00, 0.00, -0.00, -1.00, 245.0, 576.9)">а</text><text xml:space="preserve" font-family="Helvetica-Light,Helvetica" font-size="69.0" fill="#000000" transform="matrix(1.00, 0.00, -0.00, -1.00, 280.9, 576.9)">с</text><text xml:space="preserve" font-family="Helvetica-Light,Helvetica" font-size="69.0" fill="#000000" transform="matrix(1.00, 0.00, -0.00, -1.00, 316.7, 576.9)">и</text><text xml:space="preserve" font-family="Helvetica-Light,Helvetica" font-size="69.0" fill="#000000" transform="matrix(1.00, 0.00, -0.00, -1.00, 354.2, 576.9)">б</text><text xml:space="preserve" font-family="Helvetica-Light,Helvetica" font-size="69.0" fill="#000000" transform="matrix(1.00, 0.00, -0.00, -1.00, 392.6, 576.9)">о</text><text xml:space="preserve" font-family="Helvetica-Light,Helvetica" font-size="69.0" fill="#000000" transform="matrix(1.00, 0.00, -0.00, -1.00, 430.9, 576.9)"> </text><text xml:space="preserve" font-family="Helvetica-Light,Helvetica" font-size="69.0" fill="#000000" transform="matrix(1.00, 0.00, -0.00, -1.00, 450.1, 576.9)">з</text><text xml:space="preserve" font-family="Helvetica-Light,Helvetica" font-size="69.0" fill="#000000" transform="matrix(1.00, 0.00, -0.00, -1.00, 483.6, 576.9)">а</text><text xml:space="preserve" font-family="Helvetica-Light,Helvetica" font-size="69.0" fill="#000000" transform="matrix(1.00, 0.00, -0.00, -1.00, 519.4, 576.9)"> </text><text xml:space="preserve" font-family="Helvetica-Light,Helvetica" font-size="69.0" fill="#000000" transform="matrix(1.00, 0.00, -0.00, -1.00, 538.6, 576.9)">в</text><text xml:space="preserve" font-family="Helvetica-Light,Helvetica" font-size="69.0" fill="#000000" transform="matrix(1.00, 0.00, -0.00, -1.00, 574.2, 576.9)">н</text><text xml:space="preserve" font-family="Helvetica-Light,Helvetica" font-size="69.0" fill="#000000" transform="matrix(1.00, 0.00, -0.00, -1.00, 611.3, 576.9)">и</text><text xml:space="preserve" font-family="Helvetica-Light,Helvetica" font-size="69.0" fill="#000000" transform="matrix(1.00, 0.00, -0.00, -1.00, 648.8, 576.9)">м</text><text xml:space="preserve" font-family="Helvetica-Light,Helvetica" font-size="69.0" fill="#000000" transform="matrix(1.00, 0.00, -0.00, -1.00, 694.9, 576.9)">а</text><text xml:space="preserve" font-family="Helvetica-Light,Helvetica" font-size="69.0" fill="#000000" transform="matrix(1.00, 0.00, -0.00, -1.00, 730.7, 576.9)">н</text><text xml:space="preserve" font-family="Helvetica-Light,Helvetica" font-size="69.0" fill="#000000" transform="matrix(1.00, 0.00, -0.00, -1.00, 767.8, 576.9)">и</text><text xml:space="preserve" font-family="Helvetica-Light,Helvetica" font-size="69.0" fill="#000000" transform="matrix(1.00, 0.00, -0.00, -1.00, 805.3, 576.9)">е</text><text xml:space="preserve" font-family="Helvetica-Light,Helvetica" font-size="69.0" fill="#000000" transform="matrix(1.00, 0.00, -0.00, -1.00, 841.1, 576.9)">!</text><text xml:space="preserve" font-family="Helvetica-Light,Helvetica" font-size="39.0" fill="#000000" transform="matrix(1.00, 0.00, -0.00, -1.00, 271.4, 433.7)">М</text><text xml:space="preserve" font-family="Helvetica-Light,Helvetica" font-size="39.0" fill="#000000" transform="matrix(1.00, 0.00, -0.00, -1.00, 303.9, 433.7)">а</text><text xml:space="preserve" font-family="Helvetica-Light,Helvetica" font-size="39.0" fill="#000000" transform="matrix(1.00, 0.00, -0.00, -1.00, 324.2, 433.7)">к</text><text xml:space="preserve" font-family="Helvetica-Light,Helvetica" font-size="39.0" fill="#000000" transform="matrix(1.00, 0.00, -0.00, -1.00, 343.6, 433.7)">а</text><text xml:space="preserve" font-family="Helvetica-Light,Helvetica" font-size="39.0" fill="#000000" transform="matrix(1.00, 0.00, -0.00, -1.00, 363.8, 433.7)">р</text><text xml:space="preserve" font-family="Helvetica-Light,Helvetica" font-size="39.0" fill="#000000" transform="matrix(1.00, 0.00, -0.00, -1.00, 386.2, 433.7)">о</text><text xml:space="preserve" font-family="Helvetica-Light,Helvetica" font-size="39.0" fill="#000000" transform="matrix(1.00, 0.00, -0.00, -1.00, 407.9, 433.7)">в</text><text xml:space="preserve" font-family="Helvetica-Light,Helvetica" font-size="39.0" fill="#000000" transform="matrix(1.00, 0.00, -0.00, -1.00, 428.1, 433.7)"> </text><text xml:space="preserve" font-family="Helvetica-Light,Helvetica" font-size="39.0" fill="#000000" transform="matrix(1.00, 0.00, -0.00, -1.00, 438.9, 433.7)">А</text><text xml:space="preserve" font-family="Helvetica-Light,Helvetica" font-size="39.0" fill="#000000" transform="matrix(1.00, 0.00, -0.00, -1.00, 463.5, 433.7)">н</text><text xml:space="preserve" font-family="Helvetica-Light,Helvetica" font-size="39.0" fill="#000000" transform="matrix(1.00, 0.00, -0.00, -1.00, 484.4, 433.7)">д</text><text xml:space="preserve" font-family="Helvetica-Light,Helvetica" font-size="39.0" fill="#000000" transform="matrix(1.00, 0.00, -0.00, -1.00, 506.6, 433.7)">р</text><text xml:space="preserve" font-family="Helvetica-Light,Helvetica" font-size="39.0" fill="#000000" transform="matrix(1.00, 0.00, -0.00, -1.00, 529.0, 433.7)">е</text><text xml:space="preserve" font-family="Helvetica-Light,Helvetica" font-size="39.0" fill="#000000" transform="matrix(1.00, 0.00, -0.00, -1.00, 549.3, 433.7)">й</text><text xml:space="preserve" font-family="Helvetica-Light,Helvetica" font-size="39.0" fill="#000000" transform="matrix(1.00, 0.00, -0.00, -1.00, 570.5, 433.7)"> </text><text xml:space="preserve" font-family="Helvetica-Light,Helvetica" font-size="39.0" fill="#000000" transform="matrix(1.00, 0.00, -0.00, -1.00, 581.3, 433.7)">a</text><text xml:space="preserve" font-family="Helvetica-Light,Helvetica" font-size="39.0" fill="#000000" transform="matrix(1.00, 0.00, -0.00, -1.00, 603.0, 433.7)">k</text><text xml:space="preserve" font-family="Helvetica-Light,Helvetica" font-size="39.0" fill="#000000" transform="matrix(1.00, 0.00, -0.00, -1.00, 622.5, 433.7)">a</text><text xml:space="preserve" font-family="Helvetica-Light,Helvetica" font-size="39.0" fill="#000000" transform="matrix(1.00, 0.00, -0.00, -1.00, 644.2, 433.7)"> </text><text xml:space="preserve" font-family="Helvetica-Light,Helvetica" font-size="39.0" fill="#000000" transform="matrix(1.00, 0.00, -0.00, -1.00, 655.0, 433.7)">r</text><text xml:space="preserve" font-family="Helvetica-Light,Helvetica" font-size="39.0" fill="#000000" transform="matrix(1.00, 0.00, -0.00, -1.00, 668.0, 433.7)">3</text><text xml:space="preserve" font-family="Helvetica-Light,Helvetica" font-size="39.0" fill="#000000" transform="matrix(1.00, 0.00, -0.00, -1.00, 689.7, 433.7)">n</text><text xml:space="preserve" font-family="Helvetica-Light,Helvetica" font-size="39.0" fill="#000000" transform="matrix(1.00, 0.00, -0.00, -1.00, 711.4, 433.7)">y</text><text xml:space="preserve" font-family="Helvetica-Light,Helvetica" font-size="39.0" fill="#000000" transform="matrix(1.00, 0.00, -0.00, -1.00, 730.9, 433.7)">a</text><text xml:space="preserve" font-family="Helvetica-Light,Helvetica" font-size="39.0" fill="#000000" transform="matrix(1.00, 0.00, -0.00, -1.00, 752.6, 433.7)"> </text><text xml:space="preserve" font-family="Consolas,Consolas" font-size="39.0" fill="#000000" transform="matrix(1.00, 0.00, -0.00, -1.00, 394.1, 372.0)">m</text><text xml:space="preserve" font-family="Consolas,Consolas" font-size="39.0" fill="#000000" transform="matrix(1.00, 0.00, -0.00, -1.00, 415.5, 372.0)">e</text><text xml:space="preserve" font-family="Consolas,Consolas" font-size="39.0" fill="#000000" transform="matrix(1.00, 0.00, -0.00, -1.00, 436.9, 372.0)">@</text><text xml:space="preserve" font-family="Consolas,Consolas" font-size="39.0" fill="#000000" transform="matrix(1.00, 0.00, -0.00, -1.00, 458.4, 372.0)">r</text><text xml:space="preserve" font-family="Consolas,Consolas" font-size="39.0" fill="#000000" transform="matrix(1.00, 0.00, -0.00, -1.00, 479.8, 372.0)">3</text><text xml:space="preserve" font-family="Consolas,Consolas" font-size="39.0" fill="#000000" transform="matrix(1.00, 0.00, -0.00, -1.00, 501.2, 372.0)">n</text><text xml:space="preserve" font-family="Consolas,Consolas" font-size="39.0" fill="#000000" transform="matrix(1.00, 0.00, -0.00, -1.00, 522.7, 372.0)">y</text><text xml:space="preserve" font-family="Consolas,Consolas" font-size="39.0" fill="#000000" transform="matrix(1.00, 0.00, -0.00, -1.00, 544.1, 372.0)">a</text><text xml:space="preserve" font-family="Consolas,Consolas" font-size="39.0" fill="#000000" transform="matrix(1.00, 0.00, -0.00, -1.00, 565.5, 372.0)">.</text><text xml:space="preserve" font-family="Consolas,Consolas" font-size="39.0" fill="#000000" transform="matrix(1.00, 0.00, -0.00, -1.00, 587.0, 372.0)">r</text><text xml:space="preserve" font-family="Consolas,Consolas" font-size="39.0" fill="#000000" transform="matrix(1.00, 0.00, -0.00, -1.00, 608.4, 372.0)">u</text><text xml:space="preserve" font-family="Consolas,Consolas" font-size="39.0" fill="#000000" transform="matrix(1.00, 0.00, -0.00, -1.00, 629.9, 372.0)">	</text><text xml:space="preserve" font-family="Consolas,Consolas" font-size="39.0" fill="#000000" transform="matrix(1.00, 0.00, -0.00, -1.00, 657.9, 372.0)"></text><text xml:space="preserve" font-family="Consolas,Consolas" font-size="39.0" fill="#000000" transform="matrix(1.00, 0.00, -0.00, -1.00, 657.9, 372.0)"> </text><text xml:space="preserve" font-family="Consolas,Consolas" font-size="39.0" fill="#000000" transform="matrix(1.00, 0.00, -0.00, -1.00, 679.4, 372.0)"> </text><g><clipPath id="clip0x7ff532beeba0"><path d="M 393.1 364.5 L 629.9 364.5 L 629.9 369.3 L 393.1 369.3 Z M 393.1 364.5 "></path></clipPath><g clip-path="url(#clip0x7ff532beeba0)"><path d="M 132.6 108.9 L 368.4 108.9 " fill="none" stroke="#000000" stroke-width="2.74" transform="matrix(1.00, 0.00, 0.00, -1.00, 261.5, 475.8)"></path></g></g><text xml:space="preserve" font-family="Consolas,Consolas" font-size="39.0" fill="#000000" transform="matrix(1.00, 0.00, -0.00, -1.00, 447.7, 306.3)">@</text><text xml:space="preserve" font-family="Consolas,Consolas" font-size="39.0" fill="#000000" transform="matrix(1.00, 0.00, -0.00, -1.00, 469.1, 306.3)">r</text><text xml:space="preserve" font-family="Consolas,Consolas" font-size="39.0" fill="#000000" transform="matrix(1.00, 0.00, -0.00, -1.00, 490.5, 306.3)">3</text><text xml:space="preserve" font-family="Consolas,Consolas" font-size="39.0" fill="#000000" transform="matrix(1.00, 0.00, -0.00, -1.00, 512.0, 306.3)">n</text><text xml:space="preserve" font-family="Consolas,Consolas" font-size="39.0" fill="#000000" transform="matrix(1.00, 0.00, -0.00, -1.00, 533.4, 306.3)">y</text><text xml:space="preserve" font-family="Consolas,Consolas" font-size="39.0" fill="#000000" transform="matrix(1.00, 0.00, -0.00, -1.00, 554.8, 306.3)">a</text><text xml:space="preserve" font-family="Helvetica-Light,Helvetica" font-size="18.0" fill="#000000" transform="matrix(1.00, 0.00, -0.00, -1.00, 501.5, 17.6)">3</text><text xml:space="preserve" font-family="Helvetica-Light,Helvetica" font-size="18.0" fill="#000000" transform="matrix(1.00, 0.00, -0.00, -1.00, 511.5, 17.6)">3</text></g></svg>