<?xml version="1.0" encoding="UTF-8" standalone="no"?><svg xmlns="http://www.w3.org/2000/svg" xmlns:xlink="http://www.w3.org/1999/xlink" clip-rule="evenodd" stroke-miterlimit="10" viewBox="0 0 1024 768"><desc>SVG generated by Keynote</desc><defs></defs><g transform="matrix(1.00, 0.00, -0.00, -1.00, 0.0, 768.0)"><path d="M 0.0 768.0 L 1024.0 768.0 L 1024.0 0.0 L 0.0 0.0 Z M 0.0 768.0 " fill="#FEFFFF"></path><text xml:space="preserve" font-family="Helvetica-Light,Helvetica" font-size="50.0" fill="#000000" transform="matrix(1.00, 0.00, -0.00, -1.00, 321.2, 679.9)">P</text><text xml:space="preserve" font-family="Helvetica-Light,Helvetica" font-size="50.0" fill="#000000" transform="matrix(1.00, 0.00, -0.00, -1.00, 351.8, 679.9)">a</text><text xml:space="preserve" font-family="Helvetica-Light,Helvetica" font-size="50.0" fill="#000000" transform="matrix(1.00, 0.00, -0.00, -1.00, 379.6, 679.9)">t</text><text xml:space="preserve" font-family="Helvetica-Light,Helvetica" font-size="50.0" fill="#000000" transform="matrix(1.00, 0.00, -0.00, -1.00, 393.5, 679.9)">t</text><text xml:space="preserve" font-family="Helvetica-Light,Helvetica" font-size="50.0" fill="#000000" transform="matrix(1.00, 0.00, -0.00, -1.00, 407.4, 679.9)">e</text><text xml:space="preserve" font-family="Helvetica-Light,Helvetica" font-size="50.0" fill="#000000" transform="matrix(1.00, 0.00, -0.00, -1.00, 435.2, 679.9)">r</text><text xml:space="preserve" font-family="Helvetica-Light,Helvetica" font-size="50.0" fill="#000000" transform="matrix(1.00, 0.00, -0.00, -1.00, 452.7, 679.9)">n</text><text xml:space="preserve" font-family="Helvetica-Light,Helvetica" font-size="50.0" fill="#000000" transform="matrix(1.00, 0.00, -0.00, -1.00, 480.5, 679.9)"> </text><text xml:space="preserve" font-family="Helvetica-Light,Helvetica" font-size="50.0" fill="#000000" transform="matrix(1.00, 0.00, -0.00, -1.00, 494.4, 679.9)">M</text><text xml:space="preserve" font-family="Helvetica-Light,Helvetica" font-size="50.0" fill="#000000" transform="matrix(1.00, 0.00, -0.00, -1.00, 536.1, 679.9)">a</text><text xml:space="preserve" font-family="Helvetica-Light,Helvetica" font-size="50.0" fill="#000000" transform="matrix(1.00, 0.00, -0.00, -1.00, 563.9, 679.9)">t</text><text xml:space="preserve" font-family="Helvetica-Light,Helvetica" font-size="50.0" fill="#000000" transform="matrix(1.00, 0.00, -0.00, -1.00, 577.8, 679.9)">c</text><text xml:space="preserve" font-family="Helvetica-Light,Helvetica" font-size="50.0" fill="#000000" transform="matrix(1.00, 0.00, -0.00, -1.00, 605.6, 679.9)">h</text><text xml:space="preserve" font-family="Helvetica-Light,Helvetica" font-size="50.0" fill="#000000" transform="matrix(1.00, 0.00, -0.00, -1.00, 633.4, 679.9)">i</text><text xml:space="preserve" font-family="Helvetica-Light,Helvetica" font-size="50.0" fill="#000000" transform="matrix(1.00, 0.00, -0.00, -1.00, 644.5, 679.9)">n</text><text xml:space="preserve" font-family="Helvetica-Light,Helvetica" font-size="50.0" fill="#000000" transform="matrix(1.00, 0.00, -0.00, -1.00, 672.3, 679.9)">g</text><path d="M 35.0 534.0 L 989.0 534.0 L 989.0 234.0 L 35.0 234.0 Z M 35.3 534.3 " fill="#DCDDE0"></path><g><clipPath id="clip0x7ff52f7500f0"><path d="M 28.6 219.6 L 1921.3 219.6 L 1921.3 541.1 L 28.6 541.1 Z M 28.6 219.6 "></path></clipPath><g clip-path="url(#clip0x7ff52f7500f0)"><text xml:space="preserve" font-family="Consolas,Consolas" font-size="43.0" fill="#851001" transform="matrix(1.00, 0.00, -0.00, -1.00, 39.3, 498.7)">g</text><text xml:space="preserve" font-family="Consolas,Consolas" font-size="43.0" fill="#851001" transform="matrix(1.00, 0.00, -0.00, -1.00, 62.9, 498.7)">r</text><text xml:space="preserve" font-family="Consolas,Consolas" font-size="43.0" fill="#851001" transform="matrix(1.00, 0.00, -0.00, -1.00, 86.6, 498.7)">e</text><text xml:space="preserve" font-family="Consolas,Consolas" font-size="43.0" fill="#851001" transform="matrix(1.00, 0.00, -0.00, -1.00, 110.2, 498.7)">e</text><text xml:space="preserve" font-family="Consolas,Consolas" font-size="43.0" fill="#851001" transform="matrix(1.00, 0.00, -0.00, -1.00, 133.8, 498.7)">t</text><text xml:space="preserve" font-family="Consolas,Consolas" font-size="43.0" fill="#000000" transform="matrix(1.00, 0.00, -0.00, -1.00, 157.5, 498.7)">(</text><text xml:space="preserve" font-family="Consolas,Consolas" font-size="43.0" fill="#000000" transform="matrix(1.00, 0.00, -0.00, -1.00, 181.2, 498.7)">m</text><text xml:space="preserve" font-family="Consolas,Consolas" font-size="43.0" fill="#000000" transform="matrix(1.00, 0.00, -0.00, -1.00, 204.8, 498.7)">a</text><text xml:space="preserve" font-family="Consolas,Consolas" font-size="43.0" fill="#000000" transform="matrix(1.00, 0.00, -0.00, -1.00, 228.4, 498.7)">l</text><text xml:space="preserve" font-family="Consolas,Consolas" font-size="43.0" fill="#000000" transform="matrix(1.00, 0.00, -0.00, -1.00, 252.0, 498.7)">e</text><text xml:space="preserve" font-family="Consolas,Consolas" font-size="43.0" fill="#000000" transform="matrix(1.00, 0.00, -0.00, -1.00, 275.7, 498.7)">,</text><text xml:space="preserve" font-family="Consolas,Consolas" font-size="43.0" fill="#000000" transform="matrix(1.00, 0.00, -0.00, -1.00, 299.3, 498.7)">	</text><text xml:space="preserve" font-family="Consolas,Consolas" font-size="43.0" fill="#000000" transform="matrix(1.00, 0.00, -0.00, -1.00, 327.3, 498.7)"></text><text xml:space="preserve" font-family="Consolas,Consolas" font-size="43.0" fill="#000000" transform="matrix(1.00, 0.00, -0.00, -1.00, 327.3, 498.7)"> </text><text xml:space="preserve" font-family="Consolas,Consolas" font-size="43.0" fill="#000000" transform="matrix(1.00, 0.00, -0.00, -1.00, 350.9, 498.7)"> </text><text xml:space="preserve" font-family="Consolas,Consolas" font-size="43.0" fill="#000000" transform="matrix(1.00, 0.00, -0.00, -1.00, 374.6, 498.7)">N</text><text xml:space="preserve" font-family="Consolas,Consolas" font-size="43.0" fill="#000000" transform="matrix(1.00, 0.00, -0.00, -1.00, 398.2, 498.7)">a</text><text xml:space="preserve" font-family="Consolas,Consolas" font-size="43.0" fill="#000000" transform="matrix(1.00, 0.00, -0.00, -1.00, 421.8, 498.7)">m</text><text xml:space="preserve" font-family="Consolas,Consolas" font-size="43.0" fill="#000000" transform="matrix(1.00, 0.00, -0.00, -1.00, 445.5, 498.7)">e</text><text xml:space="preserve" font-family="Consolas,Consolas" font-size="43.0" fill="#000000" transform="matrix(1.00, 0.00, -0.00, -1.00, 469.1, 498.7)">)</text><text xml:space="preserve" font-family="Consolas,Consolas" font-size="43.0" fill="#000000" transform="matrix(1.00, 0.00, -0.00, -1.00, 492.7, 498.7)">	</text><text xml:space="preserve" font-family="Consolas,Consolas" font-size="43.0" fill="#000000" transform="matrix(1.00, 0.00, -0.00, -1.00, 520.7, 498.7)"></text><text xml:space="preserve" font-family="Consolas,Consolas" font-size="43.0" fill="#000000" transform="matrix(1.00, 0.00, -0.00, -1.00, 520.7, 498.7)"> </text><text xml:space="preserve" font-family="Consolas,Consolas" font-size="43.0" fill="#000000" transform="matrix(1.00, 0.00, -0.00, -1.00, 544.4, 498.7)"> </text><text xml:space="preserve" font-family="Consolas,Consolas" font-size="43.0" fill="#000000" transform="matrix(1.00, 0.00, -0.00, -1.00, 568.0, 498.7)">-</text><text xml:space="preserve" font-family="Consolas,Consolas" font-size="43.0" fill="#000000" transform="matrix(1.00, 0.00, -0.00, -1.00, 591.6, 498.7)">­</text><text xml:space="preserve" font-family="Consolas,Consolas" font-size="43.0" fill="#000000" transform="matrix(1.00, 0.00, -0.00, -1.00, 591.6, 498.7)">‐</text><text xml:space="preserve" font-family="Consolas,Consolas" font-size="43.0" fill="#000000" transform="matrix(1.00, 0.00, -0.00, -1.00, 615.3, 498.7)">&gt;</text><text xml:space="preserve" font-family="Consolas,Consolas" font-size="43.0" fill="#000000" transform="matrix(1.00, 0.00, -0.00, -1.00, 638.9, 498.7)">	</text><text xml:space="preserve" font-family="Consolas,Consolas" font-size="43.0" fill="#000000" transform="matrix(1.00, 0.00, -0.00, -1.00, 666.9, 498.7)"></text><text xml:space="preserve" font-family="Consolas,Consolas" font-size="43.0" fill="#000000" transform="matrix(1.00, 0.00, -0.00, -1.00, 666.9, 498.7)"> </text><text xml:space="preserve" font-family="Consolas,Consolas" font-size="43.0" fill="#000000" transform="matrix(1.00, 0.00, -0.00, -1.00, 690.5, 498.7)"> </text><text xml:space="preserve" font-family="Consolas,Consolas" font-size="43.0" fill="#000000" transform="matrix(1.00, 0.00, -0.00, -1.00, 39.3, 448.7)">	</text><text xml:space="preserve" font-family="Consolas,Consolas" font-size="43.0" fill="#000000" transform="matrix(1.00, 0.00, -0.00, -1.00, 67.3, 448.7)"></text><text xml:space="preserve" font-family="Consolas,Consolas" font-size="43.0" fill="#000000" transform="matrix(1.00, 0.00, -0.00, -1.00, 67.3, 448.7)"> </text><text xml:space="preserve" font-family="Consolas,Consolas" font-size="43.0" fill="#000000" transform="matrix(1.00, 0.00, -0.00, -1.00, 113.3, 448.7)"> </text><text xml:space="preserve" font-family="Consolas,Consolas" font-size="43.0" fill="#000000" transform="matrix(1.00, 0.00, -0.00, -1.00, 159.3, 448.7)">i</text><text xml:space="preserve" font-family="Consolas,Consolas" font-size="43.0" fill="#000000" transform="matrix(1.00, 0.00, -0.00, -1.00, 182.9, 448.7)">o</text><text xml:space="preserve" font-family="Consolas,Consolas" font-size="43.0" fill="#000000" transform="matrix(1.00, 0.00, -0.00, -1.00, 206.6, 448.7)">:</text><text xml:space="preserve" font-family="Consolas,Consolas" font-size="43.0" fill="#000000" transform="matrix(1.00, 0.00, -0.00, -1.00, 230.2, 448.7)">f</text><text xml:space="preserve" font-family="Consolas,Consolas" font-size="43.0" fill="#000000" transform="matrix(1.00, 0.00, -0.00, -1.00, 253.8, 448.7)">o</text><text xml:space="preserve" font-family="Consolas,Consolas" font-size="43.0" fill="#000000" transform="matrix(1.00, 0.00, -0.00, -1.00, 277.5, 448.7)">r</text><text xml:space="preserve" font-family="Consolas,Consolas" font-size="43.0" fill="#000000" transform="matrix(1.00, 0.00, -0.00, -1.00, 301.1, 448.7)">m</text><text xml:space="preserve" font-family="Consolas,Consolas" font-size="43.0" fill="#000000" transform="matrix(1.00, 0.00, -0.00, -1.00, 324.7, 448.7)">a</text><text xml:space="preserve" font-family="Consolas,Consolas" font-size="43.0" fill="#000000" transform="matrix(1.00, 0.00, -0.00, -1.00, 348.4, 448.7)">t</text><text xml:space="preserve" font-family="Consolas,Consolas" font-size="43.0" fill="#000000" transform="matrix(1.00, 0.00, -0.00, -1.00, 372.0, 448.7)">(</text><text xml:space="preserve" font-family="Consolas,Consolas" font-size="43.0" fill="#000000" transform="matrix(1.00, 0.00, -0.00, -1.00, 395.6, 448.7)">"</text><text xml:space="preserve" font-family="Consolas,Consolas" font-size="43.0" fill="#BD5A0C" transform="matrix(1.00, 0.00, -0.00, -1.00, 345.4, 448.7)">H</text><text xml:space="preserve" font-family="Consolas,Consolas" font-size="43.0" fill="#BD5A0C" transform="matrix(1.00, 0.00, -0.00, -1.00, 369.0, 448.7)">e</text><text xml:space="preserve" font-family="Consolas,Consolas" font-size="43.0" fill="#BD5A0C" transform="matrix(1.00, 0.00, -0.00, -1.00, 392.6, 448.7)">l</text><text xml:space="preserve" font-family="Consolas,Consolas" font-size="43.0" fill="#BD5A0C" transform="matrix(1.00, 0.00, -0.00, -1.00, 416.3, 448.7)">l</text><text xml:space="preserve" font-family="Consolas,Consolas" font-size="43.0" fill="#BD5A0C" transform="matrix(1.00, 0.00, -0.00, -1.00, 439.9, 448.7)">o</text><text xml:space="preserve" font-family="Consolas,Consolas" font-size="43.0" fill="#BD5A0C" transform="matrix(1.00, 0.00, -0.00, -1.00, 463.5, 448.7)">,</text><text xml:space="preserve" font-family="Consolas,Consolas" font-size="43.0" fill="#BD5A0C" transform="matrix(1.00, 0.00, -0.00, -1.00, 487.2, 448.7)">	</text><text xml:space="preserve" font-family="Consolas,Consolas" font-size="43.0" fill="#BD5A0C" transform="matrix(1.00, 0.00, -0.00, -1.00, 515.2, 448.7)"></text><text xml:space="preserve" font-family="Consolas,Consolas" font-size="43.0" fill="#BD5A0C" transform="matrix(1.00, 0.00, -0.00, -1.00, 515.2, 448.7)"> </text><text xml:space="preserve" font-family="Consolas,Consolas" font-size="43.0" fill="#BD5A0C" transform="matrix(1.00, 0.00, -0.00, -1.00, 538.8, 448.7)"> </text><text xml:space="preserve" font-family="Consolas,Consolas" font-size="43.0" fill="#BD5A0C" transform="matrix(1.00, 0.00, -0.00, -1.00, 562.4, 448.7)">M</text><text xml:space="preserve" font-family="Consolas,Consolas" font-size="43.0" fill="#BD5A0C" transform="matrix(1.00, 0.00, -0.00, -1.00, 586.1, 448.7)">r</text><text xml:space="preserve" font-family="Consolas,Consolas" font-size="43.0" fill="#BD5A0C" transform="matrix(1.00, 0.00, -0.00, -1.00, 609.7, 448.7)">.</text><text xml:space="preserve" font-family="Consolas,Consolas" font-size="43.0" fill="#BD5A0C" transform="matrix(1.00, 0.00, -0.00, -1.00, 633.3, 448.7)">	</text><text xml:space="preserve" font-family="Consolas,Consolas" font-size="43.0" fill="#BD5A0C" transform="matrix(1.00, 0.00, -0.00, -1.00, 661.3, 448.7)"></text><text xml:space="preserve" font-family="Consolas,Consolas" font-size="43.0" fill="#BD5A0C" transform="matrix(1.00, 0.00, -0.00, -1.00, 661.3, 448.7)"> </text><text xml:space="preserve" font-family="Consolas,Consolas" font-size="43.0" fill="#BD5A0C" transform="matrix(1.00, 0.00, -0.00, -1.00, 685.0, 448.7)"> </text><text xml:space="preserve" font-family="Consolas,Consolas" font-size="43.0" fill="#BD5A0C" transform="matrix(1.00, 0.00, -0.00, -1.00, 708.6, 448.7)">~</text><text xml:space="preserve" font-family="Consolas,Consolas" font-size="43.0" fill="#BD5A0C" transform="matrix(1.00, 0.00, -0.00, -1.00, 732.2, 448.7)">s</text><text xml:space="preserve" font-family="Consolas,Consolas" font-size="43.0" fill="#BD5A0C" transform="matrix(1.00, 0.00, -0.00, -1.00, 755.9, 448.7)">!</text><text xml:space="preserve" font-family="Consolas,Consolas" font-size="43.0" fill="#000000" transform="matrix(1.00, 0.00, -0.00, -1.00, 676.3, 448.7)">"</text><text xml:space="preserve" font-family="Consolas,Consolas" font-size="43.0" fill="#000000" transform="matrix(1.00, 0.00, -0.00, -1.00, 700.0, 448.7)">,</text><text xml:space="preserve" font-family="Consolas,Consolas" font-size="43.0" fill="#000000" transform="matrix(1.00, 0.00, -0.00, -1.00, 723.6, 448.7)">	</text><text xml:space="preserve" font-family="Consolas,Consolas" font-size="43.0" fill="#000000" transform="matrix(1.00, 0.00, -0.00, -1.00, 751.6, 448.7)"></text><text xml:space="preserve" font-family="Consolas,Consolas" font-size="43.0" fill="#000000" transform="matrix(1.00, 0.00, -0.00, -1.00, 751.6, 448.7)"> </text><text xml:space="preserve" font-family="Consolas,Consolas" font-size="43.0" fill="#000000" transform="matrix(1.00, 0.00, -0.00, -1.00, 775.2, 448.7)"> </text><text xml:space="preserve" font-family="Consolas,Consolas" font-size="43.0" fill="#000000" transform="matrix(1.00, 0.00, -0.00, -1.00, 798.9, 448.7)">[</text><text xml:space="preserve" font-family="Consolas,Consolas" font-size="43.0" fill="#000000" transform="matrix(1.00, 0.00, -0.00, -1.00, 822.5, 448.7)">N</text><text xml:space="preserve" font-family="Consolas,Consolas" font-size="43.0" fill="#000000" transform="matrix(1.00, 0.00, -0.00, -1.00, 846.1, 448.7)">a</text><text xml:space="preserve" font-family="Consolas,Consolas" font-size="43.0" fill="#000000" transform="matrix(1.00, 0.00, -0.00, -1.00, 869.8, 448.7)">m</text><text xml:space="preserve" font-family="Consolas,Consolas" font-size="43.0" fill="#000000" transform="matrix(1.00, 0.00, -0.00, -1.00, 893.4, 448.7)">e</text><text xml:space="preserve" font-family="Consolas,Consolas" font-size="43.0" fill="#000000" transform="matrix(1.00, 0.00, -0.00, -1.00, 917.0, 448.7)">]</text><text xml:space="preserve" font-family="Consolas,Consolas" font-size="43.0" fill="#000000" transform="matrix(1.00, 0.00, -0.00, -1.00, 940.7, 448.7)">)</text><text xml:space="preserve" font-family="Consolas,Consolas" font-size="43.0" fill="#000000" transform="matrix(1.00, 0.00, -0.00, -1.00, 964.3, 448.7)">;</text><text xml:space="preserve" font-family="Consolas,Consolas" font-size="43.0" fill="#000000" transform="matrix(1.00, 0.00, -0.00, -1.00, 987.9, 448.7)">	</text><text xml:space="preserve" font-family="Consolas,Consolas" font-size="43.0" fill="#000000" transform="matrix(1.00, 0.00, -0.00, -1.00, 1015.9, 448.7)"></text><text xml:space="preserve" font-family="Consolas,Consolas" font-size="43.0" fill="#000000" transform="matrix(1.00, 0.00, -0.00, -1.00, 1015.9, 448.7)"> </text><text xml:space="preserve" font-family="Consolas,Consolas" font-size="43.0" fill="#000000" transform="matrix(1.00, 0.00, -0.00, -1.00, 1039.6, 448.7)"> </text><text xml:space="preserve" font-family="Consolas,Consolas" font-size="43.0" fill="#851001" transform="matrix(1.00, 0.00, -0.00, -1.00, 39.3, 398.7)">g</text><text xml:space="preserve" font-family="Consolas,Consolas" font-size="43.0" fill="#851001" transform="matrix(1.00, 0.00, -0.00, -1.00, 62.9, 398.7)">r</text><text xml:space="preserve" font-family="Consolas,Consolas" font-size="43.0" fill="#851001" transform="matrix(1.00, 0.00, -0.00, -1.00, 86.6, 398.7)">e</text><text xml:space="preserve" font-family="Consolas,Consolas" font-size="43.0" fill="#851001" transform="matrix(1.00, 0.00, -0.00, -1.00, 110.2, 398.7)">e</text><text xml:space="preserve" font-family="Consolas,Consolas" font-size="43.0" fill="#851001" transform="matrix(1.00, 0.00, -0.00, -1.00, 133.8, 398.7)">t</text><text xml:space="preserve" font-family="Consolas,Consolas" font-size="43.0" fill="#000000" transform="matrix(1.00, 0.00, -0.00, -1.00, 157.5, 398.7)">(</text><text xml:space="preserve" font-family="Consolas,Consolas" font-size="43.0" fill="#000000" transform="matrix(1.00, 0.00, -0.00, -1.00, 181.2, 398.7)">f</text><text xml:space="preserve" font-family="Consolas,Consolas" font-size="43.0" fill="#000000" transform="matrix(1.00, 0.00, -0.00, -1.00, 204.8, 398.7)">e</text><text xml:space="preserve" font-family="Consolas,Consolas" font-size="43.0" fill="#000000" transform="matrix(1.00, 0.00, -0.00, -1.00, 228.4, 398.7)">m</text><text xml:space="preserve" font-family="Consolas,Consolas" font-size="43.0" fill="#000000" transform="matrix(1.00, 0.00, -0.00, -1.00, 252.0, 398.7)">a</text><text xml:space="preserve" font-family="Consolas,Consolas" font-size="43.0" fill="#000000" transform="matrix(1.00, 0.00, -0.00, -1.00, 275.7, 398.7)">l</text><text xml:space="preserve" font-family="Consolas,Consolas" font-size="43.0" fill="#000000" transform="matrix(1.00, 0.00, -0.00, -1.00, 299.3, 398.7)">e</text><text xml:space="preserve" font-family="Consolas,Consolas" font-size="43.0" fill="#000000" transform="matrix(1.00, 0.00, -0.00, -1.00, 322.9, 398.7)">,</text><text xml:space="preserve" font-family="Consolas,Consolas" font-size="43.0" fill="#000000" transform="matrix(1.00, 0.00, -0.00, -1.00, 346.6, 398.7)">	</text><text xml:space="preserve" font-family="Consolas,Consolas" font-size="43.0" fill="#000000" transform="matrix(1.00, 0.00, -0.00, -1.00, 374.6, 398.7)"></text><text xml:space="preserve" font-family="Consolas,Consolas" font-size="43.0" fill="#000000" transform="matrix(1.00, 0.00, -0.00, -1.00, 374.6, 398.7)"> </text><text xml:space="preserve" font-family="Consolas,Consolas" font-size="43.0" fill="#000000" transform="matrix(1.00, 0.00, -0.00, -1.00, 398.2, 398.7)"> </text><text xml:space="preserve" font-family="Consolas,Consolas" font-size="43.0" fill="#000000" transform="matrix(1.00, 0.00, -0.00, -1.00, 421.8, 398.7)">N</text><text xml:space="preserve" font-family="Consolas,Consolas" font-size="43.0" fill="#000000" transform="matrix(1.00, 0.00, -0.00, -1.00, 445.5, 398.7)">a</text><text xml:space="preserve" font-family="Consolas,Consolas" font-size="43.0" fill="#000000" transform="matrix(1.00, 0.00, -0.00, -1.00, 469.1, 398.7)">m</text><text xml:space="preserve" font-family="Consolas,Consolas" font-size="43.0" fill="#000000" transform="matrix(1.00, 0.00, -0.00, -1.00, 492.7, 398.7)">e</text><text xml:space="preserve" font-family="Consolas,Consolas" font-size="43.0" fill="#000000" transform="matrix(1.00, 0.00, -0.00, -1.00, 516.4, 398.7)">)</text><text xml:space="preserve" font-family="Consolas,Consolas" font-size="43.0" fill="#000000" transform="matrix(1.00, 0.00, -0.00, -1.00, 540.0, 398.7)">	</text><text xml:space="preserve" font-family="Consolas,Consolas" font-size="43.0" fill="#000000" transform="matrix(1.00, 0.00, -0.00, -1.00, 568.0, 398.7)"></text><text xml:space="preserve" font-family="Consolas,Consolas" font-size="43.0" fill="#000000" transform="matrix(1.00, 0.00, -0.00, -1.00, 568.0, 398.7)"> </text><text xml:space="preserve" font-family="Consolas,Consolas" font-size="43.0" fill="#000000" transform="matrix(1.00, 0.00, -0.00, -1.00, 591.6, 398.7)"> </text><text xml:space="preserve" font-family="Consolas,Consolas" font-size="43.0" fill="#000000" transform="matrix(1.00, 0.00, -0.00, -1.00, 615.3, 398.7)">-</text><text xml:space="preserve" font-family="Consolas,Consolas" font-size="43.0" fill="#000000" transform="matrix(1.00, 0.00, -0.00, -1.00, 638.9, 398.7)">­</text><text xml:space="preserve" font-family="Consolas,Consolas" font-size="43.0" fill="#000000" transform="matrix(1.00, 0.00, -0.00, -1.00, 638.9, 398.7)">‐</text><text xml:space="preserve" font-family="Consolas,Consolas" font-size="43.0" fill="#000000" transform="matrix(1.00, 0.00, -0.00, -1.00, 662.5, 398.7)">&gt;</text><text xml:space="preserve" font-family="Consolas,Consolas" font-size="43.0" fill="#000000" transform="matrix(1.00, 0.00, -0.00, -1.00, 686.2, 398.7)">	</text><text xml:space="preserve" font-family="Consolas,Consolas" font-size="43.0" fill="#000000" transform="matrix(1.00, 0.00, -0.00, -1.00, 714.2, 398.7)"></text><text xml:space="preserve" font-family="Consolas,Consolas" font-size="43.0" fill="#000000" transform="matrix(1.00, 0.00, -0.00, -1.00, 714.2, 398.7)"> </text><text xml:space="preserve" font-family="Consolas,Consolas" font-size="43.0" fill="#000000" transform="matrix(1.00, 0.00, -0.00, -1.00, 737.8, 398.7)"> </text><text xml:space="preserve" font-family="Consolas,Consolas" font-size="43.0" fill="#000000" transform="matrix(1.00, 0.00, -0.00, -1.00, 39.3, 348.7)">	</text><text xml:space="preserve" font-family="Consolas,Consolas" font-size="43.0" fill="#000000" transform="matrix(1.00, 0.00, -0.00, -1.00, 67.3, 348.7)"></text><text xml:space="preserve" font-family="Consolas,Consolas" font-size="43.0" fill="#000000" transform="matrix(1.00, 0.00, -0.00, -1.00, 67.3, 348.7)"> </text><text xml:space="preserve" font-family="Consolas,Consolas" font-size="43.0" fill="#000000" transform="matrix(1.00, 0.00, -0.00, -1.00, 113.3, 348.7)"> </text><text xml:space="preserve" font-family="Consolas,Consolas" font-size="43.0" fill="#000000" transform="matrix(1.00, 0.00, -0.00, -1.00, 159.3, 348.7)">i</text><text xml:space="preserve" font-family="Consolas,Consolas" font-size="43.0" fill="#000000" transform="matrix(1.00, 0.00, -0.00, -1.00, 182.9, 348.7)">o</text><text xml:space="preserve" font-family="Consolas,Consolas" font-size="43.0" fill="#000000" transform="matrix(1.00, 0.00, -0.00, -1.00, 206.6, 348.7)">:</text><text xml:space="preserve" font-family="Consolas,Consolas" font-size="43.0" fill="#000000" transform="matrix(1.00, 0.00, -0.00, -1.00, 230.2, 348.7)">f</text><text xml:space="preserve" font-family="Consolas,Consolas" font-size="43.0" fill="#000000" transform="matrix(1.00, 0.00, -0.00, -1.00, 253.8, 348.7)">o</text><text xml:space="preserve" font-family="Consolas,Consolas" font-size="43.0" fill="#000000" transform="matrix(1.00, 0.00, -0.00, -1.00, 277.5, 348.7)">r</text><text xml:space="preserve" font-family="Consolas,Consolas" font-size="43.0" fill="#000000" transform="matrix(1.00, 0.00, -0.00, -1.00, 301.1, 348.7)">m</text><text xml:space="preserve" font-family="Consolas,Consolas" font-size="43.0" fill="#000000" transform="matrix(1.00, 0.00, -0.00, -1.00, 324.7, 348.7)">a</text><text xml:space="preserve" font-family="Consolas,Consolas" font-size="43.0" fill="#000000" transform="matrix(1.00, 0.00, -0.00, -1.00, 348.4, 348.7)">t</text><text xml:space="preserve" font-family="Consolas,Consolas" font-size="43.0" fill="#000000" transform="matrix(1.00, 0.00, -0.00, -1.00, 372.0, 348.7)">(</text><text xml:space="preserve" font-family="Consolas,Consolas" font-size="43.0" fill="#000000" transform="matrix(1.00, 0.00, -0.00, -1.00, 395.6, 348.7)">"</text><text xml:space="preserve" font-family="Consolas,Consolas" font-size="43.0" fill="#BD5A0C" transform="matrix(1.00, 0.00, -0.00, -1.00, 345.4, 348.7)">H</text><text xml:space="preserve" font-family="Consolas,Consolas" font-size="43.0" fill="#BD5A0C" transform="matrix(1.00, 0.00, -0.00, -1.00, 369.0, 348.7)">e</text><text xml:space="preserve" font-family="Consolas,Consolas" font-size="43.0" fill="#BD5A0C" transform="matrix(1.00, 0.00, -0.00, -1.00, 392.6, 348.7)">l</text><text xml:space="preserve" font-family="Consolas,Consolas" font-size="43.0" fill="#BD5A0C" transform="matrix(1.00, 0.00, -0.00, -1.00, 416.3, 348.7)">l</text><text xml:space="preserve" font-family="Consolas,Consolas" font-size="43.0" fill="#BD5A0C" transform="matrix(1.00, 0.00, -0.00, -1.00, 439.9, 348.7)">o</text><text xml:space="preserve" font-family="Consolas,Consolas" font-size="43.0" fill="#BD5A0C" transform="matrix(1.00, 0.00, -0.00, -1.00, 463.5, 348.7)">,</text><text xml:space="preserve" font-family="Consolas,Consolas" font-size="43.0" fill="#BD5A0C" transform="matrix(1.00, 0.00, -0.00, -1.00, 487.2, 348.7)">	</text><text xml:space="preserve" font-family="Consolas,Consolas" font-size="43.0" fill="#BD5A0C" transform="matrix(1.00, 0.00, -0.00, -1.00, 515.2, 348.7)"></text><text xml:space="preserve" font-family="Consolas,Consolas" font-size="43.0" fill="#BD5A0C" transform="matrix(1.00, 0.00, -0.00, -1.00, 515.2, 348.7)"> </text><text xml:space="preserve" font-family="Consolas,Consolas" font-size="43.0" fill="#BD5A0C" transform="matrix(1.00, 0.00, -0.00, -1.00, 538.8, 348.7)"> </text><text xml:space="preserve" font-family="Consolas,Consolas" font-size="43.0" fill="#BD5A0C" transform="matrix(1.00, 0.00, -0.00, -1.00, 562.4, 348.7)">M</text><text xml:space="preserve" font-family="Consolas,Consolas" font-size="43.0" fill="#BD5A0C" transform="matrix(1.00, 0.00, -0.00, -1.00, 586.1, 348.7)">r</text><text xml:space="preserve" font-family="Consolas,Consolas" font-size="43.0" fill="#BD5A0C" transform="matrix(1.00, 0.00, -0.00, -1.00, 609.7, 348.7)">s</text><text xml:space="preserve" font-family="Consolas,Consolas" font-size="43.0" fill="#BD5A0C" transform="matrix(1.00, 0.00, -0.00, -1.00, 633.3, 348.7)">.</text><text xml:space="preserve" font-family="Consolas,Consolas" font-size="43.0" fill="#BD5A0C" transform="matrix(1.00, 0.00, -0.00, -1.00, 657.0, 348.7)">	</text><text xml:space="preserve" font-family="Consolas,Consolas" font-size="43.0" fill="#BD5A0C" transform="matrix(1.00, 0.00, -0.00, -1.00, 685.0, 348.7)"></text><text xml:space="preserve" font-family="Consolas,Consolas" font-size="43.0" fill="#BD5A0C" transform="matrix(1.00, 0.00, -0.00, -1.00, 685.0, 348.7)"> </text><text xml:space="preserve" font-family="Consolas,Consolas" font-size="43.0" fill="#BD5A0C" transform="matrix(1.00, 0.00, -0.00, -1.00, 708.6, 348.7)"> </text><text xml:space="preserve" font-family="Consolas,Consolas" font-size="43.0" fill="#BD5A0C" transform="matrix(1.00, 0.00, -0.00, -1.00, 732.2, 348.7)">~</text><text xml:space="preserve" font-family="Consolas,Consolas" font-size="43.0" fill="#BD5A0C" transform="matrix(1.00, 0.00, -0.00, -1.00, 755.9, 348.7)">s</text><text xml:space="preserve" font-family="Consolas,Consolas" font-size="43.0" fill="#BD5A0C" transform="matrix(1.00, 0.00, -0.00, -1.00, 779.5, 348.7)">!</text><text xml:space="preserve" font-family="Consolas,Consolas" font-size="43.0" fill="#000000" transform="matrix(1.00, 0.00, -0.00, -1.00, 700.0, 348.7)">"</text><text xml:space="preserve" font-family="Consolas,Consolas" font-size="43.0" fill="#000000" transform="matrix(1.00, 0.00, -0.00, -1.00, 723.6, 348.7)">,</text><text xml:space="preserve" font-family="Consolas,Consolas" font-size="43.0" fill="#000000" transform="matrix(1.00, 0.00, -0.00, -1.00, 747.3, 348.7)">	</text><text xml:space="preserve" font-family="Consolas,Consolas" font-size="43.0" fill="#000000" transform="matrix(1.00, 0.00, -0.00, -1.00, 775.3, 348.7)"></text><text xml:space="preserve" font-family="Consolas,Consolas" font-size="43.0" fill="#000000" transform="matrix(1.00, 0.00, -0.00, -1.00, 775.3, 348.7)"> </text><text xml:space="preserve" font-family="Consolas,Consolas" font-size="43.0" fill="#000000" transform="matrix(1.00, 0.00, -0.00, -1.00, 798.9, 348.7)"> </text><text xml:space="preserve" font-family="Consolas,Consolas" font-size="43.0" fill="#000000" transform="matrix(1.00, 0.00, -0.00, -1.00, 822.5, 348.7)">[</text><text xml:space="preserve" font-family="Consolas,Consolas" font-size="43.0" fill="#000000" transform="matrix(1.00, 0.00, -0.00, -1.00, 846.2, 348.7)">N</text><text xml:space="preserve" font-family="Consolas,Consolas" font-size="43.0" fill="#000000" transform="matrix(1.00, 0.00, -0.00, -1.00, 869.8, 348.7)">a</text><text xml:space="preserve" font-family="Consolas,Consolas" font-size="43.0" fill="#000000" transform="matrix(1.00, 0.00, -0.00, -1.00, 893.4, 348.7)">m</text><text xml:space="preserve" font-family="Consolas,Consolas" font-size="43.0" fill="#000000" transform="matrix(1.00, 0.00, -0.00, -1.00, 917.1, 348.7)">e</text><text xml:space="preserve" font-family="Consolas,Consolas" font-size="43.0" fill="#000000" transform="matrix(1.00, 0.00, -0.00, -1.00, 940.7, 348.7)">]</text><text xml:space="preserve" font-family="Consolas,Consolas" font-size="43.0" fill="#000000" transform="matrix(1.00, 0.00, -0.00, -1.00, 964.3, 348.7)">)</text><text xml:space="preserve" font-family="Consolas,Consolas" font-size="43.0" fill="#000000" transform="matrix(1.00, 0.00, -0.00, -1.00, 988.0, 348.7)">;</text><text xml:space="preserve" font-family="Consolas,Consolas" font-size="43.0" fill="#000000" transform="matrix(1.00, 0.00, -0.00, -1.00, 1011.6, 348.7)">	</text><text xml:space="preserve" font-family="Consolas,Consolas" font-size="43.0" fill="#000000" transform="matrix(1.00, 0.00, -0.00, -1.00, 1039.6, 348.7)"></text><text xml:space="preserve" font-family="Consolas,Consolas" font-size="43.0" fill="#000000" transform="matrix(1.00, 0.00, -0.00, -1.00, 1039.6, 348.7)"> </text><text xml:space="preserve" font-family="Consolas,Consolas" font-size="43.0" fill="#000000" transform="matrix(1.00, 0.00, -0.00, -1.00, 1063.2, 348.7)"> </text><text xml:space="preserve" font-family="Consolas,Consolas" font-size="43.0" fill="#851001" transform="matrix(1.00, 0.00, -0.00, -1.00, 39.3, 298.7)">g</text><text xml:space="preserve" font-family="Consolas,Consolas" font-size="43.0" fill="#851001" transform="matrix(1.00, 0.00, -0.00, -1.00, 62.9, 298.7)">r</text><text xml:space="preserve" font-family="Consolas,Consolas" font-size="43.0" fill="#851001" transform="matrix(1.00, 0.00, -0.00, -1.00, 86.6, 298.7)">e</text><text xml:space="preserve" font-family="Consolas,Consolas" font-size="43.0" fill="#851001" transform="matrix(1.00, 0.00, -0.00, -1.00, 110.2, 298.7)">e</text><text xml:space="preserve" font-family="Consolas,Consolas" font-size="43.0" fill="#851001" transform="matrix(1.00, 0.00, -0.00, -1.00, 133.8, 298.7)">t</text><text xml:space="preserve" font-family="Consolas,Consolas" font-size="43.0" fill="#000000" transform="matrix(1.00, 0.00, -0.00, -1.00, 157.5, 298.7)">(</text><text xml:space="preserve" font-family="Consolas,Consolas" font-size="43.0" fill="#000000" transform="matrix(1.00, 0.00, -0.00, -1.00, 181.2, 298.7)">_</text><text xml:space="preserve" font-family="Consolas,Consolas" font-size="43.0" fill="#000000" transform="matrix(1.00, 0.00, -0.00, -1.00, 204.8, 298.7)">,</text><text xml:space="preserve" font-family="Consolas,Consolas" font-size="43.0" fill="#000000" transform="matrix(1.00, 0.00, -0.00, -1.00, 228.4, 298.7)">	</text><text xml:space="preserve" font-family="Consolas,Consolas" font-size="43.0" fill="#000000" transform="matrix(1.00, 0.00, -0.00, -1.00, 256.4, 298.7)"></text><text xml:space="preserve" font-family="Consolas,Consolas" font-size="43.0" fill="#000000" transform="matrix(1.00, 0.00, -0.00, -1.00, 256.4, 298.7)"> </text><text xml:space="preserve" font-family="Consolas,Consolas" font-size="43.0" fill="#000000" transform="matrix(1.00, 0.00, -0.00, -1.00, 280.0, 298.7)"> </text><text xml:space="preserve" font-family="Consolas,Consolas" font-size="43.0" fill="#000000" transform="matrix(1.00, 0.00, -0.00, -1.00, 303.7, 298.7)">N</text><text xml:space="preserve" font-family="Consolas,Consolas" font-size="43.0" fill="#000000" transform="matrix(1.00, 0.00, -0.00, -1.00, 327.3, 298.7)">a</text><text xml:space="preserve" font-family="Consolas,Consolas" font-size="43.0" fill="#000000" transform="matrix(1.00, 0.00, -0.00, -1.00, 350.9, 298.7)">m</text><text xml:space="preserve" font-family="Consolas,Consolas" font-size="43.0" fill="#000000" transform="matrix(1.00, 0.00, -0.00, -1.00, 374.6, 298.7)">e</text><text xml:space="preserve" font-family="Consolas,Consolas" font-size="43.0" fill="#000000" transform="matrix(1.00, 0.00, -0.00, -1.00, 398.2, 298.7)">)</text><text xml:space="preserve" font-family="Consolas,Consolas" font-size="43.0" fill="#000000" transform="matrix(1.00, 0.00, -0.00, -1.00, 421.8, 298.7)">	</text><text xml:space="preserve" font-family="Consolas,Consolas" font-size="43.0" fill="#000000" transform="matrix(1.00, 0.00, -0.00, -1.00, 449.8, 298.7)"></text><text xml:space="preserve" font-family="Consolas,Consolas" font-size="43.0" fill="#000000" transform="matrix(1.00, 0.00, -0.00, -1.00, 449.8, 298.7)"> </text><text xml:space="preserve" font-family="Consolas,Consolas" font-size="43.0" fill="#000000" transform="matrix(1.00, 0.00, -0.00, -1.00, 473.5, 298.7)"> </text><text xml:space="preserve" font-family="Consolas,Consolas" font-size="43.0" fill="#000000" transform="matrix(1.00, 0.00, -0.00, -1.00, 497.1, 298.7)">-</text><text xml:space="preserve" font-family="Consolas,Consolas" font-size="43.0" fill="#000000" transform="matrix(1.00, 0.00, -0.00, -1.00, 520.7, 298.7)">­</text><text xml:space="preserve" font-family="Consolas,Consolas" font-size="43.0" fill="#000000" transform="matrix(1.00, 0.00, -0.00, -1.00, 520.7, 298.7)">‐</text><text xml:space="preserve" font-family="Consolas,Consolas" font-size="43.0" fill="#000000" transform="matrix(1.00, 0.00, -0.00, -1.00, 544.4, 298.7)">&gt;</text><text xml:space="preserve" font-family="Consolas,Consolas" font-size="43.0" fill="#000000" transform="matrix(1.00, 0.00, -0.00, -1.00, 568.0, 298.7)">	</text><text xml:space="preserve" font-family="Consolas,Consolas" font-size="43.0" fill="#000000" transform="matrix(1.00, 0.00, -0.00, -1.00, 596.0, 298.7)"></text><text xml:space="preserve" font-family="Consolas,Consolas" font-size="43.0" fill="#000000" transform="matrix(1.00, 0.00, -0.00, -1.00, 596.0, 298.7)"> </text><text xml:space="preserve" font-family="Consolas,Consolas" font-size="43.0" fill="#000000" transform="matrix(1.00, 0.00, -0.00, -1.00, 619.6, 298.7)"> </text><text xml:space="preserve" font-family="Consolas,Consolas" font-size="43.0" fill="#000000" transform="matrix(1.00, 0.00, -0.00, -1.00, 39.3, 248.7)">	</text><text xml:space="preserve" font-family="Consolas,Consolas" font-size="43.0" fill="#000000" transform="matrix(1.00, 0.00, -0.00, -1.00, 67.3, 248.7)"></text><text xml:space="preserve" font-family="Consolas,Consolas" font-size="43.0" fill="#000000" transform="matrix(1.00, 0.00, -0.00, -1.00, 67.3, 248.7)"> </text><text xml:space="preserve" font-family="Consolas,Consolas" font-size="43.0" fill="#000000" transform="matrix(1.00, 0.00, -0.00, -1.00, 113.3, 248.7)"> </text><text xml:space="preserve" font-family="Consolas,Consolas" font-size="43.0" fill="#000000" transform="matrix(1.00, 0.00, -0.00, -1.00, 159.3, 248.7)">i</text><text xml:space="preserve" font-family="Consolas,Consolas" font-size="43.0" fill="#000000" transform="matrix(1.00, 0.00, -0.00, -1.00, 182.9, 248.7)">o</text><text xml:space="preserve" font-family="Consolas,Consolas" font-size="43.0" fill="#000000" transform="matrix(1.00, 0.00, -0.00, -1.00, 206.6, 248.7)">:</text><text xml:space="preserve" font-family="Consolas,Consolas" font-size="43.0" fill="#000000" transform="matrix(1.00, 0.00, -0.00, -1.00, 230.2, 248.7)">f</text><text xml:space="preserve" font-family="Consolas,Consolas" font-size="43.0" fill="#000000" transform="matrix(1.00, 0.00, -0.00, -1.00, 253.8, 248.7)">o</text><text xml:space="preserve" font-family="Consolas,Consolas" font-size="43.0" fill="#000000" transform="matrix(1.00, 0.00, -0.00, -1.00, 277.5, 248.7)">r</text><text xml:space="preserve" font-family="Consolas,Consolas" font-size="43.0" fill="#000000" transform="matrix(1.00, 0.00, -0.00, -1.00, 301.1, 248.7)">m</text><text xml:space="preserve" font-family="Consolas,Consolas" font-size="43.0" fill="#000000" transform="matrix(1.00, 0.00, -0.00, -1.00, 324.7, 248.7)">a</text><text xml:space="preserve" font-family="Consolas,Consolas" font-size="43.0" fill="#000000" transform="matrix(1.00, 0.00, -0.00, -1.00, 348.4, 248.7)">t</text><text xml:space="preserve" font-family="Consolas,Consolas" font-size="43.0" fill="#000000" transform="matrix(1.00, 0.00, -0.00, -1.00, 372.0, 248.7)">(</text><text xml:space="preserve" font-family="Consolas,Consolas" font-size="43.0" fill="#000000" transform="matrix(1.00, 0.00, -0.00, -1.00, 395.6, 248.7)">"</text><text xml:space="preserve" font-family="Consolas,Consolas" font-size="43.0" fill="#BD5A0C" transform="matrix(1.00, 0.00, -0.00, -1.00, 345.4, 248.7)">H</text><text xml:space="preserve" font-family="Consolas,Consolas" font-size="43.0" fill="#BD5A0C" transform="matrix(1.00, 0.00, -0.00, -1.00, 369.0, 248.7)">e</text><text xml:space="preserve" font-family="Consolas,Consolas" font-size="43.0" fill="#BD5A0C" transform="matrix(1.00, 0.00, -0.00, -1.00, 392.6, 248.7)">l</text><text xml:space="preserve" font-family="Consolas,Consolas" font-size="43.0" fill="#BD5A0C" transform="matrix(1.00, 0.00, -0.00, -1.00, 416.3, 248.7)">l</text><text xml:space="preserve" font-family="Consolas,Consolas" font-size="43.0" fill="#BD5A0C" transform="matrix(1.00, 0.00, -0.00, -1.00, 439.9, 248.7)">o</text><text xml:space="preserve" font-family="Consolas,Consolas" font-size="43.0" fill="#BD5A0C" transform="matrix(1.00, 0.00, -0.00, -1.00, 463.5, 248.7)">,</text><text xml:space="preserve" font-family="Consolas,Consolas" font-size="43.0" fill="#BD5A0C" transform="matrix(1.00, 0.00, -0.00, -1.00, 487.2, 248.7)">	</text><text xml:space="preserve" font-family="Consolas,Consolas" font-size="43.0" fill="#BD5A0C" transform="matrix(1.00, 0.00, -0.00, -1.00, 515.2, 248.7)"></text><text xml:space="preserve" font-family="Consolas,Consolas" font-size="43.0" fill="#BD5A0C" transform="matrix(1.00, 0.00, -0.00, -1.00, 515.2, 248.7)"> </text><text xml:space="preserve" font-family="Consolas,Consolas" font-size="43.0" fill="#BD5A0C" transform="matrix(1.00, 0.00, -0.00, -1.00, 538.8, 248.7)"> </text><text xml:space="preserve" font-family="Consolas,Consolas" font-size="43.0" fill="#BD5A0C" transform="matrix(1.00, 0.00, -0.00, -1.00, 562.4, 248.7)">~</text><text xml:space="preserve" font-family="Consolas,Consolas" font-size="43.0" fill="#BD5A0C" transform="matrix(1.00, 0.00, -0.00, -1.00, 586.1, 248.7)">s</text><text xml:space="preserve" font-family="Consolas,Consolas" font-size="43.0" fill="#BD5A0C" transform="matrix(1.00, 0.00, -0.00, -1.00, 609.7, 248.7)">!</text><text xml:space="preserve" font-family="Consolas,Consolas" font-size="43.0" fill="#000000" transform="matrix(1.00, 0.00, -0.00, -1.00, 581.8, 248.7)">"</text><text xml:space="preserve" font-family="Consolas,Consolas" font-size="43.0" fill="#000000" transform="matrix(1.00, 0.00, -0.00, -1.00, 605.4, 248.7)">,</text><text xml:space="preserve" font-family="Consolas,Consolas" font-size="43.0" fill="#000000" transform="matrix(1.00, 0.00, -0.00, -1.00, 629.0, 248.7)">	</text><text xml:space="preserve" font-family="Consolas,Consolas" font-size="43.0" fill="#000000" transform="matrix(1.00, 0.00, -0.00, -1.00, 657.0, 248.7)"></text><text xml:space="preserve" font-family="Consolas,Consolas" font-size="43.0" fill="#000000" transform="matrix(1.00, 0.00, -0.00, -1.00, 657.0, 248.7)"> </text><text xml:space="preserve" font-family="Consolas,Consolas" font-size="43.0" fill="#000000" transform="matrix(1.00, 0.00, -0.00, -1.00, 680.7, 248.7)"> </text><text xml:space="preserve" font-family="Consolas,Consolas" font-size="43.0" fill="#000000" transform="matrix(1.00, 0.00, -0.00, -1.00, 704.3, 248.7)">[</text><text xml:space="preserve" font-family="Consolas,Consolas" font-size="43.0" fill="#000000" transform="matrix(1.00, 0.00, -0.00, -1.00, 727.9, 248.7)">N</text><text xml:space="preserve" font-family="Consolas,Consolas" font-size="43.0" fill="#000000" transform="matrix(1.00, 0.00, -0.00, -1.00, 751.6, 248.7)">a</text><text xml:space="preserve" font-family="Consolas,Consolas" font-size="43.0" fill="#000000" transform="matrix(1.00, 0.00, -0.00, -1.00, 775.2, 248.7)">m</text><text xml:space="preserve" font-family="Consolas,Consolas" font-size="43.0" fill="#000000" transform="matrix(1.00, 0.00, -0.00, -1.00, 798.8, 248.7)">e</text><text xml:space="preserve" font-family="Consolas,Consolas" font-size="43.0" fill="#000000" transform="matrix(1.00, 0.00, -0.00, -1.00, 822.5, 248.7)">]</text><text xml:space="preserve" font-family="Consolas,Consolas" font-size="43.0" fill="#000000" transform="matrix(1.00, 0.00, -0.00, -1.00, 846.1, 248.7)">)</text><text xml:space="preserve" font-family="Consolas,Consolas" font-size="43.0" fill="#000000" transform="matrix(1.00, 0.00, -0.00, -1.00, 869.7, 248.7)">.</text></g></g></g></svg>