<?xml version="1.0" encoding="UTF-8" standalone="no"?><svg xmlns="http://www.w3.org/2000/svg" xmlns:xlink="http://www.w3.org/1999/xlink" clip-rule="evenodd" stroke-miterlimit="10" viewBox="0 0 1024 768"><desc>SVG generated by Keynote</desc><defs></defs><g transform="matrix(1.00, 0.00, -0.00, -1.00, 0.0, 768.0)"><path d="M 0.0 768.0 L 1024.0 768.0 L 1024.0 0.0 L 0.0 0.0 Z M 0.0 768.0 " fill="#FEFFFF"></path><text xml:space="preserve" font-family="Helvetica-Light,Helvetica" font-size="50.0" fill="#000000" transform="matrix(1.00, 0.00, -0.00, -1.00, 321.2, 679.9)">P</text><text xml:space="preserve" font-family="Helvetica-Light,Helvetica" font-size="50.0" fill="#000000" transform="matrix(1.00, 0.00, -0.00, -1.00, 351.8, 679.9)">a</text><text xml:space="preserve" font-family="Helvetica-Light,Helvetica" font-size="50.0" fill="#000000" transform="matrix(1.00, 0.00, -0.00, -1.00, 379.6, 679.9)">t</text><text xml:space="preserve" font-family="Helvetica-Light,Helvetica" font-size="50.0" fill="#000000" transform="matrix(1.00, 0.00, -0.00, -1.00, 393.5, 679.9)">t</text><text xml:space="preserve" font-family="Helvetica-Light,Helvetica" font-size="50.0" fill="#000000" transform="matrix(1.00, 0.00, -0.00, -1.00, 407.4, 679.9)">e</text><text xml:space="preserve" font-family="Helvetica-Light,Helvetica" font-size="50.0" fill="#000000" transform="matrix(1.00, 0.00, -0.00, -1.00, 435.2, 679.9)">r</text><text xml:space="preserve" font-family="Helvetica-Light,Helvetica" font-size="50.0" fill="#000000" transform="matrix(1.00, 0.00, -0.00, -1.00, 452.7, 679.9)">n</text><text xml:space="preserve" font-family="Helvetica-Light,Helvetica" font-size="50.0" fill="#000000" transform="matrix(1.00, 0.00, -0.00, -1.00, 480.5, 679.9)"> </text><text xml:space="preserve" font-family="Helvetica-Light,Helvetica" font-size="50.0" fill="#000000" transform="matrix(1.00, 0.00, -0.00, -1.00, 494.4, 679.9)">M</text><text xml:space="preserve" font-family="Helvetica-Light,Helvetica" font-size="50.0" fill="#000000" transform="matrix(1.00, 0.00, -0.00, -1.00, 536.1, 679.9)">a</text><text xml:space="preserve" font-family="Helvetica-Light,Helvetica" font-size="50.0" fill="#000000" transform="matrix(1.00, 0.00, -0.00, -1.00, 563.9, 679.9)">t</text><text xml:space="preserve" font-family="Helvetica-Light,Helvetica" font-size="50.0" fill="#000000" transform="matrix(1.00, 0.00, -0.00, -1.00, 577.8, 679.9)">c</text><text xml:space="preserve" font-family="Helvetica-Light,Helvetica" font-size="50.0" fill="#000000" transform="matrix(1.00, 0.00, -0.00, -1.00, 605.6, 679.9)">h</text><text xml:space="preserve" font-family="Helvetica-Light,Helvetica" font-size="50.0" fill="#000000" transform="matrix(1.00, 0.00, -0.00, -1.00, 633.4, 679.9)">i</text><text xml:space="preserve" font-family="Helvetica-Light,Helvetica" font-size="50.0" fill="#000000" transform="matrix(1.00, 0.00, -0.00, -1.00, 644.5, 679.9)">n</text><text xml:space="preserve" font-family="Helvetica-Light,Helvetica" font-size="50.0" fill="#000000" transform="matrix(1.00, 0.00, -0.00, -1.00, 672.3, 679.9)">g</text><path d="M 83.0 556.0 L 485.0 556.0 L 485.0 212.0 L 83.0 212.0 Z M 83.4 555.9 " fill="#DCDDE0"></path><g><clipPath id="clip0x7ff5301c0e50"><path d="M 76.9 198.4 L 865.8 198.4 L 865.8 562.4 L 76.9 562.4 Z M 76.9 198.4 "></path></clipPath><g clip-path="url(#clip0x7ff5301c0e50)"><text xml:space="preserve" font-family="Consolas,Consolas" font-size="42.0" fill="#000000" transform="matrix(1.00, 0.00, -0.00, -1.00, 87.4, 520.9)">f</text><text xml:space="preserve" font-family="Consolas,Consolas" font-size="42.0" fill="#000000" transform="matrix(1.00, 0.00, -0.00, -1.00, 110.5, 520.9)">u</text><text xml:space="preserve" font-family="Consolas,Consolas" font-size="42.0" fill="#000000" transform="matrix(1.00, 0.00, -0.00, -1.00, 133.6, 520.9)">n</text><text xml:space="preserve" font-family="Consolas,Consolas" font-size="42.0" fill="#000000" transform="matrix(1.00, 0.00, -0.00, -1.00, 156.7, 520.9)">c</text><text xml:space="preserve" font-family="Consolas,Consolas" font-size="42.0" fill="#000000" transform="matrix(1.00, 0.00, -0.00, -1.00, 179.8, 520.9)">t</text><text xml:space="preserve" font-family="Consolas,Consolas" font-size="42.0" fill="#000000" transform="matrix(1.00, 0.00, -0.00, -1.00, 202.9, 520.9)">i</text><text xml:space="preserve" font-family="Consolas,Consolas" font-size="42.0" fill="#000000" transform="matrix(1.00, 0.00, -0.00, -1.00, 225.9, 520.9)">o</text><text xml:space="preserve" font-family="Consolas,Consolas" font-size="42.0" fill="#000000" transform="matrix(1.00, 0.00, -0.00, -1.00, 249.0, 520.9)">n</text><text xml:space="preserve" font-family="Consolas,Consolas" font-size="42.0" fill="#000000" transform="matrix(1.00, 0.00, -0.00, -1.00, 272.1, 520.9)">(</text><text xml:space="preserve" font-family="Consolas,Consolas" font-size="42.0" fill="#BD5A0C" transform="matrix(1.00, 0.00, -0.00, -1.00, 295.3, 520.9)">A</text><text xml:space="preserve" font-family="Consolas,Consolas" font-size="42.0" fill="#BD5A0C" transform="matrix(1.00, 0.00, -0.00, -1.00, 318.4, 520.9)">r</text><text xml:space="preserve" font-family="Consolas,Consolas" font-size="42.0" fill="#BD5A0C" transform="matrix(1.00, 0.00, -0.00, -1.00, 341.4, 520.9)">g</text><text xml:space="preserve" font-family="Consolas,Consolas" font-size="42.0" fill="#BD5A0C" transform="matrix(1.00, 0.00, -0.00, -1.00, 364.5, 520.9)">s</text><text xml:space="preserve" font-family="Consolas,Consolas" font-size="42.0" fill="#000000" transform="matrix(1.00, 0.00, -0.00, -1.00, 387.6, 520.9)">)</text><text xml:space="preserve" font-family="Consolas,Consolas" font-size="42.0" fill="#000000" transform="matrix(1.00, 0.00, -0.00, -1.00, 410.7, 520.9)">	</text><text xml:space="preserve" font-family="Consolas,Consolas" font-size="42.0" fill="#000000" transform="matrix(1.00, 0.00, -0.00, -1.00, 438.7, 520.9)"></text><text xml:space="preserve" font-family="Consolas,Consolas" font-size="42.0" fill="#000000" transform="matrix(1.00, 0.00, -0.00, -1.00, 438.7, 520.9)"> </text><text xml:space="preserve" font-family="Consolas,Consolas" font-size="42.0" fill="#000000" transform="matrix(1.00, 0.00, -0.00, -1.00, 461.8, 520.9)"> </text><text xml:space="preserve" font-family="Consolas,Consolas" font-size="42.0" fill="#000000" transform="matrix(1.00, 0.00, -0.00, -1.00, 87.4, 471.9)">	</text><text xml:space="preserve" font-family="Consolas,Consolas" font-size="42.0" fill="#000000" transform="matrix(1.00, 0.00, -0.00, -1.00, 115.4, 471.9)"></text><text xml:space="preserve" font-family="Consolas,Consolas" font-size="42.0" fill="#000000" transform="matrix(1.00, 0.00, -0.00, -1.00, 115.4, 471.9)"> </text><text xml:space="preserve" font-family="Consolas,Consolas" font-size="42.0" fill="#000000" transform="matrix(1.00, 0.00, -0.00, -1.00, 161.4, 471.9)"> </text><text xml:space="preserve" font-family="Consolas,Consolas" font-size="42.0" fill="#000000" transform="matrix(1.00, 0.00, -0.00, -1.00, 207.4, 471.9)">i</text><text xml:space="preserve" font-family="Consolas,Consolas" font-size="42.0" fill="#000000" transform="matrix(1.00, 0.00, -0.00, -1.00, 230.5, 471.9)">f</text><text xml:space="preserve" font-family="Consolas,Consolas" font-size="42.0" fill="#000000" transform="matrix(1.00, 0.00, -0.00, -1.00, 253.6, 471.9)">	</text><text xml:space="preserve" font-family="Consolas,Consolas" font-size="42.0" fill="#000000" transform="matrix(1.00, 0.00, -0.00, -1.00, 281.6, 471.9)"></text><text xml:space="preserve" font-family="Consolas,Consolas" font-size="42.0" fill="#000000" transform="matrix(1.00, 0.00, -0.00, -1.00, 281.6, 471.9)"> </text><text xml:space="preserve" font-family="Consolas,Consolas" font-size="42.0" fill="#000000" transform="matrix(1.00, 0.00, -0.00, -1.00, 327.6, 471.9)"> </text><text xml:space="preserve" font-family="Consolas,Consolas" font-size="42.0" fill="#763E9B" transform="matrix(1.00, 0.00, -0.00, -1.00, 202.7, 471.9)">X</text><text xml:space="preserve" font-family="Consolas,Consolas" font-size="42.0" fill="#000000" transform="matrix(1.00, 0.00, -0.00, -1.00, 225.8, 471.9)">	</text><text xml:space="preserve" font-family="Consolas,Consolas" font-size="42.0" fill="#000000" transform="matrix(1.00, 0.00, -0.00, -1.00, 253.8, 471.9)"></text><text xml:space="preserve" font-family="Consolas,Consolas" font-size="42.0" fill="#000000" transform="matrix(1.00, 0.00, -0.00, -1.00, 253.8, 471.9)"> </text><text xml:space="preserve" font-family="Consolas,Consolas" font-size="42.0" fill="#000000" transform="matrix(1.00, 0.00, -0.00, -1.00, 276.9, 471.9)"> </text><text xml:space="preserve" font-family="Consolas,Consolas" font-size="42.0" fill="#000000" transform="matrix(1.00, 0.00, -0.00, -1.00, 300.0, 471.9)">t</text><text xml:space="preserve" font-family="Consolas,Consolas" font-size="42.0" fill="#000000" transform="matrix(1.00, 0.00, -0.00, -1.00, 323.1, 471.9)">h</text><text xml:space="preserve" font-family="Consolas,Consolas" font-size="42.0" fill="#000000" transform="matrix(1.00, 0.00, -0.00, -1.00, 346.1, 471.9)">e</text><text xml:space="preserve" font-family="Consolas,Consolas" font-size="42.0" fill="#000000" transform="matrix(1.00, 0.00, -0.00, -1.00, 369.2, 471.9)">n</text><text xml:space="preserve" font-family="Consolas,Consolas" font-size="42.0" fill="#000000" transform="matrix(1.00, 0.00, -0.00, -1.00, 392.3, 471.9)">	</text><text xml:space="preserve" font-family="Consolas,Consolas" font-size="42.0" fill="#000000" transform="matrix(1.00, 0.00, -0.00, -1.00, 420.3, 471.9)"></text><text xml:space="preserve" font-family="Consolas,Consolas" font-size="42.0" fill="#000000" transform="matrix(1.00, 0.00, -0.00, -1.00, 420.3, 471.9)"> </text><text xml:space="preserve" font-family="Consolas,Consolas" font-size="42.0" fill="#000000" transform="matrix(1.00, 0.00, -0.00, -1.00, 443.4, 471.9)"> </text><text xml:space="preserve" font-family="Consolas,Consolas" font-size="42.0" fill="#000000" transform="matrix(1.00, 0.00, -0.00, -1.00, 87.4, 422.9)">	</text><text xml:space="preserve" font-family="Consolas,Consolas" font-size="42.0" fill="#000000" transform="matrix(1.00, 0.00, -0.00, -1.00, 115.4, 422.9)"></text><text xml:space="preserve" font-family="Consolas,Consolas" font-size="42.0" fill="#000000" transform="matrix(1.00, 0.00, -0.00, -1.00, 115.4, 422.9)"> </text><text xml:space="preserve" font-family="Consolas,Consolas" font-size="42.0" fill="#000000" transform="matrix(1.00, 0.00, -0.00, -1.00, 161.4, 422.9)"> </text><text xml:space="preserve" font-family="Consolas,Consolas" font-size="42.0" fill="#000000" transform="matrix(1.00, 0.00, -0.00, -1.00, 207.4, 422.9)">	</text><text xml:space="preserve" font-family="Consolas,Consolas" font-size="42.0" fill="#000000" transform="matrix(1.00, 0.00, -0.00, -1.00, 235.4, 422.9)"></text><text xml:space="preserve" font-family="Consolas,Consolas" font-size="42.0" fill="#000000" transform="matrix(1.00, 0.00, -0.00, -1.00, 235.4, 422.9)"> </text><text xml:space="preserve" font-family="Consolas,Consolas" font-size="42.0" fill="#000000" transform="matrix(1.00, 0.00, -0.00, -1.00, 281.4, 422.9)"> </text><text xml:space="preserve" font-family="Consolas,Consolas" font-size="42.0" fill="#0B5C18" transform="matrix(1.00, 0.00, -0.00, -1.00, 179.4, 422.9)">E</text><text xml:space="preserve" font-family="Consolas,Consolas" font-size="42.0" fill="#0B5C18" transform="matrix(1.00, 0.00, -0.00, -1.00, 202.5, 422.9)">x</text><text xml:space="preserve" font-family="Consolas,Consolas" font-size="42.0" fill="#0B5C18" transform="matrix(1.00, 0.00, -0.00, -1.00, 225.6, 422.9)">p</text><text xml:space="preserve" font-family="Consolas,Consolas" font-size="42.0" fill="#0B5C18" transform="matrix(1.00, 0.00, -0.00, -1.00, 248.7, 422.9)">r</text><text xml:space="preserve" font-family="Consolas,Consolas" font-size="42.0" fill="#0B5C18" transform="matrix(1.00, 0.00, -0.00, -1.00, 271.8, 422.9)">e</text><text xml:space="preserve" font-family="Consolas,Consolas" font-size="42.0" fill="#0B5C18" transform="matrix(1.00, 0.00, -0.00, -1.00, 294.9, 422.9)">s</text><text xml:space="preserve" font-family="Consolas,Consolas" font-size="42.0" fill="#0B5C18" transform="matrix(1.00, 0.00, -0.00, -1.00, 317.9, 422.9)">s</text><text xml:space="preserve" font-family="Consolas,Consolas" font-size="42.0" fill="#0B5C18" transform="matrix(1.00, 0.00, -0.00, -1.00, 341.0, 422.9)">i</text><text xml:space="preserve" font-family="Consolas,Consolas" font-size="42.0" fill="#0B5C18" transform="matrix(1.00, 0.00, -0.00, -1.00, 364.1, 422.9)">o</text><text xml:space="preserve" font-family="Consolas,Consolas" font-size="42.0" fill="#0B5C18" transform="matrix(1.00, 0.00, -0.00, -1.00, 387.2, 422.9)">n</text><text xml:space="preserve" font-family="Consolas,Consolas" font-size="42.0" fill="#000000" transform="matrix(1.00, 0.00, -0.00, -1.00, 410.4, 422.9)">	</text><text xml:space="preserve" font-family="Consolas,Consolas" font-size="42.0" fill="#000000" transform="matrix(1.00, 0.00, -0.00, -1.00, 438.4, 422.9)"></text><text xml:space="preserve" font-family="Consolas,Consolas" font-size="42.0" fill="#000000" transform="matrix(1.00, 0.00, -0.00, -1.00, 438.4, 422.9)"> </text><text xml:space="preserve" font-family="Consolas,Consolas" font-size="42.0" fill="#000000" transform="matrix(1.00, 0.00, -0.00, -1.00, 461.5, 422.9)"> </text><text xml:space="preserve" font-family="Consolas,Consolas" font-size="42.0" fill="#000000" transform="matrix(1.00, 0.00, -0.00, -1.00, 87.4, 373.9)">	</text><text xml:space="preserve" font-family="Consolas,Consolas" font-size="42.0" fill="#000000" transform="matrix(1.00, 0.00, -0.00, -1.00, 115.4, 373.9)"></text><text xml:space="preserve" font-family="Consolas,Consolas" font-size="42.0" fill="#000000" transform="matrix(1.00, 0.00, -0.00, -1.00, 115.4, 373.9)"> </text><text xml:space="preserve" font-family="Consolas,Consolas" font-size="42.0" fill="#000000" transform="matrix(1.00, 0.00, -0.00, -1.00, 161.4, 373.9)"> </text><text xml:space="preserve" font-family="Consolas,Consolas" font-size="42.0" fill="#000000" transform="matrix(1.00, 0.00, -0.00, -1.00, 207.4, 373.9)">e</text><text xml:space="preserve" font-family="Consolas,Consolas" font-size="42.0" fill="#000000" transform="matrix(1.00, 0.00, -0.00, -1.00, 230.5, 373.9)">l</text><text xml:space="preserve" font-family="Consolas,Consolas" font-size="42.0" fill="#000000" transform="matrix(1.00, 0.00, -0.00, -1.00, 253.6, 373.9)">s</text><text xml:space="preserve" font-family="Consolas,Consolas" font-size="42.0" fill="#000000" transform="matrix(1.00, 0.00, -0.00, -1.00, 276.7, 373.9)">e</text><text xml:space="preserve" font-family="Consolas,Consolas" font-size="42.0" fill="#000000" transform="matrix(1.00, 0.00, -0.00, -1.00, 299.8, 373.9)">	</text><text xml:space="preserve" font-family="Consolas,Consolas" font-size="42.0" fill="#000000" transform="matrix(1.00, 0.00, -0.00, -1.00, 327.8, 373.9)"></text><text xml:space="preserve" font-family="Consolas,Consolas" font-size="42.0" fill="#000000" transform="matrix(1.00, 0.00, -0.00, -1.00, 327.8, 373.9)"> </text><text xml:space="preserve" font-family="Consolas,Consolas" font-size="42.0" fill="#000000" transform="matrix(1.00, 0.00, -0.00, -1.00, 373.8, 373.9)"> </text><text xml:space="preserve" font-family="Consolas,Consolas" font-size="42.0" fill="#000000" transform="matrix(1.00, 0.00, -0.00, -1.00, 396.9, 373.9)">i</text><text xml:space="preserve" font-family="Consolas,Consolas" font-size="42.0" fill="#000000" transform="matrix(1.00, 0.00, -0.00, -1.00, 420.0, 373.9)">f</text><text xml:space="preserve" font-family="Consolas,Consolas" font-size="42.0" fill="#000000" transform="matrix(1.00, 0.00, -0.00, -1.00, 443.1, 373.9)">	</text><text xml:space="preserve" font-family="Consolas,Consolas" font-size="42.0" fill="#000000" transform="matrix(1.00, 0.00, -0.00, -1.00, 471.1, 373.9)"></text><text xml:space="preserve" font-family="Consolas,Consolas" font-size="42.0" fill="#000000" transform="matrix(1.00, 0.00, -0.00, -1.00, 471.1, 373.9)"> </text><text xml:space="preserve" font-family="Consolas,Consolas" font-size="42.0" fill="#000000" transform="matrix(1.00, 0.00, -0.00, -1.00, 517.1, 373.9)"> </text><text xml:space="preserve" font-family="Consolas,Consolas" font-size="42.0" fill="#763E9B" transform="matrix(1.00, 0.00, -0.00, -1.00, 318.2, 373.9)">Y</text><text xml:space="preserve" font-family="Consolas,Consolas" font-size="42.0" fill="#000000" transform="matrix(1.00, 0.00, -0.00, -1.00, 341.3, 373.9)">	</text><text xml:space="preserve" font-family="Consolas,Consolas" font-size="42.0" fill="#000000" transform="matrix(1.00, 0.00, -0.00, -1.00, 369.3, 373.9)"></text><text xml:space="preserve" font-family="Consolas,Consolas" font-size="42.0" fill="#000000" transform="matrix(1.00, 0.00, -0.00, -1.00, 369.3, 373.9)"> </text><text xml:space="preserve" font-family="Consolas,Consolas" font-size="42.0" fill="#000000" transform="matrix(1.00, 0.00, -0.00, -1.00, 392.4, 373.9)"> </text><text xml:space="preserve" font-family="Consolas,Consolas" font-size="42.0" fill="#000000" transform="matrix(1.00, 0.00, -0.00, -1.00, 415.4, 373.9)">t</text><text xml:space="preserve" font-family="Consolas,Consolas" font-size="42.0" fill="#000000" transform="matrix(1.00, 0.00, -0.00, -1.00, 438.5, 373.9)">h</text><text xml:space="preserve" font-family="Consolas,Consolas" font-size="42.0" fill="#000000" transform="matrix(1.00, 0.00, -0.00, -1.00, 461.6, 373.9)">e</text><text xml:space="preserve" font-family="Consolas,Consolas" font-size="42.0" fill="#000000" transform="matrix(1.00, 0.00, -0.00, -1.00, 484.7, 373.9)">n</text><text xml:space="preserve" font-family="Consolas,Consolas" font-size="42.0" fill="#000000" transform="matrix(1.00, 0.00, -0.00, -1.00, 507.8, 373.9)">	</text><text xml:space="preserve" font-family="Consolas,Consolas" font-size="42.0" fill="#000000" transform="matrix(1.00, 0.00, -0.00, -1.00, 535.8, 373.9)"></text><text xml:space="preserve" font-family="Consolas,Consolas" font-size="42.0" fill="#000000" transform="matrix(1.00, 0.00, -0.00, -1.00, 535.8, 373.9)"> </text><text xml:space="preserve" font-family="Consolas,Consolas" font-size="42.0" fill="#000000" transform="matrix(1.00, 0.00, -0.00, -1.00, 558.9, 373.9)"> </text><text xml:space="preserve" font-family="Consolas,Consolas" font-size="42.0" fill="#000000" transform="matrix(1.00, 0.00, -0.00, -1.00, 87.4, 324.9)">	</text><text xml:space="preserve" font-family="Consolas,Consolas" font-size="42.0" fill="#000000" transform="matrix(1.00, 0.00, -0.00, -1.00, 115.4, 324.9)"></text><text xml:space="preserve" font-family="Consolas,Consolas" font-size="42.0" fill="#000000" transform="matrix(1.00, 0.00, -0.00, -1.00, 115.4, 324.9)"> </text><text xml:space="preserve" font-family="Consolas,Consolas" font-size="42.0" fill="#000000" transform="matrix(1.00, 0.00, -0.00, -1.00, 161.4, 324.9)"> </text><text xml:space="preserve" font-family="Consolas,Consolas" font-size="42.0" fill="#000000" transform="matrix(1.00, 0.00, -0.00, -1.00, 207.4, 324.9)">	</text><text xml:space="preserve" font-family="Consolas,Consolas" font-size="42.0" fill="#000000" transform="matrix(1.00, 0.00, -0.00, -1.00, 235.4, 324.9)"></text><text xml:space="preserve" font-family="Consolas,Consolas" font-size="42.0" fill="#000000" transform="matrix(1.00, 0.00, -0.00, -1.00, 235.4, 324.9)"> </text><text xml:space="preserve" font-family="Consolas,Consolas" font-size="42.0" fill="#000000" transform="matrix(1.00, 0.00, -0.00, -1.00, 281.4, 324.9)"> </text><text xml:space="preserve" font-family="Consolas,Consolas" font-size="42.0" fill="#0B5C18" transform="matrix(1.00, 0.00, -0.00, -1.00, 179.4, 324.9)">E</text><text xml:space="preserve" font-family="Consolas,Consolas" font-size="42.0" fill="#0B5C18" transform="matrix(1.00, 0.00, -0.00, -1.00, 202.5, 324.9)">x</text><text xml:space="preserve" font-family="Consolas,Consolas" font-size="42.0" fill="#0B5C18" transform="matrix(1.00, 0.00, -0.00, -1.00, 225.6, 324.9)">p</text><text xml:space="preserve" font-family="Consolas,Consolas" font-size="42.0" fill="#0B5C18" transform="matrix(1.00, 0.00, -0.00, -1.00, 248.7, 324.9)">r</text><text xml:space="preserve" font-family="Consolas,Consolas" font-size="42.0" fill="#0B5C18" transform="matrix(1.00, 0.00, -0.00, -1.00, 271.8, 324.9)">e</text><text xml:space="preserve" font-family="Consolas,Consolas" font-size="42.0" fill="#0B5C18" transform="matrix(1.00, 0.00, -0.00, -1.00, 294.9, 324.9)">s</text><text xml:space="preserve" font-family="Consolas,Consolas" font-size="42.0" fill="#0B5C18" transform="matrix(1.00, 0.00, -0.00, -1.00, 317.9, 324.9)">s</text><text xml:space="preserve" font-family="Consolas,Consolas" font-size="42.0" fill="#0B5C18" transform="matrix(1.00, 0.00, -0.00, -1.00, 341.0, 324.9)">i</text><text xml:space="preserve" font-family="Consolas,Consolas" font-size="42.0" fill="#0B5C18" transform="matrix(1.00, 0.00, -0.00, -1.00, 364.1, 324.9)">o</text><text xml:space="preserve" font-family="Consolas,Consolas" font-size="42.0" fill="#0B5C18" transform="matrix(1.00, 0.00, -0.00, -1.00, 387.2, 324.9)">n</text><text xml:space="preserve" font-family="Consolas,Consolas" font-size="42.0" fill="#000000" transform="matrix(1.00, 0.00, -0.00, -1.00, 410.4, 324.9)">	</text><text xml:space="preserve" font-family="Consolas,Consolas" font-size="42.0" fill="#000000" transform="matrix(1.00, 0.00, -0.00, -1.00, 438.4, 324.9)"></text><text xml:space="preserve" font-family="Consolas,Consolas" font-size="42.0" fill="#000000" transform="matrix(1.00, 0.00, -0.00, -1.00, 438.4, 324.9)"> </text><text xml:space="preserve" font-family="Consolas,Consolas" font-size="42.0" fill="#000000" transform="matrix(1.00, 0.00, -0.00, -1.00, 461.5, 324.9)"> </text><text xml:space="preserve" font-family="Consolas,Consolas" font-size="42.0" fill="#000000" transform="matrix(1.00, 0.00, -0.00, -1.00, 87.4, 275.9)">	</text><text xml:space="preserve" font-family="Consolas,Consolas" font-size="42.0" fill="#000000" transform="matrix(1.00, 0.00, -0.00, -1.00, 115.4, 275.9)"></text><text xml:space="preserve" font-family="Consolas,Consolas" font-size="42.0" fill="#000000" transform="matrix(1.00, 0.00, -0.00, -1.00, 115.4, 275.9)"> </text><text xml:space="preserve" font-family="Consolas,Consolas" font-size="42.0" fill="#000000" transform="matrix(1.00, 0.00, -0.00, -1.00, 138.5, 275.9)"> </text><text xml:space="preserve" font-family="Consolas,Consolas" font-size="42.0" fill="#000000" transform="matrix(1.00, 0.00, -0.00, -1.00, 133.4, 275.9)">e</text><text xml:space="preserve" font-family="Consolas,Consolas" font-size="42.0" fill="#000000" transform="matrix(1.00, 0.00, -0.00, -1.00, 156.5, 275.9)">l</text><text xml:space="preserve" font-family="Consolas,Consolas" font-size="42.0" fill="#000000" transform="matrix(1.00, 0.00, -0.00, -1.00, 179.6, 275.9)">s</text><text xml:space="preserve" font-family="Consolas,Consolas" font-size="42.0" fill="#000000" transform="matrix(1.00, 0.00, -0.00, -1.00, 202.7, 275.9)">e</text><text xml:space="preserve" font-family="Consolas,Consolas" font-size="42.0" fill="#000000" transform="matrix(1.00, 0.00, -0.00, -1.00, 225.8, 275.9)">	</text><text xml:space="preserve" font-family="Consolas,Consolas" font-size="42.0" fill="#000000" transform="matrix(1.00, 0.00, -0.00, -1.00, 253.8, 275.9)"></text><text xml:space="preserve" font-family="Consolas,Consolas" font-size="42.0" fill="#000000" transform="matrix(1.00, 0.00, -0.00, -1.00, 253.8, 275.9)"> </text><text xml:space="preserve" font-family="Consolas,Consolas" font-size="42.0" fill="#000000" transform="matrix(1.00, 0.00, -0.00, -1.00, 276.9, 275.9)"> </text><text xml:space="preserve" font-family="Consolas,Consolas" font-size="42.0" fill="#000000" transform="matrix(1.00, 0.00, -0.00, -1.00, 87.4, 226.9)">	</text><text xml:space="preserve" font-family="Consolas,Consolas" font-size="42.0" fill="#000000" transform="matrix(1.00, 0.00, -0.00, -1.00, 115.4, 226.9)"></text><text xml:space="preserve" font-family="Consolas,Consolas" font-size="42.0" fill="#000000" transform="matrix(1.00, 0.00, -0.00, -1.00, 115.4, 226.9)"> </text><text xml:space="preserve" font-family="Consolas,Consolas" font-size="42.0" fill="#000000" transform="matrix(1.00, 0.00, -0.00, -1.00, 161.4, 226.9)"> </text><text xml:space="preserve" font-family="Consolas,Consolas" font-size="42.0" fill="#000000" transform="matrix(1.00, 0.00, -0.00, -1.00, 207.4, 226.9)">	</text><text xml:space="preserve" font-family="Consolas,Consolas" font-size="42.0" fill="#000000" transform="matrix(1.00, 0.00, -0.00, -1.00, 235.4, 226.9)"></text><text xml:space="preserve" font-family="Consolas,Consolas" font-size="42.0" fill="#000000" transform="matrix(1.00, 0.00, -0.00, -1.00, 235.4, 226.9)"> </text><text xml:space="preserve" font-family="Consolas,Consolas" font-size="42.0" fill="#000000" transform="matrix(1.00, 0.00, -0.00, -1.00, 281.4, 226.9)"> </text><text xml:space="preserve" font-family="Consolas,Consolas" font-size="42.0" fill="#0B5C18" transform="matrix(1.00, 0.00, -0.00, -1.00, 179.4, 226.9)">E</text><text xml:space="preserve" font-family="Consolas,Consolas" font-size="42.0" fill="#0B5C18" transform="matrix(1.00, 0.00, -0.00, -1.00, 202.5, 226.9)">x</text><text xml:space="preserve" font-family="Consolas,Consolas" font-size="42.0" fill="#0B5C18" transform="matrix(1.00, 0.00, -0.00, -1.00, 225.6, 226.9)">p</text><text xml:space="preserve" font-family="Consolas,Consolas" font-size="42.0" fill="#0B5C18" transform="matrix(1.00, 0.00, -0.00, -1.00, 248.7, 226.9)">r</text><text xml:space="preserve" font-family="Consolas,Consolas" font-size="42.0" fill="#0B5C18" transform="matrix(1.00, 0.00, -0.00, -1.00, 271.8, 226.9)">e</text><text xml:space="preserve" font-family="Consolas,Consolas" font-size="42.0" fill="#0B5C18" transform="matrix(1.00, 0.00, -0.00, -1.00, 294.9, 226.9)">s</text><text xml:space="preserve" font-family="Consolas,Consolas" font-size="42.0" fill="#0B5C18" transform="matrix(1.00, 0.00, -0.00, -1.00, 317.9, 226.9)">s</text><text xml:space="preserve" font-family="Consolas,Consolas" font-size="42.0" fill="#0B5C18" transform="matrix(1.00, 0.00, -0.00, -1.00, 341.0, 226.9)">i</text><text xml:space="preserve" font-family="Consolas,Consolas" font-size="42.0" fill="#0B5C18" transform="matrix(1.00, 0.00, -0.00, -1.00, 364.1, 226.9)">o</text><text xml:space="preserve" font-family="Consolas,Consolas" font-size="42.0" fill="#0B5C18" transform="matrix(1.00, 0.00, -0.00, -1.00, 387.2, 226.9)">n</text></g></g><path d="M 589.0 531.0 L 944.0 531.0 L 944.0 237.0 L 589.0 237.0 Z M 588.7 531.4 " fill="#DCDDE0"></path><g><clipPath id="clip0x7ff5303eda40"><path d="M 582.2 222.9 L 1279.0 222.9 L 1279.0 537.9 L 582.2 537.9 Z M 582.2 222.9 "></path></clipPath><g clip-path="url(#clip0x7ff5303eda40)"><text xml:space="preserve" font-family="Consolas,Consolas" font-size="42.0" fill="#000000" transform="matrix(1.00, 0.00, -0.00, -1.00, 592.7, 496.4)">f</text><text xml:space="preserve" font-family="Consolas,Consolas" font-size="42.0" fill="#000000" transform="matrix(1.00, 0.00, -0.00, -1.00, 615.8, 496.4)">u</text><text xml:space="preserve" font-family="Consolas,Consolas" font-size="42.0" fill="#000000" transform="matrix(1.00, 0.00, -0.00, -1.00, 638.8, 496.4)">n</text><text xml:space="preserve" font-family="Consolas,Consolas" font-size="42.0" fill="#000000" transform="matrix(1.00, 0.00, -0.00, -1.00, 661.9, 496.4)">c</text><text xml:space="preserve" font-family="Consolas,Consolas" font-size="42.0" fill="#000000" transform="matrix(1.00, 0.00, -0.00, -1.00, 685.0, 496.4)">t</text><text xml:space="preserve" font-family="Consolas,Consolas" font-size="42.0" fill="#000000" transform="matrix(1.00, 0.00, -0.00, -1.00, 708.1, 496.4)">i</text><text xml:space="preserve" font-family="Consolas,Consolas" font-size="42.0" fill="#000000" transform="matrix(1.00, 0.00, -0.00, -1.00, 731.2, 496.4)">o</text><text xml:space="preserve" font-family="Consolas,Consolas" font-size="42.0" fill="#000000" transform="matrix(1.00, 0.00, -0.00, -1.00, 754.3, 496.4)">n</text><text xml:space="preserve" font-family="Consolas,Consolas" font-size="42.0" fill="#000000" transform="matrix(1.00, 0.00, -0.00, -1.00, 777.3, 496.4)">(</text><text xml:space="preserve" font-family="Consolas,Consolas" font-size="42.0" fill="#763E9B" transform="matrix(1.00, 0.00, -0.00, -1.00, 800.5, 496.4)">X</text><text xml:space="preserve" font-family="Consolas,Consolas" font-size="42.0" fill="#000000" transform="matrix(1.00, 0.00, -0.00, -1.00, 823.6, 496.4)">)</text><text xml:space="preserve" font-family="Consolas,Consolas" font-size="42.0" fill="#000000" transform="matrix(1.00, 0.00, -0.00, -1.00, 846.7, 496.4)">	</text><text xml:space="preserve" font-family="Consolas,Consolas" font-size="42.0" fill="#000000" transform="matrix(1.00, 0.00, -0.00, -1.00, 874.7, 496.4)"></text><text xml:space="preserve" font-family="Consolas,Consolas" font-size="42.0" fill="#000000" transform="matrix(1.00, 0.00, -0.00, -1.00, 874.7, 496.4)"> </text><text xml:space="preserve" font-family="Consolas,Consolas" font-size="42.0" fill="#000000" transform="matrix(1.00, 0.00, -0.00, -1.00, 897.8, 496.4)"> </text><text xml:space="preserve" font-family="Consolas,Consolas" font-size="42.0" fill="#000000" transform="matrix(1.00, 0.00, -0.00, -1.00, 920.8, 496.4)">-</text><text xml:space="preserve" font-family="Consolas,Consolas" font-size="42.0" fill="#000000" transform="matrix(1.00, 0.00, -0.00, -1.00, 943.9, 496.4)">­</text><text xml:space="preserve" font-family="Consolas,Consolas" font-size="42.0" fill="#000000" transform="matrix(1.00, 0.00, -0.00, -1.00, 943.9, 496.4)">‐</text><text xml:space="preserve" font-family="Consolas,Consolas" font-size="42.0" fill="#000000" transform="matrix(1.00, 0.00, -0.00, -1.00, 967.0, 496.4)">&gt;</text><text xml:space="preserve" font-family="Consolas,Consolas" font-size="42.0" fill="#000000" transform="matrix(1.00, 0.00, -0.00, -1.00, 990.1, 496.4)">	</text><text xml:space="preserve" font-family="Consolas,Consolas" font-size="42.0" fill="#000000" transform="matrix(1.00, 0.00, -0.00, -1.00, 1018.1, 496.4)"></text><text xml:space="preserve" font-family="Consolas,Consolas" font-size="42.0" fill="#000000" transform="matrix(1.00, 0.00, -0.00, -1.00, 1018.1, 496.4)"> </text><text xml:space="preserve" font-family="Consolas,Consolas" font-size="42.0" fill="#000000" transform="matrix(1.00, 0.00, -0.00, -1.00, 1041.2, 496.4)"> </text><text xml:space="preserve" font-family="Consolas,Consolas" font-size="42.0" fill="#000000" transform="matrix(1.00, 0.00, -0.00, -1.00, 592.7, 447.4)">	</text><text xml:space="preserve" font-family="Consolas,Consolas" font-size="42.0" fill="#000000" transform="matrix(1.00, 0.00, -0.00, -1.00, 620.7, 447.4)"></text><text xml:space="preserve" font-family="Consolas,Consolas" font-size="42.0" fill="#000000" transform="matrix(1.00, 0.00, -0.00, -1.00, 620.7, 447.4)"> </text><text xml:space="preserve" font-family="Consolas,Consolas" font-size="42.0" fill="#000000" transform="matrix(1.00, 0.00, -0.00, -1.00, 643.8, 447.4)"> </text><text xml:space="preserve" font-family="Consolas,Consolas" font-size="42.0" fill="#851001" transform="matrix(1.00, 0.00, -0.00, -1.00, 638.7, 447.4)">E</text><text xml:space="preserve" font-family="Consolas,Consolas" font-size="42.0" fill="#851001" transform="matrix(1.00, 0.00, -0.00, -1.00, 661.8, 447.4)">x</text><text xml:space="preserve" font-family="Consolas,Consolas" font-size="42.0" fill="#851001" transform="matrix(1.00, 0.00, -0.00, -1.00, 684.8, 447.4)">p</text><text xml:space="preserve" font-family="Consolas,Consolas" font-size="42.0" fill="#851001" transform="matrix(1.00, 0.00, -0.00, -1.00, 707.9, 447.4)">r</text><text xml:space="preserve" font-family="Consolas,Consolas" font-size="42.0" fill="#851001" transform="matrix(1.00, 0.00, -0.00, -1.00, 731.0, 447.4)">e</text><text xml:space="preserve" font-family="Consolas,Consolas" font-size="42.0" fill="#851001" transform="matrix(1.00, 0.00, -0.00, -1.00, 754.1, 447.4)">s</text><text xml:space="preserve" font-family="Consolas,Consolas" font-size="42.0" fill="#851001" transform="matrix(1.00, 0.00, -0.00, -1.00, 777.2, 447.4)">s</text><text xml:space="preserve" font-family="Consolas,Consolas" font-size="42.0" fill="#851001" transform="matrix(1.00, 0.00, -0.00, -1.00, 800.3, 447.4)">i</text><text xml:space="preserve" font-family="Consolas,Consolas" font-size="42.0" fill="#851001" transform="matrix(1.00, 0.00, -0.00, -1.00, 823.3, 447.4)">o</text><text xml:space="preserve" font-family="Consolas,Consolas" font-size="42.0" fill="#851001" transform="matrix(1.00, 0.00, -0.00, -1.00, 846.4, 447.4)">n</text><text xml:space="preserve" font-family="Consolas,Consolas" font-size="42.0" fill="#000000" transform="matrix(1.00, 0.00, -0.00, -1.00, 869.6, 447.4)">;</text><text xml:space="preserve" font-family="Consolas,Consolas" font-size="42.0" fill="#000000" transform="matrix(1.00, 0.00, -0.00, -1.00, 892.7, 447.4)">	</text><text xml:space="preserve" font-family="Consolas,Consolas" font-size="42.0" fill="#000000" transform="matrix(1.00, 0.00, -0.00, -1.00, 920.7, 447.4)"></text><text xml:space="preserve" font-family="Consolas,Consolas" font-size="42.0" fill="#000000" transform="matrix(1.00, 0.00, -0.00, -1.00, 920.7, 447.4)"> </text><text xml:space="preserve" font-family="Consolas,Consolas" font-size="42.0" fill="#000000" transform="matrix(1.00, 0.00, -0.00, -1.00, 943.8, 447.4)"> </text><text xml:space="preserve" font-family="Consolas,Consolas" font-size="42.0" fill="#000000" transform="matrix(1.00, 0.00, -0.00, -1.00, 592.7, 398.4)">f</text><text xml:space="preserve" font-family="Consolas,Consolas" font-size="42.0" fill="#000000" transform="matrix(1.00, 0.00, -0.00, -1.00, 615.8, 398.4)">u</text><text xml:space="preserve" font-family="Consolas,Consolas" font-size="42.0" fill="#000000" transform="matrix(1.00, 0.00, -0.00, -1.00, 638.8, 398.4)">n</text><text xml:space="preserve" font-family="Consolas,Consolas" font-size="42.0" fill="#000000" transform="matrix(1.00, 0.00, -0.00, -1.00, 661.9, 398.4)">c</text><text xml:space="preserve" font-family="Consolas,Consolas" font-size="42.0" fill="#000000" transform="matrix(1.00, 0.00, -0.00, -1.00, 685.0, 398.4)">t</text><text xml:space="preserve" font-family="Consolas,Consolas" font-size="42.0" fill="#000000" transform="matrix(1.00, 0.00, -0.00, -1.00, 708.1, 398.4)">i</text><text xml:space="preserve" font-family="Consolas,Consolas" font-size="42.0" fill="#000000" transform="matrix(1.00, 0.00, -0.00, -1.00, 731.2, 398.4)">o</text><text xml:space="preserve" font-family="Consolas,Consolas" font-size="42.0" fill="#000000" transform="matrix(1.00, 0.00, -0.00, -1.00, 754.3, 398.4)">n</text><text xml:space="preserve" font-family="Consolas,Consolas" font-size="42.0" fill="#000000" transform="matrix(1.00, 0.00, -0.00, -1.00, 777.3, 398.4)">(</text><text xml:space="preserve" font-family="Consolas,Consolas" font-size="42.0" fill="#763E9B" transform="matrix(1.00, 0.00, -0.00, -1.00, 800.5, 398.4)">Y</text><text xml:space="preserve" font-family="Consolas,Consolas" font-size="42.0" fill="#000000" transform="matrix(1.00, 0.00, -0.00, -1.00, 823.6, 398.4)">)</text><text xml:space="preserve" font-family="Consolas,Consolas" font-size="42.0" fill="#000000" transform="matrix(1.00, 0.00, -0.00, -1.00, 846.7, 398.4)">	</text><text xml:space="preserve" font-family="Consolas,Consolas" font-size="42.0" fill="#000000" transform="matrix(1.00, 0.00, -0.00, -1.00, 874.7, 398.4)"></text><text xml:space="preserve" font-family="Consolas,Consolas" font-size="42.0" fill="#000000" transform="matrix(1.00, 0.00, -0.00, -1.00, 874.7, 398.4)"> </text><text xml:space="preserve" font-family="Consolas,Consolas" font-size="42.0" fill="#000000" transform="matrix(1.00, 0.00, -0.00, -1.00, 897.8, 398.4)"> </text><text xml:space="preserve" font-family="Consolas,Consolas" font-size="42.0" fill="#000000" transform="matrix(1.00, 0.00, -0.00, -1.00, 920.8, 398.4)">-</text><text xml:space="preserve" font-family="Consolas,Consolas" font-size="42.0" fill="#000000" transform="matrix(1.00, 0.00, -0.00, -1.00, 943.9, 398.4)">­</text><text xml:space="preserve" font-family="Consolas,Consolas" font-size="42.0" fill="#000000" transform="matrix(1.00, 0.00, -0.00, -1.00, 943.9, 398.4)">‐</text><text xml:space="preserve" font-family="Consolas,Consolas" font-size="42.0" fill="#000000" transform="matrix(1.00, 0.00, -0.00, -1.00, 967.0, 398.4)">&gt;</text><text xml:space="preserve" font-family="Consolas,Consolas" font-size="42.0" fill="#000000" transform="matrix(1.00, 0.00, -0.00, -1.00, 990.1, 398.4)">	</text><text xml:space="preserve" font-family="Consolas,Consolas" font-size="42.0" fill="#000000" transform="matrix(1.00, 0.00, -0.00, -1.00, 1018.1, 398.4)"></text><text xml:space="preserve" font-family="Consolas,Consolas" font-size="42.0" fill="#000000" transform="matrix(1.00, 0.00, -0.00, -1.00, 1018.1, 398.4)"> </text><text xml:space="preserve" font-family="Consolas,Consolas" font-size="42.0" fill="#000000" transform="matrix(1.00, 0.00, -0.00, -1.00, 1041.2, 398.4)"> </text><text xml:space="preserve" font-family="Consolas,Consolas" font-size="42.0" fill="#000000" transform="matrix(1.00, 0.00, -0.00, -1.00, 592.7, 349.4)">	</text><text xml:space="preserve" font-family="Consolas,Consolas" font-size="42.0" fill="#000000" transform="matrix(1.00, 0.00, -0.00, -1.00, 620.7, 349.4)"></text><text xml:space="preserve" font-family="Consolas,Consolas" font-size="42.0" fill="#000000" transform="matrix(1.00, 0.00, -0.00, -1.00, 620.7, 349.4)"> </text><text xml:space="preserve" font-family="Consolas,Consolas" font-size="42.0" fill="#000000" transform="matrix(1.00, 0.00, -0.00, -1.00, 643.8, 349.4)"> </text><text xml:space="preserve" font-family="Consolas,Consolas" font-size="42.0" fill="#851001" transform="matrix(1.00, 0.00, -0.00, -1.00, 638.7, 349.4)">E</text><text xml:space="preserve" font-family="Consolas,Consolas" font-size="42.0" fill="#851001" transform="matrix(1.00, 0.00, -0.00, -1.00, 661.8, 349.4)">x</text><text xml:space="preserve" font-family="Consolas,Consolas" font-size="42.0" fill="#851001" transform="matrix(1.00, 0.00, -0.00, -1.00, 684.8, 349.4)">p</text><text xml:space="preserve" font-family="Consolas,Consolas" font-size="42.0" fill="#851001" transform="matrix(1.00, 0.00, -0.00, -1.00, 707.9, 349.4)">r</text><text xml:space="preserve" font-family="Consolas,Consolas" font-size="42.0" fill="#851001" transform="matrix(1.00, 0.00, -0.00, -1.00, 731.0, 349.4)">e</text><text xml:space="preserve" font-family="Consolas,Consolas" font-size="42.0" fill="#851001" transform="matrix(1.00, 0.00, -0.00, -1.00, 754.1, 349.4)">s</text><text xml:space="preserve" font-family="Consolas,Consolas" font-size="42.0" fill="#851001" transform="matrix(1.00, 0.00, -0.00, -1.00, 777.2, 349.4)">s</text><text xml:space="preserve" font-family="Consolas,Consolas" font-size="42.0" fill="#851001" transform="matrix(1.00, 0.00, -0.00, -1.00, 800.3, 349.4)">i</text><text xml:space="preserve" font-family="Consolas,Consolas" font-size="42.0" fill="#851001" transform="matrix(1.00, 0.00, -0.00, -1.00, 823.3, 349.4)">o</text><text xml:space="preserve" font-family="Consolas,Consolas" font-size="42.0" fill="#851001" transform="matrix(1.00, 0.00, -0.00, -1.00, 846.4, 349.4)">n</text><text xml:space="preserve" font-family="Consolas,Consolas" font-size="42.0" fill="#000000" transform="matrix(1.00, 0.00, -0.00, -1.00, 869.6, 349.4)">;</text><text xml:space="preserve" font-family="Consolas,Consolas" font-size="42.0" fill="#000000" transform="matrix(1.00, 0.00, -0.00, -1.00, 892.7, 349.4)">	</text><text xml:space="preserve" font-family="Consolas,Consolas" font-size="42.0" fill="#000000" transform="matrix(1.00, 0.00, -0.00, -1.00, 920.7, 349.4)"></text><text xml:space="preserve" font-family="Consolas,Consolas" font-size="42.0" fill="#000000" transform="matrix(1.00, 0.00, -0.00, -1.00, 920.7, 349.4)"> </text><text xml:space="preserve" font-family="Consolas,Consolas" font-size="42.0" fill="#000000" transform="matrix(1.00, 0.00, -0.00, -1.00, 943.8, 349.4)"> </text><text xml:space="preserve" font-family="Consolas,Consolas" font-size="42.0" fill="#000000" transform="matrix(1.00, 0.00, -0.00, -1.00, 592.7, 300.4)">f</text><text xml:space="preserve" font-family="Consolas,Consolas" font-size="42.0" fill="#000000" transform="matrix(1.00, 0.00, -0.00, -1.00, 615.8, 300.4)">u</text><text xml:space="preserve" font-family="Consolas,Consolas" font-size="42.0" fill="#000000" transform="matrix(1.00, 0.00, -0.00, -1.00, 638.8, 300.4)">n</text><text xml:space="preserve" font-family="Consolas,Consolas" font-size="42.0" fill="#000000" transform="matrix(1.00, 0.00, -0.00, -1.00, 661.9, 300.4)">c</text><text xml:space="preserve" font-family="Consolas,Consolas" font-size="42.0" fill="#000000" transform="matrix(1.00, 0.00, -0.00, -1.00, 685.0, 300.4)">t</text><text xml:space="preserve" font-family="Consolas,Consolas" font-size="42.0" fill="#000000" transform="matrix(1.00, 0.00, -0.00, -1.00, 708.1, 300.4)">i</text><text xml:space="preserve" font-family="Consolas,Consolas" font-size="42.0" fill="#000000" transform="matrix(1.00, 0.00, -0.00, -1.00, 731.2, 300.4)">o</text><text xml:space="preserve" font-family="Consolas,Consolas" font-size="42.0" fill="#000000" transform="matrix(1.00, 0.00, -0.00, -1.00, 754.3, 300.4)">n</text><text xml:space="preserve" font-family="Consolas,Consolas" font-size="42.0" fill="#000000" transform="matrix(1.00, 0.00, -0.00, -1.00, 777.3, 300.4)">(</text><text xml:space="preserve" font-family="Consolas,Consolas" font-size="42.0" fill="#763E9B" transform="matrix(1.00, 0.00, -0.00, -1.00, 800.5, 300.4)">_</text><text xml:space="preserve" font-family="Consolas,Consolas" font-size="42.0" fill="#000000" transform="matrix(1.00, 0.00, -0.00, -1.00, 823.6, 300.4)">)</text><text xml:space="preserve" font-family="Consolas,Consolas" font-size="42.0" fill="#000000" transform="matrix(1.00, 0.00, -0.00, -1.00, 846.7, 300.4)">	</text><text xml:space="preserve" font-family="Consolas,Consolas" font-size="42.0" fill="#000000" transform="matrix(1.00, 0.00, -0.00, -1.00, 874.7, 300.4)"></text><text xml:space="preserve" font-family="Consolas,Consolas" font-size="42.0" fill="#000000" transform="matrix(1.00, 0.00, -0.00, -1.00, 874.7, 300.4)"> </text><text xml:space="preserve" font-family="Consolas,Consolas" font-size="42.0" fill="#000000" transform="matrix(1.00, 0.00, -0.00, -1.00, 897.8, 300.4)"> </text><text xml:space="preserve" font-family="Consolas,Consolas" font-size="42.0" fill="#000000" transform="matrix(1.00, 0.00, -0.00, -1.00, 920.8, 300.4)">-</text><text xml:space="preserve" font-family="Consolas,Consolas" font-size="42.0" fill="#000000" transform="matrix(1.00, 0.00, -0.00, -1.00, 943.9, 300.4)">­</text><text xml:space="preserve" font-family="Consolas,Consolas" font-size="42.0" fill="#000000" transform="matrix(1.00, 0.00, -0.00, -1.00, 943.9, 300.4)">‐</text><text xml:space="preserve" font-family="Consolas,Consolas" font-size="42.0" fill="#000000" transform="matrix(1.00, 0.00, -0.00, -1.00, 967.0, 300.4)">&gt;</text><text xml:space="preserve" font-family="Consolas,Consolas" font-size="42.0" fill="#000000" transform="matrix(1.00, 0.00, -0.00, -1.00, 990.1, 300.4)">	</text><text xml:space="preserve" font-family="Consolas,Consolas" font-size="42.0" fill="#000000" transform="matrix(1.00, 0.00, -0.00, -1.00, 1018.1, 300.4)"></text><text xml:space="preserve" font-family="Consolas,Consolas" font-size="42.0" fill="#000000" transform="matrix(1.00, 0.00, -0.00, -1.00, 1018.1, 300.4)"> </text><text xml:space="preserve" font-family="Consolas,Consolas" font-size="42.0" fill="#000000" transform="matrix(1.00, 0.00, -0.00, -1.00, 1041.2, 300.4)"> </text><text xml:space="preserve" font-family="Consolas,Consolas" font-size="42.0" fill="#000000" transform="matrix(1.00, 0.00, -0.00, -1.00, 592.7, 251.4)">	</text><text xml:space="preserve" font-family="Consolas,Consolas" font-size="42.0" fill="#000000" transform="matrix(1.00, 0.00, -0.00, -1.00, 620.7, 251.4)"></text><text xml:space="preserve" font-family="Consolas,Consolas" font-size="42.0" fill="#000000" transform="matrix(1.00, 0.00, -0.00, -1.00, 620.7, 251.4)"> </text><text xml:space="preserve" font-family="Consolas,Consolas" font-size="42.0" fill="#000000" transform="matrix(1.00, 0.00, -0.00, -1.00, 643.8, 251.4)"> </text><text xml:space="preserve" font-family="Consolas,Consolas" font-size="42.0" fill="#851001" transform="matrix(1.00, 0.00, -0.00, -1.00, 638.7, 251.4)">E</text><text xml:space="preserve" font-family="Consolas,Consolas" font-size="42.0" fill="#851001" transform="matrix(1.00, 0.00, -0.00, -1.00, 661.8, 251.4)">x</text><text xml:space="preserve" font-family="Consolas,Consolas" font-size="42.0" fill="#851001" transform="matrix(1.00, 0.00, -0.00, -1.00, 684.8, 251.4)">p</text><text xml:space="preserve" font-family="Consolas,Consolas" font-size="42.0" fill="#851001" transform="matrix(1.00, 0.00, -0.00, -1.00, 707.9, 251.4)">r</text><text xml:space="preserve" font-family="Consolas,Consolas" font-size="42.0" fill="#851001" transform="matrix(1.00, 0.00, -0.00, -1.00, 731.0, 251.4)">e</text><text xml:space="preserve" font-family="Consolas,Consolas" font-size="42.0" fill="#851001" transform="matrix(1.00, 0.00, -0.00, -1.00, 754.1, 251.4)">s</text><text xml:space="preserve" font-family="Consolas,Consolas" font-size="42.0" fill="#851001" transform="matrix(1.00, 0.00, -0.00, -1.00, 777.2, 251.4)">s</text><text xml:space="preserve" font-family="Consolas,Consolas" font-size="42.0" fill="#851001" transform="matrix(1.00, 0.00, -0.00, -1.00, 800.3, 251.4)">i</text><text xml:space="preserve" font-family="Consolas,Consolas" font-size="42.0" fill="#851001" transform="matrix(1.00, 0.00, -0.00, -1.00, 823.3, 251.4)">o</text><text xml:space="preserve" font-family="Consolas,Consolas" font-size="42.0" fill="#851001" transform="matrix(1.00, 0.00, -0.00, -1.00, 846.4, 251.4)">n</text><text xml:space="preserve" font-family="Consolas,Consolas" font-size="42.0" fill="#000000" transform="matrix(1.00, 0.00, -0.00, -1.00, 869.6, 251.4)">.</text></g></g></g></svg>