<?xml version="1.0" encoding="UTF-8" standalone="no"?><svg xmlns="http://www.w3.org/2000/svg" xmlns:xlink="http://www.w3.org/1999/xlink" clip-rule="evenodd" stroke-miterlimit="10" viewBox="0 0 1024 768"><desc>SVG generated by Keynote</desc><defs></defs><g transform="matrix(1.00, 0.00, -0.00, -1.00, 0.0, 768.0)"><path d="M 0.0 768.0 L 1024.0 768.0 L 1024.0 0.0 L 0.0 0.0 Z M 0.0 768.0 " fill="#FEFFFF"></path><text xml:space="preserve" font-family="Helvetica-Light,Helvetica" font-size="50.0" fill="#000000" transform="matrix(1.00, 0.00, -0.00, -1.00, 258.7, 664.5)">П</text><text xml:space="preserve" font-family="Helvetica-Light,Helvetica" font-size="50.0" fill="#000000" transform="matrix(1.00, 0.00, -0.00, -1.00, 293.4, 664.5)">а</text><text xml:space="preserve" font-family="Helvetica-Light,Helvetica" font-size="50.0" fill="#000000" transform="matrix(1.00, 0.00, -0.00, -1.00, 319.3, 664.5)">р</text><text xml:space="preserve" font-family="Helvetica-Light,Helvetica" font-size="50.0" fill="#000000" transform="matrix(1.00, 0.00, -0.00, -1.00, 348.0, 664.5)">а</text><text xml:space="preserve" font-family="Helvetica-Light,Helvetica" font-size="50.0" fill="#000000" transform="matrix(1.00, 0.00, -0.00, -1.00, 374.0, 664.5)"> </text><text xml:space="preserve" font-family="Helvetica-Light,Helvetica" font-size="50.0" fill="#000000" transform="matrix(1.00, 0.00, -0.00, -1.00, 387.9, 664.5)">с</text><text xml:space="preserve" font-family="Helvetica-Light,Helvetica" font-size="50.0" fill="#000000" transform="matrix(1.00, 0.00, -0.00, -1.00, 413.8, 664.5)">л</text><text xml:space="preserve" font-family="Helvetica-Light,Helvetica" font-size="50.0" fill="#000000" transform="matrix(1.00, 0.00, -0.00, -1.00, 442.1, 664.5)">о</text><text xml:space="preserve" font-family="Helvetica-Light,Helvetica" font-size="50.0" fill="#000000" transform="matrix(1.00, 0.00, -0.00, -1.00, 469.9, 664.5)">в</text><text xml:space="preserve" font-family="Helvetica-Light,Helvetica" font-size="50.0" fill="#000000" transform="matrix(1.00, 0.00, -0.00, -1.00, 495.7, 664.5)"> </text><text xml:space="preserve" font-family="Helvetica-Light,Helvetica" font-size="50.0" fill="#000000" transform="matrix(1.00, 0.00, -0.00, -1.00, 509.6, 664.5)">о</text><text xml:space="preserve" font-family="Helvetica-Light,Helvetica" font-size="50.0" fill="#000000" transform="matrix(1.00, 0.00, -0.00, -1.00, 537.4, 664.5)">б</text><text xml:space="preserve" font-family="Helvetica-Light,Helvetica" font-size="50.0" fill="#000000" transform="matrix(1.00, 0.00, -0.00, -1.00, 565.2, 664.5)"> </text><text xml:space="preserve" font-family="Helvetica-Light,Helvetica" font-size="50.0" fill="#000000" transform="matrix(1.00, 0.00, -0.00, -1.00, 579.1, 664.5)">и</text><text xml:space="preserve" font-family="Helvetica-Light,Helvetica" font-size="50.0" fill="#000000" transform="matrix(1.00, 0.00, -0.00, -1.00, 606.3, 664.5)">с</text><text xml:space="preserve" font-family="Helvetica-Light,Helvetica" font-size="50.0" fill="#000000" transform="matrix(1.00, 0.00, -0.00, -1.00, 632.3, 664.5)">т</text><text xml:space="preserve" font-family="Helvetica-Light,Helvetica" font-size="50.0" fill="#000000" transform="matrix(1.00, 0.00, -0.00, -1.00, 654.4, 664.5)">о</text><text xml:space="preserve" font-family="Helvetica-Light,Helvetica" font-size="50.0" fill="#000000" transform="matrix(1.00, 0.00, -0.00, -1.00, 682.2, 664.5)">р</text><text xml:space="preserve" font-family="Helvetica-Light,Helvetica" font-size="50.0" fill="#000000" transform="matrix(1.00, 0.00, -0.00, -1.00, 710.9, 664.5)">и</text><text xml:space="preserve" font-family="Helvetica-Light,Helvetica" font-size="50.0" fill="#000000" transform="matrix(1.00, 0.00, -0.00, -1.00, 738.1, 664.5)">и</text><text xml:space="preserve" font-family="Helvetica-Light,Helvetica" font-size="27.8" fill="#000000" transform="matrix(1.00, 0.00, -0.00, -1.00, 245.8, 509.4)">•</text><text xml:space="preserve" font-family="Helvetica-Light,Helvetica" font-size="37.0" fill="#000000" transform="matrix(1.00, 0.00, -0.00, -1.00, 269.1, 505.5)">С</text><text xml:space="preserve" font-family="Helvetica-Light,Helvetica" font-size="37.0" fill="#000000" transform="matrix(1.00, 0.00, -0.00, -1.00, 295.2, 505.5)">е</text><text xml:space="preserve" font-family="Helvetica-Light,Helvetica" font-size="37.0" fill="#000000" transform="matrix(1.00, 0.00, -0.00, -1.00, 314.4, 505.5)">р</text><text xml:space="preserve" font-family="Helvetica-Light,Helvetica" font-size="37.0" fill="#000000" transform="matrix(1.00, 0.00, -0.00, -1.00, 335.6, 505.5)">е</text><text xml:space="preserve" font-family="Helvetica-Light,Helvetica" font-size="37.0" fill="#000000" transform="matrix(1.00, 0.00, -0.00, -1.00, 354.8, 505.5)">д</text><text xml:space="preserve" font-family="Helvetica-Light,Helvetica" font-size="37.0" fill="#000000" transform="matrix(1.00, 0.00, -0.00, -1.00, 375.9, 505.5)">и</text><text xml:space="preserve" font-family="Helvetica-Light,Helvetica" font-size="37.0" fill="#000000" transform="matrix(1.00, 0.00, -0.00, -1.00, 396.0, 505.5)">н</text><text xml:space="preserve" font-family="Helvetica-Light,Helvetica" font-size="37.0" fill="#000000" transform="matrix(1.00, 0.00, -0.00, -1.00, 415.9, 505.5)">а</text><text xml:space="preserve" font-family="Helvetica-Light,Helvetica" font-size="37.0" fill="#000000" transform="matrix(1.00, 0.00, -0.00, -1.00, 435.1, 505.5)"> </text><text xml:space="preserve" font-family="Helvetica-Light,Helvetica" font-size="37.0" fill="#000000" transform="matrix(1.00, 0.00, -0.00, -1.00, 445.4, 505.5)">8</text><text xml:space="preserve" font-family="Helvetica-Light,Helvetica" font-size="37.0" fill="#000000" transform="matrix(1.00, 0.00, -0.00, -1.00, 466.0, 505.5)">0</text><text xml:space="preserve" font-family="Helvetica-Light,Helvetica" font-size="37.0" fill="#000000" transform="matrix(1.00, 0.00, -0.00, -1.00, 486.5, 505.5)">-</text><text xml:space="preserve" font-family="Helvetica-Light,Helvetica" font-size="37.0" fill="#000000" transform="matrix(1.00, 0.00, -0.00, -1.00, 498.9, 505.5)">ы</text><text xml:space="preserve" font-family="Helvetica-Light,Helvetica" font-size="37.0" fill="#000000" transform="matrix(1.00, 0.00, -0.00, -1.00, 523.7, 505.5)">х</text><text xml:space="preserve" font-family="Helvetica-Light,Helvetica" font-size="37.0" fill="#000000" transform="matrix(1.00, 0.00, -0.00, -1.00, 541.5, 505.5)"> </text><text xml:space="preserve" font-family="Helvetica-Light,Helvetica" font-size="37.0" fill="#000000" transform="matrix(1.00, 0.00, -0.00, -1.00, 551.8, 505.5)">—</text><text xml:space="preserve" font-family="Helvetica-Light,Helvetica" font-size="37.0" fill="#000000" transform="matrix(1.00, 0.00, -0.00, -1.00, 588.8, 505.5)"> </text><text xml:space="preserve" font-family="Helvetica-Light,Helvetica" font-size="37.0" fill="#000000" transform="matrix(1.00, 0.00, -0.00, -1.00, 599.1, 505.5)">н</text><text xml:space="preserve" font-family="Helvetica-Light,Helvetica" font-size="37.0" fill="#000000" transform="matrix(1.00, 0.00, -0.00, -1.00, 618.9, 505.5)">а</text><text xml:space="preserve" font-family="Helvetica-Light,Helvetica" font-size="37.0" fill="#000000" transform="matrix(1.00, 0.00, -0.00, -1.00, 638.1, 505.5)">ч</text><text xml:space="preserve" font-family="Helvetica-Light,Helvetica" font-size="37.0" fill="#000000" transform="matrix(1.00, 0.00, -0.00, -1.00, 656.6, 505.5)">а</text><text xml:space="preserve" font-family="Helvetica-Light,Helvetica" font-size="37.0" fill="#000000" transform="matrix(1.00, 0.00, -0.00, -1.00, 675.8, 505.5)">л</text><text xml:space="preserve" font-family="Helvetica-Light,Helvetica" font-size="37.0" fill="#000000" transform="matrix(1.00, 0.00, -0.00, -1.00, 696.7, 505.5)">о</text><text xml:space="preserve" font-family="Helvetica-Light,Helvetica" font-size="37.0" fill="#000000" transform="matrix(1.00, 0.00, -0.00, -1.00, 717.2, 505.5)"> </text><text xml:space="preserve" font-family="Helvetica-Light,Helvetica" font-size="37.0" fill="#000000" transform="matrix(1.00, 0.00, -0.00, -1.00, 727.5, 505.5)">9</text><text xml:space="preserve" font-family="Helvetica-Light,Helvetica" font-size="37.0" fill="#000000" transform="matrix(1.00, 0.00, -0.00, -1.00, 748.1, 505.5)">0</text><text xml:space="preserve" font-family="Helvetica-Light,Helvetica" font-size="37.0" fill="#000000" transform="matrix(1.00, 0.00, -0.00, -1.00, 768.7, 505.5)">-</text><text xml:space="preserve" font-family="Helvetica-Light,Helvetica" font-size="37.0" fill="#000000" transform="matrix(1.00, 0.00, -0.00, -1.00, 781.0, 505.5)">ы</text><text xml:space="preserve" font-family="Helvetica-Light,Helvetica" font-size="37.0" fill="#000000" transform="matrix(1.00, 0.00, -0.00, -1.00, 805.8, 505.5)">х</text><text xml:space="preserve" font-family="Helvetica-Light,Helvetica" font-size="37.0" fill="#000000" transform="matrix(1.00, 0.00, -0.00, -1.00, 823.6, 505.5)"> </text><text xml:space="preserve" font-family="Helvetica-Light,Helvetica" font-size="27.8" fill="#000000" transform="matrix(1.00, 0.00, -0.00, -1.00, 280.8, 451.2)">•</text><text xml:space="preserve" font-family="Helvetica-Light,Helvetica" font-size="37.0" fill="#000000" transform="matrix(1.00, 0.00, -0.00, -1.00, 304.1, 447.3)">Р</text><text xml:space="preserve" font-family="Helvetica-Light,Helvetica" font-size="37.0" fill="#000000" transform="matrix(1.00, 0.00, -0.00, -1.00, 327.4, 447.3)">а</text><text xml:space="preserve" font-family="Helvetica-Light,Helvetica" font-size="37.0" fill="#000000" transform="matrix(1.00, 0.00, -0.00, -1.00, 346.6, 447.3)">з</text><text xml:space="preserve" font-family="Helvetica-Light,Helvetica" font-size="37.0" fill="#000000" transform="matrix(1.00, 0.00, -0.00, -1.00, 364.6, 447.3)">р</text><text xml:space="preserve" font-family="Helvetica-Light,Helvetica" font-size="37.0" fill="#000000" transform="matrix(1.00, 0.00, -0.00, -1.00, 385.8, 447.3)">а</text><text xml:space="preserve" font-family="Helvetica-Light,Helvetica" font-size="37.0" fill="#000000" transform="matrix(1.00, 0.00, -0.00, -1.00, 405.0, 447.3)">б</text><text xml:space="preserve" font-family="Helvetica-Light,Helvetica" font-size="37.0" fill="#000000" transform="matrix(1.00, 0.00, -0.00, -1.00, 425.6, 447.3)">о</text><text xml:space="preserve" font-family="Helvetica-Light,Helvetica" font-size="37.0" fill="#000000" transform="matrix(1.00, 0.00, -0.00, -1.00, 446.2, 447.3)">т</text><text xml:space="preserve" font-family="Helvetica-Light,Helvetica" font-size="37.0" fill="#000000" transform="matrix(1.00, 0.00, -0.00, -1.00, 462.6, 447.3)">к</text><text xml:space="preserve" font-family="Helvetica-Light,Helvetica" font-size="37.0" fill="#000000" transform="matrix(1.00, 0.00, -0.00, -1.00, 481.0, 447.3)">а</text><text xml:space="preserve" font-family="Helvetica-Light,Helvetica" font-size="37.0" fill="#000000" transform="matrix(1.00, 0.00, -0.00, -1.00, 500.2, 447.3)"> </text><text xml:space="preserve" font-family="Helvetica-Light,Helvetica" font-size="27.8" fill="#000000" transform="matrix(1.00, 0.00, -0.00, -1.00, 245.8, 393.1)">•</text><text xml:space="preserve" font-family="Helvetica-Light,Helvetica" font-size="37.0" fill="#000000" transform="matrix(1.00, 0.00, -0.00, -1.00, 269.1, 389.2)">9</text><text xml:space="preserve" font-family="Helvetica-Light,Helvetica" font-size="37.0" fill="#000000" transform="matrix(1.00, 0.00, -0.00, -1.00, 289.7, 389.2)">0</text><text xml:space="preserve" font-family="Helvetica-Light,Helvetica" font-size="37.0" fill="#000000" transform="matrix(1.00, 0.00, -0.00, -1.00, 310.3, 389.2)">-</text><text xml:space="preserve" font-family="Helvetica-Light,Helvetica" font-size="37.0" fill="#000000" transform="matrix(1.00, 0.00, -0.00, -1.00, 322.6, 389.2)">е</text><text xml:space="preserve" font-family="Helvetica-Light,Helvetica" font-size="37.0" fill="#000000" transform="matrix(1.00, 0.00, -0.00, -1.00, 341.8, 389.2)"> </text><text xml:space="preserve" font-family="Helvetica-Light,Helvetica" font-size="37.0" fill="#000000" transform="matrix(1.00, 0.00, -0.00, -1.00, 352.1, 389.2)">—</text><text xml:space="preserve" font-family="Helvetica-Light,Helvetica" font-size="37.0" fill="#000000" transform="matrix(1.00, 0.00, -0.00, -1.00, 389.1, 389.2)"> </text><text xml:space="preserve" font-family="Helvetica-Light,Helvetica" font-size="37.0" fill="#000000" transform="matrix(1.00, 0.00, -0.00, -1.00, 399.4, 389.2)">с</text><text xml:space="preserve" font-family="Helvetica-Light,Helvetica" font-size="37.0" fill="#000000" transform="matrix(1.00, 0.00, -0.00, -1.00, 418.6, 389.2)">е</text><text xml:space="preserve" font-family="Helvetica-Light,Helvetica" font-size="37.0" fill="#000000" transform="matrix(1.00, 0.00, -0.00, -1.00, 437.8, 389.2)">р</text><text xml:space="preserve" font-family="Helvetica-Light,Helvetica" font-size="37.0" fill="#000000" transform="matrix(1.00, 0.00, -0.00, -1.00, 459.0, 389.2)">е</text><text xml:space="preserve" font-family="Helvetica-Light,Helvetica" font-size="37.0" fill="#000000" transform="matrix(1.00, 0.00, -0.00, -1.00, 478.2, 389.2)">д</text><text xml:space="preserve" font-family="Helvetica-Light,Helvetica" font-size="37.0" fill="#000000" transform="matrix(1.00, 0.00, -0.00, -1.00, 499.3, 389.2)">и</text><text xml:space="preserve" font-family="Helvetica-Light,Helvetica" font-size="37.0" fill="#000000" transform="matrix(1.00, 0.00, -0.00, -1.00, 519.4, 389.2)">н</text><text xml:space="preserve" font-family="Helvetica-Light,Helvetica" font-size="37.0" fill="#000000" transform="matrix(1.00, 0.00, -0.00, -1.00, 539.3, 389.2)">а</text><text xml:space="preserve" font-family="Helvetica-Light,Helvetica" font-size="37.0" fill="#000000" transform="matrix(1.00, 0.00, -0.00, -1.00, 558.5, 389.2)"> </text><text xml:space="preserve" font-family="Helvetica-Light,Helvetica" font-size="37.0" fill="#000000" transform="matrix(1.00, 0.00, -0.00, -1.00, 568.8, 389.2)">2</text><text xml:space="preserve" font-family="Helvetica-Light,Helvetica" font-size="37.0" fill="#000000" transform="matrix(1.00, 0.00, -0.00, -1.00, 589.4, 389.2)">0</text><text xml:space="preserve" font-family="Helvetica-Light,Helvetica" font-size="37.0" fill="#000000" transform="matrix(1.00, 0.00, -0.00, -1.00, 609.9, 389.2)">0</text><text xml:space="preserve" font-family="Helvetica-Light,Helvetica" font-size="37.0" fill="#000000" transform="matrix(1.00, 0.00, -0.00, -1.00, 630.5, 389.2)">0</text><text xml:space="preserve" font-family="Helvetica-Light,Helvetica" font-size="37.0" fill="#000000" transform="matrix(1.00, 0.00, -0.00, -1.00, 651.1, 389.2)">-</text><text xml:space="preserve" font-family="Helvetica-Light,Helvetica" font-size="37.0" fill="#000000" transform="matrix(1.00, 0.00, -0.00, -1.00, 663.4, 389.2)">ы</text><text xml:space="preserve" font-family="Helvetica-Light,Helvetica" font-size="37.0" fill="#000000" transform="matrix(1.00, 0.00, -0.00, -1.00, 688.2, 389.2)">х</text><text xml:space="preserve" font-family="Helvetica-Light,Helvetica" font-size="37.0" fill="#000000" transform="matrix(1.00, 0.00, -0.00, -1.00, 706.0, 389.2)"> </text><text xml:space="preserve" font-family="Helvetica-Light,Helvetica" font-size="27.8" fill="#000000" transform="matrix(1.00, 0.00, -0.00, -1.00, 280.8, 334.9)">•</text><text xml:space="preserve" font-family="Helvetica-Light,Helvetica" font-size="37.0" fill="#000000" transform="matrix(1.00, 0.00, -0.00, -1.00, 304.1, 331.0)">И</text><text xml:space="preserve" font-family="Helvetica-Light,Helvetica" font-size="37.0" fill="#000000" transform="matrix(1.00, 0.00, -0.00, -1.00, 330.4, 331.0)">с</text><text xml:space="preserve" font-family="Helvetica-Light,Helvetica" font-size="37.0" fill="#000000" transform="matrix(1.00, 0.00, -0.00, -1.00, 349.6, 331.0)">п</text><text xml:space="preserve" font-family="Helvetica-Light,Helvetica" font-size="37.0" fill="#000000" transform="matrix(1.00, 0.00, -0.00, -1.00, 369.2, 331.0)">о</text><text xml:space="preserve" font-family="Helvetica-Light,Helvetica" font-size="37.0" fill="#000000" transform="matrix(1.00, 0.00, -0.00, -1.00, 389.8, 331.0)">л</text><text xml:space="preserve" font-family="Helvetica-Light,Helvetica" font-size="37.0" fill="#000000" transform="matrix(1.00, 0.00, -0.00, -1.00, 410.7, 331.0)">ь</text><text xml:space="preserve" font-family="Helvetica-Light,Helvetica" font-size="37.0" fill="#000000" transform="matrix(1.00, 0.00, -0.00, -1.00, 429.2, 331.0)">з</text><text xml:space="preserve" font-family="Helvetica-Light,Helvetica" font-size="37.0" fill="#000000" transform="matrix(1.00, 0.00, -0.00, -1.00, 447.1, 331.0)">о</text><text xml:space="preserve" font-family="Helvetica-Light,Helvetica" font-size="37.0" fill="#000000" transform="matrix(1.00, 0.00, -0.00, -1.00, 467.7, 331.0)">в</text><text xml:space="preserve" font-family="Helvetica-Light,Helvetica" font-size="37.0" fill="#000000" transform="matrix(1.00, 0.00, -0.00, -1.00, 486.8, 331.0)">а</text><text xml:space="preserve" font-family="Helvetica-Light,Helvetica" font-size="37.0" fill="#000000" transform="matrix(1.00, 0.00, -0.00, -1.00, 506.0, 331.0)">л</text><text xml:space="preserve" font-family="Helvetica-Light,Helvetica" font-size="37.0" fill="#000000" transform="matrix(1.00, 0.00, -0.00, -1.00, 526.9, 331.0)">и</text><text xml:space="preserve" font-family="Helvetica-Light,Helvetica" font-size="37.0" fill="#000000" transform="matrix(1.00, 0.00, -0.00, -1.00, 547.1, 331.0)"> </text><text xml:space="preserve" font-family="Helvetica-Light,Helvetica" font-size="37.0" fill="#000000" transform="matrix(1.00, 0.00, -0.00, -1.00, 557.4, 331.0)">л</text><text xml:space="preserve" font-family="Helvetica-Light,Helvetica" font-size="37.0" fill="#000000" transform="matrix(1.00, 0.00, -0.00, -1.00, 578.3, 331.0)">и</text><text xml:space="preserve" font-family="Helvetica-Light,Helvetica" font-size="37.0" fill="#000000" transform="matrix(1.00, 0.00, -0.00, -1.00, 598.4, 331.0)">ш</text><text xml:space="preserve" font-family="Helvetica-Light,Helvetica" font-size="37.0" fill="#000000" transform="matrix(1.00, 0.00, -0.00, -1.00, 627.4, 331.0)">ь</text><text xml:space="preserve" font-family="Helvetica-Light,Helvetica" font-size="37.0" fill="#000000" transform="matrix(1.00, 0.00, -0.00, -1.00, 645.9, 331.0)"> </text><text xml:space="preserve" font-family="Helvetica-Light,Helvetica" font-size="37.0" fill="#000000" transform="matrix(1.00, 0.00, -0.00, -1.00, 656.2, 331.0)">«</text><text xml:space="preserve" font-family="Helvetica-Light,Helvetica" font-size="37.0" fill="#000000" transform="matrix(1.00, 0.00, -0.00, -1.00, 676.7, 331.0)">с</text><text xml:space="preserve" font-family="Helvetica-Light,Helvetica" font-size="37.0" fill="#000000" transform="matrix(1.00, 0.00, -0.00, -1.00, 695.9, 331.0)">в</text><text xml:space="preserve" font-family="Helvetica-Light,Helvetica" font-size="37.0" fill="#000000" transform="matrix(1.00, 0.00, -0.00, -1.00, 715.1, 331.0)">о</text><text xml:space="preserve" font-family="Helvetica-Light,Helvetica" font-size="37.0" fill="#000000" transform="matrix(1.00, 0.00, -0.00, -1.00, 735.6, 331.0)">и</text><text xml:space="preserve" font-family="Helvetica-Light,Helvetica" font-size="37.0" fill="#000000" transform="matrix(1.00, 0.00, -0.00, -1.00, 755.8, 331.0)">»</text><text xml:space="preserve" font-family="Helvetica-Light,Helvetica" font-size="37.0" fill="#000000" transform="matrix(1.00, 0.00, -0.00, -1.00, 776.3, 331.0)"> </text><text xml:space="preserve" font-family="Helvetica-Light,Helvetica" font-size="27.8" fill="#000000" transform="matrix(1.00, 0.00, -0.00, -1.00, 245.8, 279.6)">•</text><text xml:space="preserve" font-family="Helvetica-Light,Helvetica" font-size="37.0" fill="#000000" transform="matrix(1.00, 0.00, -0.00, -1.00, 269.1, 275.7)">В</text><text xml:space="preserve" font-family="Helvetica-Light,Helvetica" font-size="37.0" fill="#000000" transform="matrix(1.00, 0.00, -0.00, -1.00, 293.8, 275.7)">т</text><text xml:space="preserve" font-family="Helvetica-Light,Helvetica" font-size="37.0" fill="#000000" transform="matrix(1.00, 0.00, -0.00, -1.00, 310.2, 275.7)">о</text><text xml:space="preserve" font-family="Helvetica-Light,Helvetica" font-size="37.0" fill="#000000" transform="matrix(1.00, 0.00, -0.00, -1.00, 330.8, 275.7)">р</text><text xml:space="preserve" font-family="Helvetica-Light,Helvetica" font-size="37.0" fill="#000000" transform="matrix(1.00, 0.00, -0.00, -1.00, 352.0, 275.7)">а</text><text xml:space="preserve" font-family="Helvetica-Light,Helvetica" font-size="37.0" fill="#000000" transform="matrix(1.00, 0.00, -0.00, -1.00, 371.2, 275.7)">я</text><text xml:space="preserve" font-family="Helvetica-Light,Helvetica" font-size="37.0" fill="#000000" transform="matrix(1.00, 0.00, -0.00, -1.00, 389.9, 275.7)"> </text><text xml:space="preserve" font-family="Helvetica-Light,Helvetica" font-size="37.0" fill="#000000" transform="matrix(1.00, 0.00, -0.00, -1.00, 400.2, 275.7)">п</text><text xml:space="preserve" font-family="Helvetica-Light,Helvetica" font-size="37.0" fill="#000000" transform="matrix(1.00, 0.00, -0.00, -1.00, 419.8, 275.7)">о</text><text xml:space="preserve" font-family="Helvetica-Light,Helvetica" font-size="37.0" fill="#000000" transform="matrix(1.00, 0.00, -0.00, -1.00, 440.4, 275.7)">л</text><text xml:space="preserve" font-family="Helvetica-Light,Helvetica" font-size="37.0" fill="#000000" transform="matrix(1.00, 0.00, -0.00, -1.00, 461.3, 275.7)">о</text><text xml:space="preserve" font-family="Helvetica-Light,Helvetica" font-size="37.0" fill="#000000" transform="matrix(1.00, 0.00, -0.00, -1.00, 481.9, 275.7)">в</text><text xml:space="preserve" font-family="Helvetica-Light,Helvetica" font-size="37.0" fill="#000000" transform="matrix(1.00, 0.00, -0.00, -1.00, 501.0, 275.7)">и</text><text xml:space="preserve" font-family="Helvetica-Light,Helvetica" font-size="37.0" fill="#000000" transform="matrix(1.00, 0.00, -0.00, -1.00, 521.1, 275.7)">н</text><text xml:space="preserve" font-family="Helvetica-Light,Helvetica" font-size="37.0" fill="#000000" transform="matrix(1.00, 0.00, -0.00, -1.00, 541.0, 275.7)">а</text><text xml:space="preserve" font-family="Helvetica-Light,Helvetica" font-size="37.0" fill="#000000" transform="matrix(1.00, 0.00, -0.00, -1.00, 560.2, 275.7)"> </text><text xml:space="preserve" font-family="Helvetica-Light,Helvetica" font-size="37.0" fill="#000000" transform="matrix(1.00, 0.00, -0.00, -1.00, 570.5, 275.7)">2</text><text xml:space="preserve" font-family="Helvetica-Light,Helvetica" font-size="37.0" fill="#000000" transform="matrix(1.00, 0.00, -0.00, -1.00, 591.1, 275.7)">0</text><text xml:space="preserve" font-family="Helvetica-Light,Helvetica" font-size="37.0" fill="#000000" transform="matrix(1.00, 0.00, -0.00, -1.00, 611.6, 275.7)">0</text><text xml:space="preserve" font-family="Helvetica-Light,Helvetica" font-size="37.0" fill="#000000" transform="matrix(1.00, 0.00, -0.00, -1.00, 632.2, 275.7)">0</text><text xml:space="preserve" font-family="Helvetica-Light,Helvetica" font-size="37.0" fill="#000000" transform="matrix(1.00, 0.00, -0.00, -1.00, 652.8, 275.7)">-</text><text xml:space="preserve" font-family="Helvetica-Light,Helvetica" font-size="37.0" fill="#000000" transform="matrix(1.00, 0.00, -0.00, -1.00, 665.1, 275.7)">ы</text><text xml:space="preserve" font-family="Helvetica-Light,Helvetica" font-size="37.0" fill="#000000" transform="matrix(1.00, 0.00, -0.00, -1.00, 689.9, 275.7)">х</text><text xml:space="preserve" font-family="Helvetica-Light,Helvetica" font-size="37.0" fill="#000000" transform="matrix(1.00, 0.00, -0.00, -1.00, 707.7, 275.7)"> </text><text xml:space="preserve" font-family="Helvetica-Light,Helvetica" font-size="27.8" fill="#000000" transform="matrix(1.00, 0.00, -0.00, -1.00, 280.8, 221.4)">•</text><text xml:space="preserve" font-family="Helvetica-Light,Helvetica" font-size="37.0" fill="#000000" transform="matrix(1.00, 0.00, -0.00, -1.00, 304.1, 217.5)">Р</text><text xml:space="preserve" font-family="Helvetica-Light,Helvetica" font-size="37.0" fill="#000000" transform="matrix(1.00, 0.00, -0.00, -1.00, 327.4, 217.5)">о</text><text xml:space="preserve" font-family="Helvetica-Light,Helvetica" font-size="37.0" fill="#000000" transform="matrix(1.00, 0.00, -0.00, -1.00, 348.0, 217.5)">с</text><text xml:space="preserve" font-family="Helvetica-Light,Helvetica" font-size="37.0" fill="#000000" transform="matrix(1.00, 0.00, -0.00, -1.00, 367.2, 217.5)">т</text><text xml:space="preserve" font-family="Helvetica-Light,Helvetica" font-size="37.0" fill="#000000" transform="matrix(1.00, 0.00, -0.00, -1.00, 383.6, 217.5)"> </text><text xml:space="preserve" font-family="Helvetica-Light,Helvetica" font-size="37.0" fill="#000000" transform="matrix(1.00, 0.00, -0.00, -1.00, 393.9, 217.5)">п</text><text xml:space="preserve" font-family="Helvetica-Light,Helvetica" font-size="37.0" fill="#000000" transform="matrix(1.00, 0.00, -0.00, -1.00, 413.5, 217.5)">о</text><text xml:space="preserve" font-family="Helvetica-Light,Helvetica" font-size="37.0" fill="#000000" transform="matrix(1.00, 0.00, -0.00, -1.00, 434.1, 217.5)">п</text><text xml:space="preserve" font-family="Helvetica-Light,Helvetica" font-size="37.0" fill="#000000" transform="matrix(1.00, 0.00, -0.00, -1.00, 453.7, 217.5)">у</text><text xml:space="preserve" font-family="Helvetica-Light,Helvetica" font-size="37.0" fill="#000000" transform="matrix(1.00, 0.00, -0.00, -1.00, 470.8, 217.5)">л</text><text xml:space="preserve" font-family="Helvetica-Light,Helvetica" font-size="37.0" fill="#000000" transform="matrix(1.00, 0.00, -0.00, -1.00, 491.7, 217.5)">я</text><text xml:space="preserve" font-family="Helvetica-Light,Helvetica" font-size="37.0" fill="#000000" transform="matrix(1.00, 0.00, -0.00, -1.00, 510.4, 217.5)">р</text><text xml:space="preserve" font-family="Helvetica-Light,Helvetica" font-size="37.0" fill="#000000" transform="matrix(1.00, 0.00, -0.00, -1.00, 531.7, 217.5)">н</text><text xml:space="preserve" font-family="Helvetica-Light,Helvetica" font-size="37.0" fill="#000000" transform="matrix(1.00, 0.00, -0.00, -1.00, 551.6, 217.5)">о</text><text xml:space="preserve" font-family="Helvetica-Light,Helvetica" font-size="37.0" fill="#000000" transform="matrix(1.00, 0.00, -0.00, -1.00, 572.1, 217.5)">с</text><text xml:space="preserve" font-family="Helvetica-Light,Helvetica" font-size="37.0" fill="#000000" transform="matrix(1.00, 0.00, -0.00, -1.00, 591.3, 217.5)">т</text><text xml:space="preserve" font-family="Helvetica-Light,Helvetica" font-size="37.0" fill="#000000" transform="matrix(1.00, 0.00, -0.00, -1.00, 607.7, 217.5)">и</text><text xml:space="preserve" font-family="Helvetica-Light,Helvetica" font-size="18.0" fill="#000000" transform="matrix(1.00, 0.00, -0.00, -1.00, 506.5, 17.6)">7</text></g></svg>