<?xml version="1.0" encoding="UTF-8" standalone="no"?><svg xmlns="http://www.w3.org/2000/svg" xmlns:xlink="http://www.w3.org/1999/xlink" clip-rule="evenodd" stroke-miterlimit="10" viewBox="0 0 1024 768"><desc>SVG generated by Keynote</desc><defs></defs><g transform="matrix(1.00, 0.00, -0.00, -1.00, 0.0, 768.0)"><path d="M 0.0 768.0 L 1024.0 768.0 L 1024.0 0.0 L 0.0 0.0 Z M 0.0 768.0 " fill="#FEFFFF"></path><text xml:space="preserve" font-family="Helvetica-Light,Helvetica" font-size="50.0" fill="#000000" transform="matrix(1.00, 0.00, -0.00, -1.00, 357.8, 664.5)">H</text><text xml:space="preserve" font-family="Helvetica-Light,Helvetica" font-size="50.0" fill="#000000" transform="matrix(1.00, 0.00, -0.00, -1.00, 393.9, 664.5)">e</text><text xml:space="preserve" font-family="Helvetica-Light,Helvetica" font-size="50.0" fill="#000000" transform="matrix(1.00, 0.00, -0.00, -1.00, 421.7, 664.5)">l</text><text xml:space="preserve" font-family="Helvetica-Light,Helvetica" font-size="50.0" fill="#000000" transform="matrix(1.00, 0.00, -0.00, -1.00, 432.8, 664.5)">l</text><text xml:space="preserve" font-family="Helvetica-Light,Helvetica" font-size="50.0" fill="#000000" transform="matrix(1.00, 0.00, -0.00, -1.00, 443.9, 664.5)">o</text><text xml:space="preserve" font-family="Helvetica-Light,Helvetica" font-size="50.0" fill="#000000" transform="matrix(1.00, 0.00, -0.00, -1.00, 471.7, 664.5)"> </text><text xml:space="preserve" font-family="Helvetica-Light,Helvetica" font-size="50.0" fill="#000000" transform="matrix(1.00, 0.00, -0.00, -1.00, 485.6, 664.5)">w</text><text xml:space="preserve" font-family="Helvetica-Light,Helvetica" font-size="50.0" fill="#000000" transform="matrix(1.00, 0.00, -0.00, -1.00, 521.7, 664.5)">o</text><text xml:space="preserve" font-family="Helvetica-Light,Helvetica" font-size="50.0" fill="#000000" transform="matrix(1.00, 0.00, -0.00, -1.00, 549.5, 664.5)">r</text><text xml:space="preserve" font-family="Helvetica-Light,Helvetica" font-size="50.0" fill="#000000" transform="matrix(1.00, 0.00, -0.00, -1.00, 566.2, 664.5)">l</text><text xml:space="preserve" font-family="Helvetica-Light,Helvetica" font-size="50.0" fill="#000000" transform="matrix(1.00, 0.00, -0.00, -1.00, 577.3, 664.5)">d</text><text xml:space="preserve" font-family="Helvetica-Light,Helvetica" font-size="50.0" fill="#000000" transform="matrix(1.00, 0.00, -0.00, -1.00, 607.8, 664.5)">!</text><text xml:space="preserve" font-family="Helvetica-Light,Helvetica" font-size="50.0" fill="#000000" transform="matrix(1.00, 0.00, -0.00, -1.00, 624.5, 664.5)"> </text><text xml:space="preserve" font-family="Helvetica-Light,Helvetica" font-size="50.0" fill="#000000" transform="matrix(1.00, 0.00, -0.00, -1.00, 638.4, 664.5)">2</text><path d="M 152.0 603.0 L 873.0 603.0 L 873.0 53.0 L 152.0 53.0 Z M 151.5 602.9 " fill="#DCDDE0"></path><g><clipPath id="clip0x7ff531209610"><path d="M 146.0 41.9 L 1574.9 41.9 L 1574.9 607.9 L 146.0 607.9 Z M 146.0 41.9 "></path></clipPath><g clip-path="url(#clip0x7ff531209610)"><text xml:space="preserve" font-family="Consolas,Consolas" font-size="36.0" fill="#000000" transform="matrix(1.00, 0.00, -0.00, -1.00, 155.5, 572.3)">-</text><text xml:space="preserve" font-family="Consolas,Consolas" font-size="36.0" fill="#000000" transform="matrix(1.00, 0.00, -0.00, -1.00, 175.3, 572.3)">­</text><text xml:space="preserve" font-family="Consolas,Consolas" font-size="36.0" fill="#000000" transform="matrix(1.00, 0.00, -0.00, -1.00, 175.3, 572.3)">‐</text><text xml:space="preserve" font-family="Consolas,Consolas" font-size="36.0" fill="#164E86" transform="matrix(1.00, 0.00, -0.00, -1.00, 175.3, 572.3)">m</text><text xml:space="preserve" font-family="Consolas,Consolas" font-size="36.0" fill="#164E86" transform="matrix(1.00, 0.00, -0.00, -1.00, 195.1, 572.3)">o</text><text xml:space="preserve" font-family="Consolas,Consolas" font-size="36.0" fill="#164E86" transform="matrix(1.00, 0.00, -0.00, -1.00, 214.9, 572.3)">d</text><text xml:space="preserve" font-family="Consolas,Consolas" font-size="36.0" fill="#164E86" transform="matrix(1.00, 0.00, -0.00, -1.00, 234.7, 572.3)">u</text><text xml:space="preserve" font-family="Consolas,Consolas" font-size="36.0" fill="#164E86" transform="matrix(1.00, 0.00, -0.00, -1.00, 254.4, 572.3)">l</text><text xml:space="preserve" font-family="Consolas,Consolas" font-size="36.0" fill="#164E86" transform="matrix(1.00, 0.00, -0.00, -1.00, 274.2, 572.3)">e</text><text xml:space="preserve" font-family="Consolas,Consolas" font-size="36.0" fill="#000000" transform="matrix(1.00, 0.00, -0.00, -1.00, 294.1, 572.3)">(</text><text xml:space="preserve" font-family="Consolas,Consolas" font-size="36.0" fill="#000000" transform="matrix(1.00, 0.00, -0.00, -1.00, 313.8, 572.3)">h</text><text xml:space="preserve" font-family="Consolas,Consolas" font-size="36.0" fill="#000000" transform="matrix(1.00, 0.00, -0.00, -1.00, 333.6, 572.3)">e</text><text xml:space="preserve" font-family="Consolas,Consolas" font-size="36.0" fill="#000000" transform="matrix(1.00, 0.00, -0.00, -1.00, 353.4, 572.3)">l</text><text xml:space="preserve" font-family="Consolas,Consolas" font-size="36.0" fill="#000000" transform="matrix(1.00, 0.00, -0.00, -1.00, 373.2, 572.3)">l</text><text xml:space="preserve" font-family="Consolas,Consolas" font-size="36.0" fill="#000000" transform="matrix(1.00, 0.00, -0.00, -1.00, 393.0, 572.3)">o</text><text xml:space="preserve" font-family="Consolas,Consolas" font-size="36.0" fill="#000000" transform="matrix(1.00, 0.00, -0.00, -1.00, 412.8, 572.3)">)</text><text xml:space="preserve" font-family="Consolas,Consolas" font-size="36.0" fill="#000000" transform="matrix(1.00, 0.00, -0.00, -1.00, 432.6, 572.3)">.</text><text xml:space="preserve" font-family="Consolas,Consolas" font-size="36.0" fill="#000000" transform="matrix(1.00, 0.00, -0.00, -1.00, 452.3, 572.3)">	</text><text xml:space="preserve" font-family="Consolas,Consolas" font-size="36.0" fill="#000000" transform="matrix(1.00, 0.00, -0.00, -1.00, 480.3, 572.3)"></text><text xml:space="preserve" font-family="Consolas,Consolas" font-size="36.0" fill="#000000" transform="matrix(1.00, 0.00, -0.00, -1.00, 480.3, 572.3)"> </text><text xml:space="preserve" font-family="Consolas,Consolas" font-size="36.0" fill="#000000" transform="matrix(1.00, 0.00, -0.00, -1.00, 500.1, 572.3)"> </text><text xml:space="preserve" font-family="Consolas,Consolas" font-size="36.0" fill="#000000" transform="matrix(1.00, 0.00, -0.00, -1.00, 155.5, 530.3)">-</text><text xml:space="preserve" font-family="Consolas,Consolas" font-size="36.0" fill="#000000" transform="matrix(1.00, 0.00, -0.00, -1.00, 175.3, 530.3)">­</text><text xml:space="preserve" font-family="Consolas,Consolas" font-size="36.0" fill="#000000" transform="matrix(1.00, 0.00, -0.00, -1.00, 175.3, 530.3)">‐</text><text xml:space="preserve" font-family="Consolas,Consolas" font-size="36.0" fill="#0B5C18" transform="matrix(1.00, 0.00, -0.00, -1.00, 175.3, 530.3)">e</text><text xml:space="preserve" font-family="Consolas,Consolas" font-size="36.0" fill="#0B5C18" transform="matrix(1.00, 0.00, -0.00, -1.00, 195.1, 530.3)">x</text><text xml:space="preserve" font-family="Consolas,Consolas" font-size="36.0" fill="#0B5C18" transform="matrix(1.00, 0.00, -0.00, -1.00, 214.9, 530.3)">p</text><text xml:space="preserve" font-family="Consolas,Consolas" font-size="36.0" fill="#0B5C18" transform="matrix(1.00, 0.00, -0.00, -1.00, 234.7, 530.3)">o</text><text xml:space="preserve" font-family="Consolas,Consolas" font-size="36.0" fill="#0B5C18" transform="matrix(1.00, 0.00, -0.00, -1.00, 254.4, 530.3)">r</text><text xml:space="preserve" font-family="Consolas,Consolas" font-size="36.0" fill="#0B5C18" transform="matrix(1.00, 0.00, -0.00, -1.00, 274.2, 530.3)">t</text><text xml:space="preserve" font-family="Consolas,Consolas" font-size="36.0" fill="#000000" transform="matrix(1.00, 0.00, -0.00, -1.00, 294.1, 530.3)">(</text><text xml:space="preserve" font-family="Consolas,Consolas" font-size="36.0" fill="#000000" transform="matrix(1.00, 0.00, -0.00, -1.00, 313.8, 530.3)">[</text><text xml:space="preserve" font-family="Consolas,Consolas" font-size="36.0" fill="#C82505" transform="matrix(1.00, 0.00, -0.00, -1.00, 333.6, 530.3)">s</text><text xml:space="preserve" font-family="Consolas,Consolas" font-size="36.0" fill="#C82505" transform="matrix(1.00, 0.00, -0.00, -1.00, 353.4, 530.3)">t</text><text xml:space="preserve" font-family="Consolas,Consolas" font-size="36.0" fill="#C82505" transform="matrix(1.00, 0.00, -0.00, -1.00, 373.2, 530.3)">a</text><text xml:space="preserve" font-family="Consolas,Consolas" font-size="36.0" fill="#C82505" transform="matrix(1.00, 0.00, -0.00, -1.00, 393.0, 530.3)">r</text><text xml:space="preserve" font-family="Consolas,Consolas" font-size="36.0" fill="#C82505" transform="matrix(1.00, 0.00, -0.00, -1.00, 412.8, 530.3)">t</text><text xml:space="preserve" font-family="Consolas,Consolas" font-size="36.0" fill="#000000" transform="matrix(1.00, 0.00, -0.00, -1.00, 432.6, 530.3)">/</text><text xml:space="preserve" font-family="Consolas,Consolas" font-size="36.0" fill="#164E86" transform="matrix(1.00, 0.00, -0.00, -1.00, 452.4, 530.3)">0</text><text xml:space="preserve" font-family="Consolas,Consolas" font-size="36.0" fill="#000000" transform="matrix(1.00, 0.00, -0.00, -1.00, 472.2, 530.3)">,</text><text xml:space="preserve" font-family="Consolas,Consolas" font-size="36.0" fill="#000000" transform="matrix(1.00, 0.00, -0.00, -1.00, 492.0, 530.3)">	</text><text xml:space="preserve" font-family="Consolas,Consolas" font-size="36.0" fill="#000000" transform="matrix(1.00, 0.00, -0.00, -1.00, 520.0, 530.3)"></text><text xml:space="preserve" font-family="Consolas,Consolas" font-size="36.0" fill="#000000" transform="matrix(1.00, 0.00, -0.00, -1.00, 520.0, 530.3)"> </text><text xml:space="preserve" font-family="Consolas,Consolas" font-size="36.0" fill="#000000" transform="matrix(1.00, 0.00, -0.00, -1.00, 539.8, 530.3)"> </text><text xml:space="preserve" font-family="Consolas,Consolas" font-size="36.0" fill="#C82505" transform="matrix(1.00, 0.00, -0.00, -1.00, 511.8, 530.3)">l</text><text xml:space="preserve" font-family="Consolas,Consolas" font-size="36.0" fill="#C82505" transform="matrix(1.00, 0.00, -0.00, -1.00, 531.6, 530.3)">o</text><text xml:space="preserve" font-family="Consolas,Consolas" font-size="36.0" fill="#C82505" transform="matrix(1.00, 0.00, -0.00, -1.00, 551.3, 530.3)">o</text><text xml:space="preserve" font-family="Consolas,Consolas" font-size="36.0" fill="#C82505" transform="matrix(1.00, 0.00, -0.00, -1.00, 571.1, 530.3)">p</text><text xml:space="preserve" font-family="Consolas,Consolas" font-size="36.0" fill="#000000" transform="matrix(1.00, 0.00, -0.00, -1.00, 590.9, 530.3)">/</text><text xml:space="preserve" font-family="Consolas,Consolas" font-size="36.0" fill="#164E86" transform="matrix(1.00, 0.00, -0.00, -1.00, 610.7, 530.3)">0</text><text xml:space="preserve" font-family="Consolas,Consolas" font-size="36.0" fill="#000000" transform="matrix(1.00, 0.00, -0.00, -1.00, 630.5, 530.3)">]</text><text xml:space="preserve" font-family="Consolas,Consolas" font-size="36.0" fill="#000000" transform="matrix(1.00, 0.00, -0.00, -1.00, 650.3, 530.3)">)</text><text xml:space="preserve" font-family="Consolas,Consolas" font-size="36.0" fill="#000000" transform="matrix(1.00, 0.00, -0.00, -1.00, 670.1, 530.3)">.</text><text xml:space="preserve" font-family="Consolas,Consolas" font-size="36.0" fill="#000000" transform="matrix(1.00, 0.00, -0.00, -1.00, 689.9, 530.3)">	</text><text xml:space="preserve" font-family="Consolas,Consolas" font-size="36.0" fill="#000000" transform="matrix(1.00, 0.00, -0.00, -1.00, 717.9, 530.3)"></text><text xml:space="preserve" font-family="Consolas,Consolas" font-size="36.0" fill="#000000" transform="matrix(1.00, 0.00, -0.00, -1.00, 717.9, 530.3)"> </text><text xml:space="preserve" font-family="Consolas,Consolas" font-size="36.0" fill="#000000" transform="matrix(1.00, 0.00, -0.00, -1.00, 737.7, 530.3)"> </text><text xml:space="preserve" font-family="Consolas,Consolas" font-size="36.0" fill="#851001" transform="matrix(1.00, 0.00, -0.00, -1.00, 155.5, 446.3)">s</text><text xml:space="preserve" font-family="Consolas,Consolas" font-size="36.0" fill="#851001" transform="matrix(1.00, 0.00, -0.00, -1.00, 175.3, 446.3)">t</text><text xml:space="preserve" font-family="Consolas,Consolas" font-size="36.0" fill="#851001" transform="matrix(1.00, 0.00, -0.00, -1.00, 195.1, 446.3)">a</text><text xml:space="preserve" font-family="Consolas,Consolas" font-size="36.0" fill="#851001" transform="matrix(1.00, 0.00, -0.00, -1.00, 214.9, 446.3)">r</text><text xml:space="preserve" font-family="Consolas,Consolas" font-size="36.0" fill="#851001" transform="matrix(1.00, 0.00, -0.00, -1.00, 234.6, 446.3)">t</text><text xml:space="preserve" font-family="Consolas,Consolas" font-size="36.0" fill="#000000" transform="matrix(1.00, 0.00, -0.00, -1.00, 254.5, 446.3)">(</text><text xml:space="preserve" font-family="Consolas,Consolas" font-size="36.0" fill="#000000" transform="matrix(1.00, 0.00, -0.00, -1.00, 274.3, 446.3)">)</text><text xml:space="preserve" font-family="Consolas,Consolas" font-size="36.0" fill="#000000" transform="matrix(1.00, 0.00, -0.00, -1.00, 294.0, 446.3)">	</text><text xml:space="preserve" font-family="Consolas,Consolas" font-size="36.0" fill="#000000" transform="matrix(1.00, 0.00, -0.00, -1.00, 322.0, 446.3)"></text><text xml:space="preserve" font-family="Consolas,Consolas" font-size="36.0" fill="#000000" transform="matrix(1.00, 0.00, -0.00, -1.00, 322.0, 446.3)"> </text><text xml:space="preserve" font-family="Consolas,Consolas" font-size="36.0" fill="#000000" transform="matrix(1.00, 0.00, -0.00, -1.00, 341.8, 446.3)"> </text><text xml:space="preserve" font-family="Consolas,Consolas" font-size="36.0" fill="#000000" transform="matrix(1.00, 0.00, -0.00, -1.00, 361.6, 446.3)">-</text><text xml:space="preserve" font-family="Consolas,Consolas" font-size="36.0" fill="#000000" transform="matrix(1.00, 0.00, -0.00, -1.00, 381.4, 446.3)">­</text><text xml:space="preserve" font-family="Consolas,Consolas" font-size="36.0" fill="#000000" transform="matrix(1.00, 0.00, -0.00, -1.00, 381.4, 446.3)">‐</text><text xml:space="preserve" font-family="Consolas,Consolas" font-size="36.0" fill="#000000" transform="matrix(1.00, 0.00, -0.00, -1.00, 401.2, 446.3)">&gt;</text><text xml:space="preserve" font-family="Consolas,Consolas" font-size="36.0" fill="#000000" transform="matrix(1.00, 0.00, -0.00, -1.00, 421.0, 446.3)">	</text><text xml:space="preserve" font-family="Consolas,Consolas" font-size="36.0" fill="#000000" transform="matrix(1.00, 0.00, -0.00, -1.00, 449.0, 446.3)"></text><text xml:space="preserve" font-family="Consolas,Consolas" font-size="36.0" fill="#000000" transform="matrix(1.00, 0.00, -0.00, -1.00, 449.0, 446.3)"> </text><text xml:space="preserve" font-family="Consolas,Consolas" font-size="36.0" fill="#000000" transform="matrix(1.00, 0.00, -0.00, -1.00, 468.7, 446.3)"> </text><text xml:space="preserve" font-family="Consolas,Consolas" font-size="36.0" fill="#000000" transform="matrix(1.00, 0.00, -0.00, -1.00, 155.5, 404.3)">	</text><text xml:space="preserve" font-family="Consolas,Consolas" font-size="36.0" fill="#000000" transform="matrix(1.00, 0.00, -0.00, -1.00, 183.5, 404.3)"></text><text xml:space="preserve" font-family="Consolas,Consolas" font-size="36.0" fill="#000000" transform="matrix(1.00, 0.00, -0.00, -1.00, 183.5, 404.3)"> </text><text xml:space="preserve" font-family="Consolas,Consolas" font-size="36.0" fill="#000000" transform="matrix(1.00, 0.00, -0.00, -1.00, 229.5, 404.3)"> </text><text xml:space="preserve" font-family="Consolas,Consolas" font-size="36.0" fill="#000000" transform="matrix(1.00, 0.00, -0.00, -1.00, 275.5, 404.3)">P</text><text xml:space="preserve" font-family="Consolas,Consolas" font-size="36.0" fill="#000000" transform="matrix(1.00, 0.00, -0.00, -1.00, 295.3, 404.3)">i</text><text xml:space="preserve" font-family="Consolas,Consolas" font-size="36.0" fill="#000000" transform="matrix(1.00, 0.00, -0.00, -1.00, 315.1, 404.3)">d</text><text xml:space="preserve" font-family="Consolas,Consolas" font-size="36.0" fill="#000000" transform="matrix(1.00, 0.00, -0.00, -1.00, 334.8, 404.3)">	</text><text xml:space="preserve" font-family="Consolas,Consolas" font-size="36.0" fill="#000000" transform="matrix(1.00, 0.00, -0.00, -1.00, 362.8, 404.3)"></text><text xml:space="preserve" font-family="Consolas,Consolas" font-size="36.0" fill="#000000" transform="matrix(1.00, 0.00, -0.00, -1.00, 362.8, 404.3)"> </text><text xml:space="preserve" font-family="Consolas,Consolas" font-size="36.0" fill="#000000" transform="matrix(1.00, 0.00, -0.00, -1.00, 408.8, 404.3)"> </text><text xml:space="preserve" font-family="Consolas,Consolas" font-size="36.0" fill="#000000" transform="matrix(1.00, 0.00, -0.00, -1.00, 428.6, 404.3)">=</text><text xml:space="preserve" font-family="Consolas,Consolas" font-size="36.0" fill="#000000" transform="matrix(1.00, 0.00, -0.00, -1.00, 448.4, 404.3)">	</text><text xml:space="preserve" font-family="Consolas,Consolas" font-size="36.0" fill="#000000" transform="matrix(1.00, 0.00, -0.00, -1.00, 476.4, 404.3)"></text><text xml:space="preserve" font-family="Consolas,Consolas" font-size="36.0" fill="#000000" transform="matrix(1.00, 0.00, -0.00, -1.00, 476.4, 404.3)"> </text><text xml:space="preserve" font-family="Consolas,Consolas" font-size="36.0" fill="#000000" transform="matrix(1.00, 0.00, -0.00, -1.00, 522.4, 404.3)"> </text><text xml:space="preserve" font-family="Consolas,Consolas" font-size="36.0" fill="#000000" transform="matrix(1.00, 0.00, -0.00, -1.00, 542.2, 404.3)">s</text><text xml:space="preserve" font-family="Consolas,Consolas" font-size="36.0" fill="#000000" transform="matrix(1.00, 0.00, -0.00, -1.00, 562.0, 404.3)">p</text><text xml:space="preserve" font-family="Consolas,Consolas" font-size="36.0" fill="#000000" transform="matrix(1.00, 0.00, -0.00, -1.00, 581.8, 404.3)">a</text><text xml:space="preserve" font-family="Consolas,Consolas" font-size="36.0" fill="#000000" transform="matrix(1.00, 0.00, -0.00, -1.00, 601.5, 404.3)">w</text><text xml:space="preserve" font-family="Consolas,Consolas" font-size="36.0" fill="#000000" transform="matrix(1.00, 0.00, -0.00, -1.00, 621.3, 404.3)">n</text><text xml:space="preserve" font-family="Consolas,Consolas" font-size="36.0" fill="#000000" transform="matrix(1.00, 0.00, -0.00, -1.00, 641.1, 404.3)">(</text><text xml:space="preserve" font-family="Consolas,Consolas" font-size="36.0" fill="#000000" transform="matrix(1.00, 0.00, -0.00, -1.00, 660.9, 404.3)">h</text><text xml:space="preserve" font-family="Consolas,Consolas" font-size="36.0" fill="#000000" transform="matrix(1.00, 0.00, -0.00, -1.00, 680.7, 404.3)">e</text><text xml:space="preserve" font-family="Consolas,Consolas" font-size="36.0" fill="#000000" transform="matrix(1.00, 0.00, -0.00, -1.00, 700.5, 404.3)">l</text><text xml:space="preserve" font-family="Consolas,Consolas" font-size="36.0" fill="#000000" transform="matrix(1.00, 0.00, -0.00, -1.00, 720.3, 404.3)">l</text><text xml:space="preserve" font-family="Consolas,Consolas" font-size="36.0" fill="#000000" transform="matrix(1.00, 0.00, -0.00, -1.00, 740.0, 404.3)">o</text><text xml:space="preserve" font-family="Consolas,Consolas" font-size="36.0" fill="#000000" transform="matrix(1.00, 0.00, -0.00, -1.00, 759.8, 404.3)">,</text><text xml:space="preserve" font-family="Consolas,Consolas" font-size="36.0" fill="#000000" transform="matrix(1.00, 0.00, -0.00, -1.00, 779.6, 404.3)">	</text><text xml:space="preserve" font-family="Consolas,Consolas" font-size="36.0" fill="#000000" transform="matrix(1.00, 0.00, -0.00, -1.00, 807.6, 404.3)"></text><text xml:space="preserve" font-family="Consolas,Consolas" font-size="36.0" fill="#000000" transform="matrix(1.00, 0.00, -0.00, -1.00, 807.6, 404.3)"> </text><text xml:space="preserve" font-family="Consolas,Consolas" font-size="36.0" fill="#000000" transform="matrix(1.00, 0.00, -0.00, -1.00, 853.6, 404.3)"> </text><text xml:space="preserve" font-family="Consolas,Consolas" font-size="36.0" fill="#000000" transform="matrix(1.00, 0.00, -0.00, -1.00, 873.4, 404.3)">l</text><text xml:space="preserve" font-family="Consolas,Consolas" font-size="36.0" fill="#000000" transform="matrix(1.00, 0.00, -0.00, -1.00, 893.2, 404.3)">o</text><text xml:space="preserve" font-family="Consolas,Consolas" font-size="36.0" fill="#000000" transform="matrix(1.00, 0.00, -0.00, -1.00, 913.0, 404.3)">o</text><text xml:space="preserve" font-family="Consolas,Consolas" font-size="36.0" fill="#000000" transform="matrix(1.00, 0.00, -0.00, -1.00, 932.8, 404.3)">p</text><text xml:space="preserve" font-family="Consolas,Consolas" font-size="36.0" fill="#000000" transform="matrix(1.00, 0.00, -0.00, -1.00, 952.5, 404.3)">,</text><text xml:space="preserve" font-family="Consolas,Consolas" font-size="36.0" fill="#000000" transform="matrix(1.00, 0.00, -0.00, -1.00, 972.3, 404.3)">	</text><text xml:space="preserve" font-family="Consolas,Consolas" font-size="36.0" fill="#000000" transform="matrix(1.00, 0.00, -0.00, -1.00, 1000.3, 404.3)"></text><text xml:space="preserve" font-family="Consolas,Consolas" font-size="36.0" fill="#000000" transform="matrix(1.00, 0.00, -0.00, -1.00, 1000.3, 404.3)"> </text><text xml:space="preserve" font-family="Consolas,Consolas" font-size="36.0" fill="#000000" transform="matrix(1.00, 0.00, -0.00, -1.00, 1046.3, 404.3)"> </text><text xml:space="preserve" font-family="Consolas,Consolas" font-size="36.0" fill="#000000" transform="matrix(1.00, 0.00, -0.00, -1.00, 1066.1, 404.3)">[</text><text xml:space="preserve" font-family="Consolas,Consolas" font-size="36.0" fill="#000000" transform="matrix(1.00, 0.00, -0.00, -1.00, 1085.9, 404.3)">]</text><text xml:space="preserve" font-family="Consolas,Consolas" font-size="36.0" fill="#000000" transform="matrix(1.00, 0.00, -0.00, -1.00, 1105.7, 404.3)">)</text><text xml:space="preserve" font-family="Consolas,Consolas" font-size="36.0" fill="#000000" transform="matrix(1.00, 0.00, -0.00, -1.00, 1125.5, 404.3)">,</text><text xml:space="preserve" font-family="Consolas,Consolas" font-size="36.0" fill="#000000" transform="matrix(1.00, 0.00, -0.00, -1.00, 1145.3, 404.3)">	</text><text xml:space="preserve" font-family="Consolas,Consolas" font-size="36.0" fill="#000000" transform="matrix(1.00, 0.00, -0.00, -1.00, 1173.3, 404.3)"></text><text xml:space="preserve" font-family="Consolas,Consolas" font-size="36.0" fill="#000000" transform="matrix(1.00, 0.00, -0.00, -1.00, 1173.3, 404.3)"> </text><text xml:space="preserve" font-family="Consolas,Consolas" font-size="36.0" fill="#000000" transform="matrix(1.00, 0.00, -0.00, -1.00, 1219.2, 404.3)"> </text><text xml:space="preserve" font-family="Consolas,Consolas" font-size="36.0" fill="#000000" transform="matrix(1.00, 0.00, -0.00, -1.00, 155.5, 361.2)">	</text><text xml:space="preserve" font-family="Consolas,Consolas" font-size="36.0" fill="#000000" transform="matrix(1.00, 0.00, -0.00, -1.00, 183.5, 361.2)"></text><text xml:space="preserve" font-family="Consolas,Consolas" font-size="36.0" fill="#000000" transform="matrix(1.00, 0.00, -0.00, -1.00, 183.5, 361.2)"> </text><text xml:space="preserve" font-family="Consolas,Consolas" font-size="36.0" fill="#000000" transform="matrix(1.00, 0.00, -0.00, -1.00, 229.5, 361.2)"> </text><text xml:space="preserve" font-family="Consolas,Consolas" font-size="36.0" fill="#000000" transform="matrix(1.00, 0.00, -0.00, -1.00, 275.5, 361.2)">P</text><text xml:space="preserve" font-family="Consolas,Consolas" font-size="36.0" fill="#000000" transform="matrix(1.00, 0.00, -0.00, -1.00, 295.3, 361.2)">i</text><text xml:space="preserve" font-family="Consolas,Consolas" font-size="36.0" fill="#000000" transform="matrix(1.00, 0.00, -0.00, -1.00, 315.1, 361.2)">d</text><text xml:space="preserve" font-family="Consolas,Consolas" font-size="36.0" fill="#000000" transform="matrix(1.00, 0.00, -0.00, -1.00, 334.8, 361.2)">	</text><text xml:space="preserve" font-family="Consolas,Consolas" font-size="36.0" fill="#000000" transform="matrix(1.00, 0.00, -0.00, -1.00, 362.8, 361.2)"></text><text xml:space="preserve" font-family="Consolas,Consolas" font-size="36.0" fill="#000000" transform="matrix(1.00, 0.00, -0.00, -1.00, 362.8, 361.2)"> </text><text xml:space="preserve" font-family="Consolas,Consolas" font-size="36.0" fill="#000000" transform="matrix(1.00, 0.00, -0.00, -1.00, 408.8, 361.2)"> </text><text xml:space="preserve" font-family="Consolas,Consolas" font-size="36.0" fill="#000000" transform="matrix(1.00, 0.00, -0.00, -1.00, 428.6, 361.2)">!</text><text xml:space="preserve" font-family="Consolas,Consolas" font-size="36.0" fill="#000000" transform="matrix(1.00, 0.00, -0.00, -1.00, 448.4, 361.2)">	</text><text xml:space="preserve" font-family="Consolas,Consolas" font-size="36.0" fill="#000000" transform="matrix(1.00, 0.00, -0.00, -1.00, 476.4, 361.2)"></text><text xml:space="preserve" font-family="Consolas,Consolas" font-size="36.0" fill="#000000" transform="matrix(1.00, 0.00, -0.00, -1.00, 476.4, 361.2)"> </text><text xml:space="preserve" font-family="Consolas,Consolas" font-size="36.0" fill="#000000" transform="matrix(1.00, 0.00, -0.00, -1.00, 522.4, 361.2)"> </text><text xml:space="preserve" font-family="Consolas,Consolas" font-size="38.0" fill="#000000" transform="matrix(1.00, 0.00, -0.00, -1.00, 320.3, 361.2)">h</text><text xml:space="preserve" font-family="Consolas,Consolas" font-size="38.0" fill="#000000" transform="matrix(1.00, 0.00, -0.00, -1.00, 341.1, 361.2)">e</text><text xml:space="preserve" font-family="Consolas,Consolas" font-size="38.0" fill="#000000" transform="matrix(1.00, 0.00, -0.00, -1.00, 362.0, 361.2)">l</text><text xml:space="preserve" font-family="Consolas,Consolas" font-size="38.0" fill="#000000" transform="matrix(1.00, 0.00, -0.00, -1.00, 382.9, 361.2)">l</text><text xml:space="preserve" font-family="Consolas,Consolas" font-size="38.0" fill="#000000" transform="matrix(1.00, 0.00, -0.00, -1.00, 403.8, 361.2)">o</text><text xml:space="preserve" font-family="Consolas,Consolas" font-size="36.0" fill="#000000" transform="matrix(1.00, 0.00, -0.00, -1.00, 424.7, 361.2)">.</text><text xml:space="preserve" font-family="Consolas,Consolas" font-size="36.0" fill="#000000" transform="matrix(1.00, 0.00, -0.00, -1.00, 444.5, 361.2)">	</text><text xml:space="preserve" font-family="Consolas,Consolas" font-size="36.0" fill="#000000" transform="matrix(1.00, 0.00, -0.00, -1.00, 472.5, 361.2)"></text><text xml:space="preserve" font-family="Consolas,Consolas" font-size="36.0" fill="#000000" transform="matrix(1.00, 0.00, -0.00, -1.00, 472.5, 361.2)"> </text><text xml:space="preserve" font-family="Consolas,Consolas" font-size="36.0" fill="#000000" transform="matrix(1.00, 0.00, -0.00, -1.00, 492.3, 361.2)"> </text><text xml:space="preserve" font-family="Consolas,Consolas" font-size="36.0" fill="#851001" transform="matrix(1.00, 0.00, -0.00, -1.00, 155.5, 276.3)">l</text><text xml:space="preserve" font-family="Consolas,Consolas" font-size="36.0" fill="#851001" transform="matrix(1.00, 0.00, -0.00, -1.00, 175.3, 276.3)">o</text><text xml:space="preserve" font-family="Consolas,Consolas" font-size="36.0" fill="#851001" transform="matrix(1.00, 0.00, -0.00, -1.00, 195.1, 276.3)">o</text><text xml:space="preserve" font-family="Consolas,Consolas" font-size="36.0" fill="#851001" transform="matrix(1.00, 0.00, -0.00, -1.00, 214.9, 276.3)">p</text><text xml:space="preserve" font-family="Consolas,Consolas" font-size="36.0" fill="#000000" transform="matrix(1.00, 0.00, -0.00, -1.00, 234.7, 276.3)">(</text><text xml:space="preserve" font-family="Consolas,Consolas" font-size="36.0" fill="#000000" transform="matrix(1.00, 0.00, -0.00, -1.00, 254.5, 276.3)">)</text><text xml:space="preserve" font-family="Consolas,Consolas" font-size="36.0" fill="#000000" transform="matrix(1.00, 0.00, -0.00, -1.00, 274.2, 276.3)">	</text><text xml:space="preserve" font-family="Consolas,Consolas" font-size="36.0" fill="#000000" transform="matrix(1.00, 0.00, -0.00, -1.00, 302.2, 276.3)"></text><text xml:space="preserve" font-family="Consolas,Consolas" font-size="36.0" fill="#000000" transform="matrix(1.00, 0.00, -0.00, -1.00, 302.2, 276.3)"> </text><text xml:space="preserve" font-family="Consolas,Consolas" font-size="36.0" fill="#000000" transform="matrix(1.00, 0.00, -0.00, -1.00, 322.0, 276.3)"> </text><text xml:space="preserve" font-family="Consolas,Consolas" font-size="36.0" fill="#000000" transform="matrix(1.00, 0.00, -0.00, -1.00, 341.8, 276.3)">-</text><text xml:space="preserve" font-family="Consolas,Consolas" font-size="36.0" fill="#000000" transform="matrix(1.00, 0.00, -0.00, -1.00, 361.6, 276.3)">­</text><text xml:space="preserve" font-family="Consolas,Consolas" font-size="36.0" fill="#000000" transform="matrix(1.00, 0.00, -0.00, -1.00, 361.6, 276.3)">‐</text><text xml:space="preserve" font-family="Consolas,Consolas" font-size="36.0" fill="#000000" transform="matrix(1.00, 0.00, -0.00, -1.00, 381.4, 276.3)">&gt;</text><text xml:space="preserve" font-family="Consolas,Consolas" font-size="36.0" fill="#000000" transform="matrix(1.00, 0.00, -0.00, -1.00, 401.2, 276.3)">	</text><text xml:space="preserve" font-family="Consolas,Consolas" font-size="36.0" fill="#000000" transform="matrix(1.00, 0.00, -0.00, -1.00, 429.2, 276.3)"></text><text xml:space="preserve" font-family="Consolas,Consolas" font-size="36.0" fill="#000000" transform="matrix(1.00, 0.00, -0.00, -1.00, 429.2, 276.3)"> </text><text xml:space="preserve" font-family="Consolas,Consolas" font-size="36.0" fill="#000000" transform="matrix(1.00, 0.00, -0.00, -1.00, 449.0, 276.3)"> </text><text xml:space="preserve" font-family="Consolas,Consolas" font-size="36.0" fill="#000000" transform="matrix(1.00, 0.00, -0.00, -1.00, 155.5, 234.3)">	</text><text xml:space="preserve" font-family="Consolas,Consolas" font-size="36.0" fill="#000000" transform="matrix(1.00, 0.00, -0.00, -1.00, 183.5, 234.3)"></text><text xml:space="preserve" font-family="Consolas,Consolas" font-size="36.0" fill="#000000" transform="matrix(1.00, 0.00, -0.00, -1.00, 183.5, 234.3)"> </text><text xml:space="preserve" font-family="Consolas,Consolas" font-size="36.0" fill="#000000" transform="matrix(1.00, 0.00, -0.00, -1.00, 229.5, 234.3)"> </text><text xml:space="preserve" font-family="Consolas,Consolas" font-size="36.0" fill="#000000" transform="matrix(1.00, 0.00, -0.00, -1.00, 275.5, 234.3)">r</text><text xml:space="preserve" font-family="Consolas,Consolas" font-size="36.0" fill="#000000" transform="matrix(1.00, 0.00, -0.00, -1.00, 295.3, 234.3)">e</text><text xml:space="preserve" font-family="Consolas,Consolas" font-size="36.0" fill="#000000" transform="matrix(1.00, 0.00, -0.00, -1.00, 315.1, 234.3)">c</text><text xml:space="preserve" font-family="Consolas,Consolas" font-size="36.0" fill="#000000" transform="matrix(1.00, 0.00, -0.00, -1.00, 334.8, 234.3)">e</text><text xml:space="preserve" font-family="Consolas,Consolas" font-size="36.0" fill="#000000" transform="matrix(1.00, 0.00, -0.00, -1.00, 354.6, 234.3)">i</text><text xml:space="preserve" font-family="Consolas,Consolas" font-size="36.0" fill="#000000" transform="matrix(1.00, 0.00, -0.00, -1.00, 374.4, 234.3)">v</text><text xml:space="preserve" font-family="Consolas,Consolas" font-size="36.0" fill="#000000" transform="matrix(1.00, 0.00, -0.00, -1.00, 394.2, 234.3)">e</text><text xml:space="preserve" font-family="Consolas,Consolas" font-size="36.0" fill="#000000" transform="matrix(1.00, 0.00, -0.00, -1.00, 414.0, 234.3)">	</text><text xml:space="preserve" font-family="Consolas,Consolas" font-size="36.0" fill="#000000" transform="matrix(1.00, 0.00, -0.00, -1.00, 442.0, 234.3)"></text><text xml:space="preserve" font-family="Consolas,Consolas" font-size="36.0" fill="#000000" transform="matrix(1.00, 0.00, -0.00, -1.00, 442.0, 234.3)"> </text><text xml:space="preserve" font-family="Consolas,Consolas" font-size="36.0" fill="#000000" transform="matrix(1.00, 0.00, -0.00, -1.00, 488.0, 234.3)"> </text><text xml:space="preserve" font-family="Consolas,Consolas" font-size="36.0" fill="#000000" transform="matrix(1.00, 0.00, -0.00, -1.00, 155.5, 192.3)">	</text><text xml:space="preserve" font-family="Consolas,Consolas" font-size="36.0" fill="#000000" transform="matrix(1.00, 0.00, -0.00, -1.00, 183.5, 192.3)"></text><text xml:space="preserve" font-family="Consolas,Consolas" font-size="36.0" fill="#000000" transform="matrix(1.00, 0.00, -0.00, -1.00, 183.5, 192.3)"> </text><text xml:space="preserve" font-family="Consolas,Consolas" font-size="36.0" fill="#000000" transform="matrix(1.00, 0.00, -0.00, -1.00, 229.5, 192.3)"> </text><text xml:space="preserve" font-family="Consolas,Consolas" font-size="36.0" fill="#000000" transform="matrix(1.00, 0.00, -0.00, -1.00, 275.5, 192.3)">	</text><text xml:space="preserve" font-family="Consolas,Consolas" font-size="36.0" fill="#000000" transform="matrix(1.00, 0.00, -0.00, -1.00, 303.5, 192.3)"></text><text xml:space="preserve" font-family="Consolas,Consolas" font-size="36.0" fill="#000000" transform="matrix(1.00, 0.00, -0.00, -1.00, 303.5, 192.3)"> </text><text xml:space="preserve" font-family="Consolas,Consolas" font-size="36.0" fill="#000000" transform="matrix(1.00, 0.00, -0.00, -1.00, 349.5, 192.3)"> </text><text xml:space="preserve" font-family="Consolas,Consolas" font-size="36.0" fill="#000000" transform="matrix(1.00, 0.00, -0.00, -1.00, 395.5, 192.3)">h</text><text xml:space="preserve" font-family="Consolas,Consolas" font-size="36.0" fill="#000000" transform="matrix(1.00, 0.00, -0.00, -1.00, 415.3, 192.3)">e</text><text xml:space="preserve" font-family="Consolas,Consolas" font-size="36.0" fill="#000000" transform="matrix(1.00, 0.00, -0.00, -1.00, 435.0, 192.3)">l</text><text xml:space="preserve" font-family="Consolas,Consolas" font-size="36.0" fill="#000000" transform="matrix(1.00, 0.00, -0.00, -1.00, 454.8, 192.3)">l</text><text xml:space="preserve" font-family="Consolas,Consolas" font-size="36.0" fill="#000000" transform="matrix(1.00, 0.00, -0.00, -1.00, 474.6, 192.3)">o</text><text xml:space="preserve" font-family="Consolas,Consolas" font-size="36.0" fill="#000000" transform="matrix(1.00, 0.00, -0.00, -1.00, 494.4, 192.3)">	</text><text xml:space="preserve" font-family="Consolas,Consolas" font-size="36.0" fill="#000000" transform="matrix(1.00, 0.00, -0.00, -1.00, 522.4, 192.3)"></text><text xml:space="preserve" font-family="Consolas,Consolas" font-size="36.0" fill="#000000" transform="matrix(1.00, 0.00, -0.00, -1.00, 522.4, 192.3)"> </text><text xml:space="preserve" font-family="Consolas,Consolas" font-size="36.0" fill="#000000" transform="matrix(1.00, 0.00, -0.00, -1.00, 568.4, 192.3)"> </text><text xml:space="preserve" font-family="Consolas,Consolas" font-size="36.0" fill="#000000" transform="matrix(1.00, 0.00, -0.00, -1.00, 588.2, 192.3)">-</text><text xml:space="preserve" font-family="Consolas,Consolas" font-size="36.0" fill="#000000" transform="matrix(1.00, 0.00, -0.00, -1.00, 634.2, 192.3)">­</text><text xml:space="preserve" font-family="Consolas,Consolas" font-size="36.0" fill="#000000" transform="matrix(1.00, 0.00, -0.00, -1.00, 660.4, 192.3)">‐</text><text xml:space="preserve" font-family="Consolas,Consolas" font-size="36.0" fill="#000000" transform="matrix(1.00, 0.00, -0.00, -1.00, 680.2, 192.3)">&gt;</text><text xml:space="preserve" font-family="Consolas,Consolas" font-size="36.0" fill="#000000" transform="matrix(1.00, 0.00, -0.00, -1.00, 700.0, 192.3)">	</text><text xml:space="preserve" font-family="Consolas,Consolas" font-size="36.0" fill="#000000" transform="matrix(1.00, 0.00, -0.00, -1.00, 728.0, 192.3)"></text><text xml:space="preserve" font-family="Consolas,Consolas" font-size="36.0" fill="#000000" transform="matrix(1.00, 0.00, -0.00, -1.00, 728.0, 192.3)"> </text><text xml:space="preserve" font-family="Consolas,Consolas" font-size="36.0" fill="#000000" transform="matrix(1.00, 0.00, -0.00, -1.00, 773.9, 192.3)"> </text><text xml:space="preserve" font-family="Consolas,Consolas" font-size="36.0" fill="#000000" transform="matrix(1.00, 0.00, -0.00, -1.00, 155.5, 150.3)">	</text><text xml:space="preserve" font-family="Consolas,Consolas" font-size="36.0" fill="#000000" transform="matrix(1.00, 0.00, -0.00, -1.00, 183.5, 150.3)"></text><text xml:space="preserve" font-family="Consolas,Consolas" font-size="36.0" fill="#000000" transform="matrix(1.00, 0.00, -0.00, -1.00, 183.5, 150.3)"> </text><text xml:space="preserve" font-family="Consolas,Consolas" font-size="36.0" fill="#000000" transform="matrix(1.00, 0.00, -0.00, -1.00, 229.5, 150.3)"> </text><text xml:space="preserve" font-family="Consolas,Consolas" font-size="36.0" fill="#000000" transform="matrix(1.00, 0.00, -0.00, -1.00, 275.5, 150.3)">	</text><text xml:space="preserve" font-family="Consolas,Consolas" font-size="36.0" fill="#000000" transform="matrix(1.00, 0.00, -0.00, -1.00, 303.5, 150.3)"></text><text xml:space="preserve" font-family="Consolas,Consolas" font-size="36.0" fill="#000000" transform="matrix(1.00, 0.00, -0.00, -1.00, 303.5, 150.3)"> </text><text xml:space="preserve" font-family="Consolas,Consolas" font-size="36.0" fill="#000000" transform="matrix(1.00, 0.00, -0.00, -1.00, 349.5, 150.3)"> </text><text xml:space="preserve" font-family="Consolas,Consolas" font-size="36.0" fill="#000000" transform="matrix(1.00, 0.00, -0.00, -1.00, 395.5, 150.3)">	</text><text xml:space="preserve" font-family="Consolas,Consolas" font-size="36.0" fill="#000000" transform="matrix(1.00, 0.00, -0.00, -1.00, 423.5, 150.3)"></text><text xml:space="preserve" font-family="Consolas,Consolas" font-size="36.0" fill="#000000" transform="matrix(1.00, 0.00, -0.00, -1.00, 423.5, 150.3)"> </text><text xml:space="preserve" font-family="Consolas,Consolas" font-size="36.0" fill="#000000" transform="matrix(1.00, 0.00, -0.00, -1.00, 469.5, 150.3)"> </text><text xml:space="preserve" font-family="Consolas,Consolas" font-size="36.0" fill="#000000" transform="matrix(1.00, 0.00, -0.00, -1.00, 515.5, 150.3)">i</text><text xml:space="preserve" font-family="Consolas,Consolas" font-size="36.0" fill="#000000" transform="matrix(1.00, 0.00, -0.00, -1.00, 535.3, 150.3)">o</text><text xml:space="preserve" font-family="Consolas,Consolas" font-size="36.0" fill="#000000" transform="matrix(1.00, 0.00, -0.00, -1.00, 555.0, 150.3)">:</text><text xml:space="preserve" font-family="Consolas,Consolas" font-size="36.0" fill="#000000" transform="matrix(1.00, 0.00, -0.00, -1.00, 574.8, 150.3)">f</text><text xml:space="preserve" font-family="Consolas,Consolas" font-size="36.0" fill="#000000" transform="matrix(1.00, 0.00, -0.00, -1.00, 594.6, 150.3)">o</text><text xml:space="preserve" font-family="Consolas,Consolas" font-size="36.0" fill="#000000" transform="matrix(1.00, 0.00, -0.00, -1.00, 614.4, 150.3)">r</text><text xml:space="preserve" font-family="Consolas,Consolas" font-size="36.0" fill="#000000" transform="matrix(1.00, 0.00, -0.00, -1.00, 634.2, 150.3)">m</text><text xml:space="preserve" font-family="Consolas,Consolas" font-size="36.0" fill="#000000" transform="matrix(1.00, 0.00, -0.00, -1.00, 654.0, 150.3)">a</text><text xml:space="preserve" font-family="Consolas,Consolas" font-size="36.0" fill="#000000" transform="matrix(1.00, 0.00, -0.00, -1.00, 673.8, 150.3)">t</text><text xml:space="preserve" font-family="Consolas,Consolas" font-size="36.0" fill="#000000" transform="matrix(1.00, 0.00, -0.00, -1.00, 693.5, 150.3)">(</text><text xml:space="preserve" font-family="Consolas,Consolas" font-size="36.0" fill="#000000" transform="matrix(1.00, 0.00, -0.00, -1.00, 713.3, 150.3)">“</text><text xml:space="preserve" font-family="Consolas,Consolas" font-size="36.0" fill="#BD5A0C" transform="matrix(1.00, 0.00, -0.00, -1.00, 511.2, 150.3)">H</text><text xml:space="preserve" font-family="Consolas,Consolas" font-size="36.0" fill="#BD5A0C" transform="matrix(1.00, 0.00, -0.00, -1.00, 531.0, 150.3)">e</text><text xml:space="preserve" font-family="Consolas,Consolas" font-size="36.0" fill="#BD5A0C" transform="matrix(1.00, 0.00, -0.00, -1.00, 550.8, 150.3)">l</text><text xml:space="preserve" font-family="Consolas,Consolas" font-size="36.0" fill="#BD5A0C" transform="matrix(1.00, 0.00, -0.00, -1.00, 570.6, 150.3)">l</text><text xml:space="preserve" font-family="Consolas,Consolas" font-size="36.0" fill="#BD5A0C" transform="matrix(1.00, 0.00, -0.00, -1.00, 590.4, 150.3)">o</text><text xml:space="preserve" font-family="Consolas,Consolas" font-size="36.0" fill="#BD5A0C" transform="matrix(1.00, 0.00, -0.00, -1.00, 610.2, 150.3)">	</text><text xml:space="preserve" font-family="Consolas,Consolas" font-size="36.0" fill="#BD5A0C" transform="matrix(1.00, 0.00, -0.00, -1.00, 638.2, 150.3)"></text><text xml:space="preserve" font-family="Consolas,Consolas" font-size="36.0" fill="#BD5A0C" transform="matrix(1.00, 0.00, -0.00, -1.00, 638.2, 150.3)"> </text><text xml:space="preserve" font-family="Consolas,Consolas" font-size="36.0" fill="#BD5A0C" transform="matrix(1.00, 0.00, -0.00, -1.00, 657.9, 150.3)"> </text><text xml:space="preserve" font-family="Consolas,Consolas" font-size="36.0" fill="#BD5A0C" transform="matrix(1.00, 0.00, -0.00, -1.00, 677.7, 150.3)">w</text><text xml:space="preserve" font-family="Consolas,Consolas" font-size="36.0" fill="#BD5A0C" transform="matrix(1.00, 0.00, -0.00, -1.00, 697.5, 150.3)">o</text><text xml:space="preserve" font-family="Consolas,Consolas" font-size="36.0" fill="#BD5A0C" transform="matrix(1.00, 0.00, -0.00, -1.00, 717.3, 150.3)">r</text><text xml:space="preserve" font-family="Consolas,Consolas" font-size="36.0" fill="#BD5A0C" transform="matrix(1.00, 0.00, -0.00, -1.00, 737.1, 150.3)">l</text><text xml:space="preserve" font-family="Consolas,Consolas" font-size="36.0" fill="#BD5A0C" transform="matrix(1.00, 0.00, -0.00, -1.00, 756.9, 150.3)">d</text><text xml:space="preserve" font-family="Consolas,Consolas" font-size="36.0" fill="#BD5A0C" transform="matrix(1.00, 0.00, -0.00, -1.00, 776.7, 150.3)">!</text><text xml:space="preserve" font-family="Consolas,Consolas" font-size="36.0" fill="#BD5A0C" transform="matrix(1.00, 0.00, -0.00, -1.00, 796.4, 150.3)">~</text><text xml:space="preserve" font-family="Consolas,Consolas" font-size="36.0" fill="#BD5A0C" transform="matrix(1.00, 0.00, -0.00, -1.00, 816.2, 150.3)">n</text><text xml:space="preserve" font-family="Consolas,Consolas" font-size="36.0" fill="#000000" transform="matrix(1.00, 0.00, -0.00, -1.00, 788.3, 150.3)">”</text><text xml:space="preserve" font-family="Consolas,Consolas" font-size="36.0" fill="#000000" transform="matrix(1.00, 0.00, -0.00, -1.00, 808.1, 150.3)">)</text><text xml:space="preserve" font-family="Consolas,Consolas" font-size="36.0" fill="#000000" transform="matrix(1.00, 0.00, -0.00, -1.00, 827.9, 150.3)">,</text><text xml:space="preserve" font-family="Consolas,Consolas" font-size="36.0" fill="#000000" transform="matrix(1.00, 0.00, -0.00, -1.00, 847.7, 150.3)">	</text><text xml:space="preserve" font-family="Consolas,Consolas" font-size="36.0" fill="#000000" transform="matrix(1.00, 0.00, -0.00, -1.00, 875.7, 150.3)"></text><text xml:space="preserve" font-family="Consolas,Consolas" font-size="36.0" fill="#000000" transform="matrix(1.00, 0.00, -0.00, -1.00, 875.7, 150.3)"> </text><text xml:space="preserve" font-family="Consolas,Consolas" font-size="36.0" fill="#000000" transform="matrix(1.00, 0.00, -0.00, -1.00, 895.5, 150.3)"> </text><text xml:space="preserve" font-family="Consolas,Consolas" font-size="36.0" fill="#000000" transform="matrix(1.00, 0.00, -0.00, -1.00, 155.5, 108.3)">	</text><text xml:space="preserve" font-family="Consolas,Consolas" font-size="36.0" fill="#000000" transform="matrix(1.00, 0.00, -0.00, -1.00, 183.5, 108.3)"></text><text xml:space="preserve" font-family="Consolas,Consolas" font-size="36.0" fill="#000000" transform="matrix(1.00, 0.00, -0.00, -1.00, 183.5, 108.3)"> </text><text xml:space="preserve" font-family="Consolas,Consolas" font-size="36.0" fill="#000000" transform="matrix(1.00, 0.00, -0.00, -1.00, 229.5, 108.3)"> </text><text xml:space="preserve" font-family="Consolas,Consolas" font-size="36.0" fill="#000000" transform="matrix(1.00, 0.00, -0.00, -1.00, 275.5, 108.3)">	</text><text xml:space="preserve" font-family="Consolas,Consolas" font-size="36.0" fill="#000000" transform="matrix(1.00, 0.00, -0.00, -1.00, 303.5, 108.3)"></text><text xml:space="preserve" font-family="Consolas,Consolas" font-size="36.0" fill="#000000" transform="matrix(1.00, 0.00, -0.00, -1.00, 303.5, 108.3)"> </text><text xml:space="preserve" font-family="Consolas,Consolas" font-size="36.0" fill="#000000" transform="matrix(1.00, 0.00, -0.00, -1.00, 349.5, 108.3)"> </text><text xml:space="preserve" font-family="Consolas,Consolas" font-size="36.0" fill="#000000" transform="matrix(1.00, 0.00, -0.00, -1.00, 395.5, 108.3)">	</text><text xml:space="preserve" font-family="Consolas,Consolas" font-size="36.0" fill="#000000" transform="matrix(1.00, 0.00, -0.00, -1.00, 423.5, 108.3)"></text><text xml:space="preserve" font-family="Consolas,Consolas" font-size="36.0" fill="#000000" transform="matrix(1.00, 0.00, -0.00, -1.00, 423.5, 108.3)"> </text><text xml:space="preserve" font-family="Consolas,Consolas" font-size="36.0" fill="#000000" transform="matrix(1.00, 0.00, -0.00, -1.00, 469.5, 108.3)"> </text><text xml:space="preserve" font-family="Consolas,Consolas" font-size="36.0" fill="#000000" transform="matrix(1.00, 0.00, -0.00, -1.00, 515.5, 108.3)">l</text><text xml:space="preserve" font-family="Consolas,Consolas" font-size="36.0" fill="#000000" transform="matrix(1.00, 0.00, -0.00, -1.00, 535.3, 108.3)">o</text><text xml:space="preserve" font-family="Consolas,Consolas" font-size="36.0" fill="#000000" transform="matrix(1.00, 0.00, -0.00, -1.00, 555.0, 108.3)">o</text><text xml:space="preserve" font-family="Consolas,Consolas" font-size="36.0" fill="#000000" transform="matrix(1.00, 0.00, -0.00, -1.00, 574.8, 108.3)">p</text><text xml:space="preserve" font-family="Consolas,Consolas" font-size="36.0" fill="#000000" transform="matrix(1.00, 0.00, -0.00, -1.00, 594.6, 108.3)">(</text><text xml:space="preserve" font-family="Consolas,Consolas" font-size="36.0" fill="#000000" transform="matrix(1.00, 0.00, -0.00, -1.00, 614.4, 108.3)">)</text><text xml:space="preserve" font-family="Consolas,Consolas" font-size="36.0" fill="#000000" transform="matrix(1.00, 0.00, -0.00, -1.00, 634.2, 108.3)">	</text><text xml:space="preserve" font-family="Consolas,Consolas" font-size="36.0" fill="#000000" transform="matrix(1.00, 0.00, -0.00, -1.00, 662.2, 108.3)"></text><text xml:space="preserve" font-family="Consolas,Consolas" font-size="36.0" fill="#000000" transform="matrix(1.00, 0.00, -0.00, -1.00, 662.2, 108.3)"> </text><text xml:space="preserve" font-family="Consolas,Consolas" font-size="36.0" fill="#000000" transform="matrix(1.00, 0.00, -0.00, -1.00, 708.2, 108.3)"> </text><text xml:space="preserve" font-family="Consolas,Consolas" font-size="36.0" fill="#000000" transform="matrix(1.00, 0.00, -0.00, -1.00, 155.5, 66.3)">	</text><text xml:space="preserve" font-family="Consolas,Consolas" font-size="36.0" fill="#000000" transform="matrix(1.00, 0.00, -0.00, -1.00, 183.5, 66.3)"></text><text xml:space="preserve" font-family="Consolas,Consolas" font-size="36.0" fill="#000000" transform="matrix(1.00, 0.00, -0.00, -1.00, 183.5, 66.3)"> </text><text xml:space="preserve" font-family="Consolas,Consolas" font-size="36.0" fill="#000000" transform="matrix(1.00, 0.00, -0.00, -1.00, 229.5, 66.3)"> </text><text xml:space="preserve" font-family="Consolas,Consolas" font-size="36.0" fill="#000000" transform="matrix(1.00, 0.00, -0.00, -1.00, 275.5, 66.3)">e</text><text xml:space="preserve" font-family="Consolas,Consolas" font-size="36.0" fill="#000000" transform="matrix(1.00, 0.00, -0.00, -1.00, 295.3, 66.3)">n</text><text xml:space="preserve" font-family="Consolas,Consolas" font-size="36.0" fill="#000000" transform="matrix(1.00, 0.00, -0.00, -1.00, 315.1, 66.3)">d</text><text xml:space="preserve" font-family="Consolas,Consolas" font-size="36.0" fill="#000000" transform="matrix(1.00, 0.00, -0.00, -1.00, 334.8, 66.3)">.</text></g></g><text xml:space="preserve" font-family="Helvetica-Light,Helvetica" font-size="18.0" fill="#000000" transform="matrix(1.00, 0.00, -0.00, -1.00, 501.5, 17.6)">2</text><text xml:space="preserve" font-family="Helvetica-Light,Helvetica" font-size="18.0" fill="#000000" transform="matrix(1.00, 0.00, -0.00, -1.00, 511.5, 17.6)">7</text></g></svg>