<?xml version="1.0" encoding="UTF-8" standalone="no"?><svg xmlns="http://www.w3.org/2000/svg" xmlns:xlink="http://www.w3.org/1999/xlink" clip-rule="evenodd" stroke-miterlimit="10" viewBox="0 0 1024 768"><desc>SVG generated by Keynote</desc><defs></defs><g transform="matrix(1.00, 0.00, -0.00, -1.00, 0.0, 768.0)"><path d="M 0.0 768.0 L 1024.0 768.0 L 1024.0 0.0 L 0.0 0.0 Z M 0.0 768.0 " fill="#FEFFFF"></path><text xml:space="preserve" font-family="Helvetica-Light,Helvetica" font-size="50.0" fill="#000000" transform="matrix(1.00, 0.00, -0.00, -1.00, 302.6, 665.5)">П</text><text xml:space="preserve" font-family="Helvetica-Light,Helvetica" font-size="50.0" fill="#000000" transform="matrix(1.00, 0.00, -0.00, -1.00, 337.2, 665.5)">р</text><text xml:space="preserve" font-family="Helvetica-Light,Helvetica" font-size="50.0" fill="#000000" transform="matrix(1.00, 0.00, -0.00, -1.00, 365.9, 665.5)">и</text><text xml:space="preserve" font-family="Helvetica-Light,Helvetica" font-size="50.0" fill="#000000" transform="matrix(1.00, 0.00, -0.00, -1.00, 393.1, 665.5)">е</text><text xml:space="preserve" font-family="Helvetica-Light,Helvetica" font-size="50.0" fill="#000000" transform="matrix(1.00, 0.00, -0.00, -1.00, 419.1, 665.5)">м</text><text xml:space="preserve" font-family="Helvetica-Light,Helvetica" font-size="50.0" fill="#000000" transform="matrix(1.00, 0.00, -0.00, -1.00, 452.5, 665.5)"> </text><text xml:space="preserve" font-family="Helvetica-Light,Helvetica" font-size="50.0" fill="#000000" transform="matrix(1.00, 0.00, -0.00, -1.00, 466.4, 665.5)">с</text><text xml:space="preserve" font-family="Helvetica-Light,Helvetica" font-size="50.0" fill="#000000" transform="matrix(1.00, 0.00, -0.00, -1.00, 492.4, 665.5)">о</text><text xml:space="preserve" font-family="Helvetica-Light,Helvetica" font-size="50.0" fill="#000000" transform="matrix(1.00, 0.00, -0.00, -1.00, 520.1, 665.5)">о</text><text xml:space="preserve" font-family="Helvetica-Light,Helvetica" font-size="50.0" fill="#000000" transform="matrix(1.00, 0.00, -0.00, -1.00, 548.0, 665.5)">б</text><text xml:space="preserve" font-family="Helvetica-Light,Helvetica" font-size="50.0" fill="#000000" transform="matrix(1.00, 0.00, -0.00, -1.00, 575.8, 665.5)">щ</text><text xml:space="preserve" font-family="Helvetica-Light,Helvetica" font-size="50.0" fill="#000000" transform="matrix(1.00, 0.00, -0.00, -1.00, 616.2, 665.5)">е</text><text xml:space="preserve" font-family="Helvetica-Light,Helvetica" font-size="50.0" fill="#000000" transform="matrix(1.00, 0.00, -0.00, -1.00, 642.1, 665.5)">н</text><text xml:space="preserve" font-family="Helvetica-Light,Helvetica" font-size="50.0" fill="#000000" transform="matrix(1.00, 0.00, -0.00, -1.00, 669.0, 665.5)">и</text><text xml:space="preserve" font-family="Helvetica-Light,Helvetica" font-size="50.0" fill="#000000" transform="matrix(1.00, 0.00, -0.00, -1.00, 696.2, 665.5)">я</text><path d="M 312.0 453.0 L 767.0 453.0 L 767.0 237.0 L 312.0 237.0 Z M 311.6 452.8 " fill="#DCDDE0"></path><g><clipPath id="clip0x7ff531118a90"><path d="M 304.1 221.3 L 1200.1 221.3 L 1200.1 460.3 L 304.1 460.3 Z M 304.1 221.3 "></path></clipPath><g clip-path="url(#clip0x7ff531118a90)"><text xml:space="preserve" font-family="Consolas,Consolas" font-size="46.0" fill="#851001" transform="matrix(1.00, 0.00, -0.00, -1.00, 315.6, 414.5)">f</text><text xml:space="preserve" font-family="Consolas,Consolas" font-size="46.0" fill="#851001" transform="matrix(1.00, 0.00, -0.00, -1.00, 340.9, 414.5)">u</text><text xml:space="preserve" font-family="Consolas,Consolas" font-size="46.0" fill="#851001" transform="matrix(1.00, 0.00, -0.00, -1.00, 366.2, 414.5)">n</text><text xml:space="preserve" font-family="Consolas,Consolas" font-size="46.0" fill="#851001" transform="matrix(1.00, 0.00, -0.00, -1.00, 391.5, 414.5)">c</text><text xml:space="preserve" font-family="Consolas,Consolas" font-size="46.0" fill="#000000" transform="matrix(1.00, 0.00, -0.00, -1.00, 416.8, 414.5)">(</text><text xml:space="preserve" font-family="Consolas,Consolas" font-size="46.0" fill="#000000" transform="matrix(1.00, 0.00, -0.00, -1.00, 442.1, 414.5)">)</text><text xml:space="preserve" font-family="Consolas,Consolas" font-size="46.0" fill="#000000" transform="matrix(1.00, 0.00, -0.00, -1.00, 467.3, 414.5)">	</text><text xml:space="preserve" font-family="Consolas,Consolas" font-size="46.0" fill="#000000" transform="matrix(1.00, 0.00, -0.00, -1.00, 495.3, 414.5)"></text><text xml:space="preserve" font-family="Consolas,Consolas" font-size="46.0" fill="#000000" transform="matrix(1.00, 0.00, -0.00, -1.00, 495.3, 414.5)"> </text><text xml:space="preserve" font-family="Consolas,Consolas" font-size="46.0" fill="#000000" transform="matrix(1.00, 0.00, -0.00, -1.00, 520.6, 414.5)"> </text><text xml:space="preserve" font-family="Consolas,Consolas" font-size="46.0" fill="#000000" transform="matrix(1.00, 0.00, -0.00, -1.00, 545.9, 414.5)">-</text><text xml:space="preserve" font-family="Consolas,Consolas" font-size="46.0" fill="#000000" transform="matrix(1.00, 0.00, -0.00, -1.00, 571.2, 414.5)">­</text><text xml:space="preserve" font-family="Consolas,Consolas" font-size="46.0" fill="#000000" transform="matrix(1.00, 0.00, -0.00, -1.00, 571.2, 414.5)">‐</text><text xml:space="preserve" font-family="Consolas,Consolas" font-size="46.0" fill="#000000" transform="matrix(1.00, 0.00, -0.00, -1.00, 596.5, 414.5)">&gt;</text><text xml:space="preserve" font-family="Consolas,Consolas" font-size="46.0" fill="#000000" transform="matrix(1.00, 0.00, -0.00, -1.00, 621.7, 414.5)">	</text><text xml:space="preserve" font-family="Consolas,Consolas" font-size="46.0" fill="#000000" transform="matrix(1.00, 0.00, -0.00, -1.00, 649.7, 414.5)"></text><text xml:space="preserve" font-family="Consolas,Consolas" font-size="46.0" fill="#000000" transform="matrix(1.00, 0.00, -0.00, -1.00, 649.7, 414.5)"> </text><text xml:space="preserve" font-family="Consolas,Consolas" font-size="46.0" fill="#000000" transform="matrix(1.00, 0.00, -0.00, -1.00, 675.0, 414.5)"> </text><text xml:space="preserve" font-family="Consolas,Consolas" font-size="46.0" fill="#000000" transform="matrix(1.00, 0.00, -0.00, -1.00, 315.6, 360.5)">	</text><text xml:space="preserve" font-family="Consolas,Consolas" font-size="46.0" fill="#000000" transform="matrix(1.00, 0.00, -0.00, -1.00, 343.6, 360.5)"></text><text xml:space="preserve" font-family="Consolas,Consolas" font-size="46.0" fill="#000000" transform="matrix(1.00, 0.00, -0.00, -1.00, 343.6, 360.5)"> </text><text xml:space="preserve" font-family="Consolas,Consolas" font-size="46.0" fill="#000000" transform="matrix(1.00, 0.00, -0.00, -1.00, 389.6, 360.5)"> </text><text xml:space="preserve" font-family="Consolas,Consolas" font-size="46.0" fill="#000000" transform="matrix(1.00, 0.00, -0.00, -1.00, 435.6, 360.5)">r</text><text xml:space="preserve" font-family="Consolas,Consolas" font-size="46.0" fill="#000000" transform="matrix(1.00, 0.00, -0.00, -1.00, 460.9, 360.5)">e</text><text xml:space="preserve" font-family="Consolas,Consolas" font-size="46.0" fill="#000000" transform="matrix(1.00, 0.00, -0.00, -1.00, 486.2, 360.5)">c</text><text xml:space="preserve" font-family="Consolas,Consolas" font-size="46.0" fill="#000000" transform="matrix(1.00, 0.00, -0.00, -1.00, 511.5, 360.5)">e</text><text xml:space="preserve" font-family="Consolas,Consolas" font-size="46.0" fill="#000000" transform="matrix(1.00, 0.00, -0.00, -1.00, 536.8, 360.5)">i</text><text xml:space="preserve" font-family="Consolas,Consolas" font-size="46.0" fill="#000000" transform="matrix(1.00, 0.00, -0.00, -1.00, 562.1, 360.5)">v</text><text xml:space="preserve" font-family="Consolas,Consolas" font-size="46.0" fill="#000000" transform="matrix(1.00, 0.00, -0.00, -1.00, 587.3, 360.5)">e</text><text xml:space="preserve" font-family="Consolas,Consolas" font-size="46.0" fill="#000000" transform="matrix(1.00, 0.00, -0.00, -1.00, 612.6, 360.5)">	</text><text xml:space="preserve" font-family="Consolas,Consolas" font-size="46.0" fill="#000000" transform="matrix(1.00, 0.00, -0.00, -1.00, 640.6, 360.5)"></text><text xml:space="preserve" font-family="Consolas,Consolas" font-size="46.0" fill="#000000" transform="matrix(1.00, 0.00, -0.00, -1.00, 640.6, 360.5)"> </text><text xml:space="preserve" font-family="Consolas,Consolas" font-size="46.0" fill="#000000" transform="matrix(1.00, 0.00, -0.00, -1.00, 686.6, 360.5)"> </text><text xml:space="preserve" font-family="Consolas,Consolas" font-size="46.0" fill="#000000" transform="matrix(1.00, 0.00, -0.00, -1.00, 315.6, 306.5)">	</text><text xml:space="preserve" font-family="Consolas,Consolas" font-size="46.0" fill="#000000" transform="matrix(1.00, 0.00, -0.00, -1.00, 343.6, 306.5)"></text><text xml:space="preserve" font-family="Consolas,Consolas" font-size="46.0" fill="#000000" transform="matrix(1.00, 0.00, -0.00, -1.00, 343.6, 306.5)"> </text><text xml:space="preserve" font-family="Consolas,Consolas" font-size="46.0" fill="#000000" transform="matrix(1.00, 0.00, -0.00, -1.00, 389.6, 306.5)"> </text><text xml:space="preserve" font-family="Consolas,Consolas" font-size="46.0" fill="#000000" transform="matrix(1.00, 0.00, -0.00, -1.00, 435.6, 306.5)">	</text><text xml:space="preserve" font-family="Consolas,Consolas" font-size="46.0" fill="#000000" transform="matrix(1.00, 0.00, -0.00, -1.00, 463.6, 306.5)"></text><text xml:space="preserve" font-family="Consolas,Consolas" font-size="46.0" fill="#000000" transform="matrix(1.00, 0.00, -0.00, -1.00, 463.6, 306.5)"> </text><text xml:space="preserve" font-family="Consolas,Consolas" font-size="46.0" fill="#000000" transform="matrix(1.00, 0.00, -0.00, -1.00, 509.6, 306.5)"> </text><text xml:space="preserve" font-family="Consolas,Consolas" font-size="46.0" fill="#914507" transform="matrix(1.00, 0.00, -0.00, -1.00, 407.6, 306.5)">M</text><text xml:space="preserve" font-family="Consolas,Consolas" font-size="46.0" fill="#914507" transform="matrix(1.00, 0.00, -0.00, -1.00, 432.9, 306.5)">s</text><text xml:space="preserve" font-family="Consolas,Consolas" font-size="46.0" fill="#914507" transform="matrix(1.00, 0.00, -0.00, -1.00, 458.2, 306.5)">g</text><text xml:space="preserve" font-family="Consolas,Consolas" font-size="46.0" fill="#000000" transform="matrix(1.00, 0.00, -0.00, -1.00, 483.5, 306.5)">	</text><text xml:space="preserve" font-family="Consolas,Consolas" font-size="46.0" fill="#000000" transform="matrix(1.00, 0.00, -0.00, -1.00, 511.5, 306.5)"></text><text xml:space="preserve" font-family="Consolas,Consolas" font-size="46.0" fill="#000000" transform="matrix(1.00, 0.00, -0.00, -1.00, 511.5, 306.5)"> </text><text xml:space="preserve" font-family="Consolas,Consolas" font-size="46.0" fill="#000000" transform="matrix(1.00, 0.00, -0.00, -1.00, 536.8, 306.5)"> </text><text xml:space="preserve" font-family="Consolas,Consolas" font-size="46.0" fill="#000000" transform="matrix(1.00, 0.00, -0.00, -1.00, 562.0, 306.5)">-</text><text xml:space="preserve" font-family="Consolas,Consolas" font-size="46.0" fill="#000000" transform="matrix(1.00, 0.00, -0.00, -1.00, 587.3, 306.5)">­</text><text xml:space="preserve" font-family="Consolas,Consolas" font-size="46.0" fill="#000000" transform="matrix(1.00, 0.00, -0.00, -1.00, 587.3, 306.5)">‐</text><text xml:space="preserve" font-family="Consolas,Consolas" font-size="46.0" fill="#000000" transform="matrix(1.00, 0.00, -0.00, -1.00, 612.6, 306.5)">&gt;</text><text xml:space="preserve" font-family="Consolas,Consolas" font-size="46.0" fill="#000000" transform="matrix(1.00, 0.00, -0.00, -1.00, 637.9, 306.5)">	</text><text xml:space="preserve" font-family="Consolas,Consolas" font-size="46.0" fill="#000000" transform="matrix(1.00, 0.00, -0.00, -1.00, 665.9, 306.5)"></text><text xml:space="preserve" font-family="Consolas,Consolas" font-size="46.0" fill="#000000" transform="matrix(1.00, 0.00, -0.00, -1.00, 665.9, 306.5)"> </text><text xml:space="preserve" font-family="Consolas,Consolas" font-size="46.0" fill="#000000" transform="matrix(1.00, 0.00, -0.00, -1.00, 691.2, 306.5)"> </text><text xml:space="preserve" font-family="Consolas,Consolas" font-size="46.0" fill="#5E317B" transform="matrix(1.00, 0.00, -0.00, -1.00, 584.7, 306.5)">A</text><text xml:space="preserve" font-family="Consolas,Consolas" font-size="46.0" fill="#5E317B" transform="matrix(1.00, 0.00, -0.00, -1.00, 609.9, 306.5)">c</text><text xml:space="preserve" font-family="Consolas,Consolas" font-size="46.0" fill="#5E317B" transform="matrix(1.00, 0.00, -0.00, -1.00, 635.2, 306.5)">t</text><text xml:space="preserve" font-family="Consolas,Consolas" font-size="46.0" fill="#5E317B" transform="matrix(1.00, 0.00, -0.00, -1.00, 660.5, 306.5)">i</text><text xml:space="preserve" font-family="Consolas,Consolas" font-size="46.0" fill="#5E317B" transform="matrix(1.00, 0.00, -0.00, -1.00, 685.8, 306.5)">o</text><text xml:space="preserve" font-family="Consolas,Consolas" font-size="46.0" fill="#5E317B" transform="matrix(1.00, 0.00, -0.00, -1.00, 711.1, 306.5)">n</text><text xml:space="preserve" font-family="Consolas,Consolas" font-size="46.0" fill="#000000" transform="matrix(1.00, 0.00, -0.00, -1.00, 736.4, 306.5)">	</text><text xml:space="preserve" font-family="Consolas,Consolas" font-size="46.0" fill="#000000" transform="matrix(1.00, 0.00, -0.00, -1.00, 764.4, 306.5)"></text><text xml:space="preserve" font-family="Consolas,Consolas" font-size="46.0" fill="#000000" transform="matrix(1.00, 0.00, -0.00, -1.00, 764.4, 306.5)"> </text><text xml:space="preserve" font-family="Consolas,Consolas" font-size="46.0" fill="#000000" transform="matrix(1.00, 0.00, -0.00, -1.00, 789.7, 306.5)"> </text><text xml:space="preserve" font-family="Consolas,Consolas" font-size="46.0" fill="#000000" transform="matrix(1.00, 0.00, -0.00, -1.00, 315.6, 252.5)">	</text><text xml:space="preserve" font-family="Consolas,Consolas" font-size="46.0" fill="#000000" transform="matrix(1.00, 0.00, -0.00, -1.00, 343.6, 252.5)"></text><text xml:space="preserve" font-family="Consolas,Consolas" font-size="46.0" fill="#000000" transform="matrix(1.00, 0.00, -0.00, -1.00, 343.6, 252.5)"> </text><text xml:space="preserve" font-family="Consolas,Consolas" font-size="46.0" fill="#000000" transform="matrix(1.00, 0.00, -0.00, -1.00, 389.6, 252.5)"> </text><text xml:space="preserve" font-family="Consolas,Consolas" font-size="46.0" fill="#000000" transform="matrix(1.00, 0.00, -0.00, -1.00, 435.6, 252.5)">e</text><text xml:space="preserve" font-family="Consolas,Consolas" font-size="46.0" fill="#000000" transform="matrix(1.00, 0.00, -0.00, -1.00, 460.9, 252.5)">n</text><text xml:space="preserve" font-family="Consolas,Consolas" font-size="46.0" fill="#000000" transform="matrix(1.00, 0.00, -0.00, -1.00, 486.2, 252.5)">d</text><text xml:space="preserve" font-family="Consolas,Consolas" font-size="46.0" fill="#000000" transform="matrix(1.00, 0.00, -0.00, -1.00, 511.5, 252.5)">.</text></g></g><text xml:space="preserve" font-family="Helvetica-Light,Helvetica" font-size="18.0" fill="#000000" transform="matrix(1.00, 0.00, -0.00, -1.00, 501.5, 17.6)">2</text><text xml:space="preserve" font-family="Helvetica-Light,Helvetica" font-size="18.0" fill="#000000" transform="matrix(1.00, 0.00, -0.00, -1.00, 511.5, 17.6)">6</text><path d="M 124.0 576.0 L 900.0 576.0 L 900.0 527.0 L 124.0 527.0 Z M 124.3 575.9 " fill="#DCDDE0"></path><g><clipPath id="clip0x7ff5310c4b90"><path d="M 118.0 513.7 L 906.0 513.7 L 906.0 582.2 L 118.0 582.2 Z M 118.0 513.7 "></path></clipPath><g clip-path="url(#clip0x7ff5310c4b90)"><text xml:space="preserve" font-family="Consolas,Consolas" font-size="41.0" fill="#5E317B" transform="matrix(1.00, 0.00, -0.00, -1.00, 128.8, 541.5)">P</text><text xml:space="preserve" font-family="Consolas,Consolas" font-size="41.0" fill="#5E317B" transform="matrix(1.00, 0.00, -0.00, -1.00, 151.3, 541.5)">i</text><text xml:space="preserve" font-family="Consolas,Consolas" font-size="41.0" fill="#5E317B" transform="matrix(1.00, 0.00, -0.00, -1.00, 173.9, 541.5)">d</text><text xml:space="preserve" font-family="Consolas,Consolas" font-size="41.0" fill="#000000" transform="matrix(1.00, 0.00, -0.00, -1.00, 196.4, 541.5)">	</text><text xml:space="preserve" font-family="Consolas,Consolas" font-size="41.0" fill="#000000" transform="matrix(1.00, 0.00, -0.00, -1.00, 224.4, 541.5)"></text><text xml:space="preserve" font-family="Consolas,Consolas" font-size="41.0" fill="#000000" transform="matrix(1.00, 0.00, -0.00, -1.00, 224.4, 541.5)"> </text><text xml:space="preserve" font-family="Consolas,Consolas" font-size="41.0" fill="#000000" transform="matrix(1.00, 0.00, -0.00, -1.00, 246.9, 541.5)"> </text><text xml:space="preserve" font-family="Consolas,Consolas" font-size="41.0" fill="#000000" transform="matrix(1.00, 0.00, -0.00, -1.00, 269.5, 541.5)">=</text><text xml:space="preserve" font-family="Consolas,Consolas" font-size="41.0" fill="#000000" transform="matrix(1.00, 0.00, -0.00, -1.00, 292.0, 541.5)">	</text><text xml:space="preserve" font-family="Consolas,Consolas" font-size="41.0" fill="#000000" transform="matrix(1.00, 0.00, -0.00, -1.00, 320.0, 541.5)"></text><text xml:space="preserve" font-family="Consolas,Consolas" font-size="41.0" fill="#000000" transform="matrix(1.00, 0.00, -0.00, -1.00, 320.0, 541.5)"> </text><text xml:space="preserve" font-family="Consolas,Consolas" font-size="41.0" fill="#000000" transform="matrix(1.00, 0.00, -0.00, -1.00, 342.5, 541.5)"> </text><text xml:space="preserve" font-family="Consolas,Consolas" font-size="41.0" fill="#164E86" transform="matrix(1.00, 0.00, -0.00, -1.00, 264.0, 541.5)">s</text><text xml:space="preserve" font-family="Consolas,Consolas" font-size="41.0" fill="#164E86" transform="matrix(1.00, 0.00, -0.00, -1.00, 286.6, 541.5)">p</text><text xml:space="preserve" font-family="Consolas,Consolas" font-size="41.0" fill="#164E86" transform="matrix(1.00, 0.00, -0.00, -1.00, 309.1, 541.5)">a</text><text xml:space="preserve" font-family="Consolas,Consolas" font-size="41.0" fill="#164E86" transform="matrix(1.00, 0.00, -0.00, -1.00, 331.6, 541.5)">w</text><text xml:space="preserve" font-family="Consolas,Consolas" font-size="41.0" fill="#164E86" transform="matrix(1.00, 0.00, -0.00, -1.00, 354.2, 541.5)">n</text><text xml:space="preserve" font-family="Consolas,Consolas" font-size="41.0" fill="#000000" transform="matrix(1.00, 0.00, -0.00, -1.00, 376.7, 541.5)">(</text><text xml:space="preserve" font-family="Consolas,Consolas" font-size="41.0" fill="#000000" transform="matrix(1.00, 0.00, -0.00, -1.00, 399.3, 541.5)">m</text><text xml:space="preserve" font-family="Consolas,Consolas" font-size="41.0" fill="#000000" transform="matrix(1.00, 0.00, -0.00, -1.00, 421.8, 541.5)">o</text><text xml:space="preserve" font-family="Consolas,Consolas" font-size="41.0" fill="#000000" transform="matrix(1.00, 0.00, -0.00, -1.00, 444.3, 541.5)">d</text><text xml:space="preserve" font-family="Consolas,Consolas" font-size="41.0" fill="#000000" transform="matrix(1.00, 0.00, -0.00, -1.00, 466.9, 541.5)">,</text><text xml:space="preserve" font-family="Consolas,Consolas" font-size="41.0" fill="#000000" transform="matrix(1.00, 0.00, -0.00, -1.00, 489.4, 541.5)">	</text><text xml:space="preserve" font-family="Consolas,Consolas" font-size="41.0" fill="#000000" transform="matrix(1.00, 0.00, -0.00, -1.00, 517.4, 541.5)"></text><text xml:space="preserve" font-family="Consolas,Consolas" font-size="41.0" fill="#000000" transform="matrix(1.00, 0.00, -0.00, -1.00, 517.4, 541.5)"> </text><text xml:space="preserve" font-family="Consolas,Consolas" font-size="41.0" fill="#000000" transform="matrix(1.00, 0.00, -0.00, -1.00, 540.0, 541.5)"> </text><text xml:space="preserve" font-family="Consolas,Consolas" font-size="41.0" fill="#851001" transform="matrix(1.00, 0.00, -0.00, -1.00, 512.0, 541.5)">f</text><text xml:space="preserve" font-family="Consolas,Consolas" font-size="41.0" fill="#851001" transform="matrix(1.00, 0.00, -0.00, -1.00, 534.5, 541.5)">u</text><text xml:space="preserve" font-family="Consolas,Consolas" font-size="41.0" fill="#851001" transform="matrix(1.00, 0.00, -0.00, -1.00, 557.1, 541.5)">n</text><text xml:space="preserve" font-family="Consolas,Consolas" font-size="41.0" fill="#851001" transform="matrix(1.00, 0.00, -0.00, -1.00, 579.6, 541.5)">c</text><text xml:space="preserve" font-family="Consolas,Consolas" font-size="41.0" fill="#000000" transform="matrix(1.00, 0.00, -0.00, -1.00, 602.2, 541.5)">,</text><text xml:space="preserve" font-family="Consolas,Consolas" font-size="41.0" fill="#000000" transform="matrix(1.00, 0.00, -0.00, -1.00, 624.7, 541.5)">	</text><text xml:space="preserve" font-family="Consolas,Consolas" font-size="41.0" fill="#000000" transform="matrix(1.00, 0.00, -0.00, -1.00, 652.7, 541.5)"></text><text xml:space="preserve" font-family="Consolas,Consolas" font-size="41.0" fill="#000000" transform="matrix(1.00, 0.00, -0.00, -1.00, 652.7, 541.5)"> </text><text xml:space="preserve" font-family="Consolas,Consolas" font-size="41.0" fill="#000000" transform="matrix(1.00, 0.00, -0.00, -1.00, 675.2, 541.5)"> </text><text xml:space="preserve" font-family="Consolas,Consolas" font-size="41.0" fill="#000000" transform="matrix(1.00, 0.00, -0.00, -1.00, 697.8, 541.5)">[</text><text xml:space="preserve" font-family="Consolas,Consolas" font-size="41.0" fill="#000000" transform="matrix(1.00, 0.00, -0.00, -1.00, 720.3, 541.5)">A</text><text xml:space="preserve" font-family="Consolas,Consolas" font-size="41.0" fill="#000000" transform="matrix(1.00, 0.00, -0.00, -1.00, 742.8, 541.5)">,</text><text xml:space="preserve" font-family="Consolas,Consolas" font-size="41.0" fill="#000000" transform="matrix(1.00, 0.00, -0.00, -1.00, 765.4, 541.5)">	</text><text xml:space="preserve" font-family="Consolas,Consolas" font-size="41.0" fill="#000000" transform="matrix(1.00, 0.00, -0.00, -1.00, 793.4, 541.5)"></text><text xml:space="preserve" font-family="Consolas,Consolas" font-size="41.0" fill="#000000" transform="matrix(1.00, 0.00, -0.00, -1.00, 793.4, 541.5)"> </text><text xml:space="preserve" font-family="Consolas,Consolas" font-size="41.0" fill="#000000" transform="matrix(1.00, 0.00, -0.00, -1.00, 815.9, 541.5)"> </text><text xml:space="preserve" font-family="Consolas,Consolas" font-size="41.0" fill="#000000" transform="matrix(1.00, 0.00, -0.00, -1.00, 838.4, 541.5)">B</text><text xml:space="preserve" font-family="Consolas,Consolas" font-size="41.0" fill="#000000" transform="matrix(1.00, 0.00, -0.00, -1.00, 861.0, 541.5)">,</text><text xml:space="preserve" font-family="Consolas,Consolas" font-size="41.0" fill="#000000" transform="matrix(1.00, 0.00, -0.00, -1.00, 883.5, 541.5)">	</text><text xml:space="preserve" font-family="Consolas,Consolas" font-size="41.0" fill="#000000" transform="matrix(1.00, 0.00, -0.00, -1.00, 911.5, 541.5)"></text><text xml:space="preserve" font-family="Consolas,Consolas" font-size="41.0" fill="#000000" transform="matrix(1.00, 0.00, -0.00, -1.00, 911.5, 541.5)"> </text><text xml:space="preserve" font-family="Consolas,Consolas" font-size="41.0" fill="#000000" transform="matrix(1.00, 0.00, -0.00, -1.00, 934.0, 541.5)"> </text><text xml:space="preserve" font-family="Consolas,Consolas" font-size="41.0" fill="#000000" transform="matrix(1.00, 0.00, -0.00, -1.00, 956.6, 541.5)">C</text><text xml:space="preserve" font-family="Consolas,Consolas" font-size="41.0" fill="#000000" transform="matrix(1.00, 0.00, -0.00, -1.00, 979.1, 541.5)">]</text><text xml:space="preserve" font-family="Consolas,Consolas" font-size="41.0" fill="#000000" transform="matrix(1.00, 0.00, -0.00, -1.00, 1001.6, 541.5)">)</text><text xml:space="preserve" font-family="Consolas,Consolas" font-size="41.0" fill="#000000" transform="matrix(1.00, 0.00, -0.00, -1.00, 1024.2, 541.5)">.</text></g></g></g></svg>